{"glyphs":{"0":{"ha":806,"x_min":110,"x_max":797,"o":"m 365 -14 q 177 64 244 -14 q 110 306 110 142 q 126 486 110 385 q 281 865 171 743 q 542 986 392 986 q 730 909 663 986 q 797 668 797 832 q 779 486 797 585 q 625 108 735 229 q 365 -14 515 -14 m 382 83 q 535 174 469 83 q 640 486 601 264 q 660 682 660 597 q 624 842 660 794 q 524 889 589 889 q 370 799 436 889 q 265 486 304 708 q 246 290 246 375 q 281 131 246 178 q 382 83 317 83 z "},"1":{"ha":542,"x_min":35,"x_max":497,"o":"m 35 0 l 51 97 l 204 97 l 332 819 l 176 729 l 135 806 l 372 972 l 497 972 l 343 97 l 496 97 l 479 0 l 35 0 z "},"2":{"ha":694,"x_min":7,"x_max":728,"o":"m 24 97 q 80 224 36 164 q 179 331 124 283 q 324 444 235 378 q 456 547 407 506 q 541 635 504 588 q 588 736 578 683 q 590 761 590 753 q 547 853 590 817 q 426 889 503 889 q 276 857 354 889 q 221 826 239 839 l 207 826 l 174 910 q 249 947 206 931 q 458 986 339 986 q 658 928 589 986 q 728 772 728 869 q 724 722 728 747 q 664 588 711 651 q 557 474 617 525 q 403 353 497 424 q 231 213 289 268 q 163 97 172 157 l 614 97 l 597 0 l 7 0 l 24 97 z "},"3":{"ha":694,"x_min":-4,"x_max":747,"o":"m 254 -14 q 57 24 135 -14 q -4 63 18 42 l 60 146 l 74 146 q 118 114 90 129 q 257 83 182 83 q 514 278 479 83 q 518 326 518 306 q 471 435 518 399 q 325 472 424 472 l 179 472 l 197 569 l 564 875 l 161 875 l 178 972 l 747 972 l 731 875 l 364 569 q 585 510 511 569 q 658 343 658 451 q 653 278 658 310 q 528 62 628 138 q 254 -14 429 -14 z "},"4":{"ha":750,"x_min":19,"x_max":747,"o":"m 438 0 l 478 236 l 19 236 l 38 333 l 608 972 l 747 972 l 635 333 l 746 333 l 728 236 l 617 236 l 576 0 l 438 0 m 496 333 l 560 694 q 566 722 561 703 q 575 756 571 742 l 588 792 l 582 792 l 557 756 q 536 726 550 746 q 511 694 522 707 l 190 333 l 496 333 z "},"5":{"ha":701,"x_min":10,"x_max":746,"o":"m 268 -14 q 71 24 149 -14 q 10 63 32 42 l 74 146 l 88 146 q 132 114 104 129 q 271 83 196 83 q 524 292 486 83 q 529 347 529 333 q 344 500 529 500 l 178 500 l 143 542 l 219 972 l 746 972 l 729 875 l 342 875 l 292 597 l 382 597 q 597 538 525 597 q 669 365 669 479 q 663 292 669 336 q 538 65 636 143 q 268 -14 439 -14 z "},"6":{"ha":743,"x_min":89,"x_max":778,"o":"m 353 -14 q 89 225 89 -14 q 97 319 89 269 l 142 569 q 283 883 179 781 q 542 986 386 986 q 719 947 647 986 q 778 910 754 931 l 714 826 l 700 826 q 658 857 685 842 q 538 889 600 889 q 376 813 443 889 q 281 569 310 738 q 333 597 306 585 q 471 625 394 625 q 651 566 588 625 q 715 397 715 507 q 708 319 715 354 q 588 70 679 154 q 353 -14 496 -14 m 368 83 q 494 142 440 83 q 569 319 549 200 q 576 381 576 357 q 537 490 576 453 q 426 528 497 528 q 308 500 361 528 q 263 472 286 489 l 236 319 q 229 240 229 283 q 368 83 229 83 z "},"7":{"ha":611,"x_min":119,"x_max":733,"o":"m 181 125 q 328 548 219 347 q 564 875 438 749 l 119 875 l 136 972 l 733 972 l 717 875 q 472 544 586 744 q 319 125 358 344 l 299 0 l 160 0 l 181 125 z "},"8":{"ha":778,"x_min":61,"x_max":779,"o":"m 351 -14 q 194 16 260 -14 q 94 98 128 46 q 61 213 61 150 q 64 250 61 225 q 117 376 78 324 q 210 463 157 429 q 326 514 263 497 q 247 561 279 531 q 189 697 189 614 q 193 743 189 718 q 250 865 204 810 q 368 953 296 921 q 528 986 440 986 q 713 929 647 986 q 779 783 779 872 q 776 743 779 757 q 657 561 756 629 q 563 514 615 532 q 661 463 621 497 q 715 395 694 436 q 735 300 735 354 q 731 250 735 278 q 668 119 719 181 q 534 22 617 58 q 351 -14 451 -14 m 454 569 q 575 633 525 590 q 638 743 625 676 q 640 767 640 760 q 603 853 640 818 q 510 889 565 889 q 395 845 447 889 q 332 743 343 801 q 329 711 329 732 q 454 569 329 613 m 368 83 q 520 129 461 83 q 592 250 579 175 q 594 281 594 272 q 552 385 594 344 q 435 458 510 426 q 263 363 326 418 q 200 217 200 308 q 243 119 200 154 q 368 83 286 83 z "},"9":{"ha":743,"x_min":65,"x_max":756,"o":"m 303 -14 q 124 24 193 -14 q 65 63 88 40 l 129 146 l 143 146 q 185 114 157 131 q 306 83 240 83 q 564 403 510 83 q 510 375 535 386 q 374 347 449 347 q 192 407 256 347 q 128 576 128 467 q 135 653 128 608 q 256 902 164 818 q 492 986 349 986 q 689 927 622 986 q 756 749 756 868 q 746 653 756 701 l 703 403 q 563 88 665 190 q 303 -14 460 -14 m 418 444 q 536 472 483 444 q 581 500 561 485 l 607 653 q 615 733 615 697 q 578 851 615 813 q 475 889 542 889 q 349 831 403 889 q 274 653 294 772 q 268 594 268 625 q 307 483 268 521 q 418 444 346 444 z "},"\u0000":{"ha":0,"x_min":0,"x_max":0,"o":""},"\r":{"ha":403,"x_min":0,"x_max":0,"o":""}," ":{"ha":403,"x_min":0,"x_max":0,"o":""},"A":{"ha":792,"x_min":-14,"x_max":736,"o":"m -14 0 l 442 972 l 622 972 l 736 0 l 597 0 l 564 250 l 244 250 l 125 0 l -14 0 m 554 347 l 510 729 q 507 767 507 746 q 507 794 507 789 q 508 826 507 817 l 503 826 q 493 793 497 804 q 468 729 481 757 l 290 347 l 554 347 z "},"Á":{"ha":792,"x_min":-14,"x_max":736,"o":"m -14 0 l 442 972 l 622 972 l 736 0 l 597 0 l 564 250 l 244 250 l 125 0 l -14 0 m 554 347 l 510 729 q 507 767 507 746 q 507 794 507 789 q 508 826 507 817 l 503 826 q 493 793 497 804 q 468 729 481 757 l 290 347 l 554 347 m 476 1042 l 576 1250 l 729 1250 l 567 1042 l 476 1042 z "},"Ă":{"ha":792,"x_min":-14,"x_max":786,"o":"m -14 0 l 442 972 l 622 972 l 736 0 l 597 0 l 564 250 l 244 250 l 125 0 l -14 0 m 554 347 l 510 729 q 507 767 507 746 q 507 794 507 789 q 508 826 507 817 l 503 826 q 493 793 497 804 q 468 729 481 757 l 290 347 l 554 347 m 546 1056 q 411 1092 457 1056 q 365 1194 365 1129 q 369 1236 365 1214 l 494 1236 q 492 1203 492 1224 q 509 1154 492 1169 q 561 1139 526 1139 q 628 1162 604 1139 q 661 1236 651 1185 l 786 1236 q 708 1103 769 1151 q 546 1056 647 1056 z "},"Â":{"ha":792,"x_min":-14,"x_max":738,"o":"m -14 0 l 442 972 l 622 972 l 736 0 l 597 0 l 564 250 l 244 250 l 125 0 l -14 0 m 554 347 l 510 729 q 507 767 507 746 q 507 794 507 789 q 508 826 507 817 l 503 826 q 493 793 497 804 q 468 729 481 757 l 290 347 l 554 347 m 349 1042 l 526 1222 l 624 1222 l 738 1042 l 647 1042 l 560 1132 l 439 1042 l 349 1042 z "},"Ä":{"ha":792,"x_min":-14,"x_max":754,"o":"m -14 0 l 442 972 l 622 972 l 736 0 l 597 0 l 564 250 l 244 250 l 125 0 l -14 0 m 554 347 l 510 729 q 507 767 507 746 q 507 794 507 789 q 508 826 507 817 l 503 826 q 493 793 497 804 q 468 729 481 757 l 290 347 l 554 347 m 419 1049 q 373 1065 390 1049 q 356 1108 356 1081 q 357 1125 356 1119 q 388 1180 363 1158 q 447 1201 414 1201 q 494 1184 476 1201 q 511 1139 511 1167 q 510 1125 511 1131 q 478 1070 503 1092 q 419 1049 453 1049 m 663 1049 q 616 1065 633 1049 q 599 1108 599 1081 q 600 1125 599 1119 q 631 1180 606 1158 q 690 1201 657 1201 q 737 1184 719 1201 q 754 1139 754 1167 q 753 1125 754 1131 q 721 1070 746 1092 q 663 1049 696 1049 z "},"À":{"ha":792,"x_min":-14,"x_max":736,"o":"m -14 0 l 442 972 l 622 972 l 736 0 l 597 0 l 564 250 l 244 250 l 125 0 l -14 0 m 554 347 l 510 729 q 507 767 507 746 q 507 794 507 789 q 508 826 507 817 l 503 826 q 493 793 497 804 q 468 729 481 757 l 290 347 l 554 347 m 504 1042 l 417 1250 l 569 1250 l 594 1042 l 504 1042 z "},"Ā":{"ha":792,"x_min":-14,"x_max":756,"o":"m -14 0 l 442 972 l 622 972 l 736 0 l 597 0 l 564 250 l 244 250 l 125 0 l -14 0 m 554 347 l 510 729 q 507 767 507 746 q 507 794 507 789 q 508 826 507 817 l 503 826 q 493 793 497 804 q 468 729 481 757 l 290 347 l 554 347 m 364 1083 l 381 1181 l 756 1181 l 739 1083 l 364 1083 z "},"Ą":{"ha":799,"x_min":-14,"x_max":786,"o":"m -14 0 l 442 972 l 622 972 l 736 0 l 597 0 l 564 250 l 244 250 l 125 0 l -14 0 m 554 347 l 510 729 q 507 767 507 746 q 507 794 507 789 q 508 826 507 817 l 503 826 q 493 793 497 804 q 468 729 481 757 l 290 347 l 554 347 m 656 -215 q 575 -194 601 -215 q 549 -133 549 -172 q 550 -111 549 -119 q 599 -32 554 -76 q 639 0 624 -10 l 736 0 q 696 -26 721 -7 q 663 -61 676 -42 q 650 -99 650 -81 q 661 -128 650 -117 q 690 -139 672 -139 q 728 -132 708 -139 q 759 -118 747 -125 q 774 -108 771 -111 l 786 -108 l 774 -181 q 740 -199 756 -193 q 656 -215 704 -215 z "},"Å":{"ha":792,"x_min":-14,"x_max":736,"o":"m -14 0 l 442 972 l 622 972 l 736 0 l 597 0 l 564 250 l 244 250 l 125 0 l -14 0 m 554 347 l 510 729 q 507 767 507 746 q 507 794 507 789 q 508 826 507 817 l 503 826 q 493 793 497 804 q 468 729 481 757 l 290 347 l 554 347 m 542 1028 q 456 1057 488 1028 q 424 1135 424 1086 q 425 1160 424 1151 q 481 1255 436 1218 q 588 1292 525 1292 q 674 1263 642 1292 q 706 1188 706 1235 q 658 1074 706 1119 q 542 1028 611 1028 m 554 1097 q 595 1113 576 1097 q 619 1160 614 1129 q 621 1176 621 1165 q 608 1210 621 1199 q 575 1222 594 1222 q 534 1206 553 1222 q 508 1160 515 1190 q 507 1146 507 1154 q 520 1110 507 1122 q 554 1097 533 1097 z "},"Ã":{"ha":792,"x_min":-14,"x_max":746,"o":"m -14 0 l 442 972 l 622 972 l 736 0 l 597 0 l 564 250 l 244 250 l 125 0 l -14 0 m 554 347 l 510 729 q 507 767 507 746 q 507 794 507 789 q 508 826 507 817 l 503 826 q 493 793 497 804 q 468 729 481 757 l 290 347 l 554 347 m 600 1042 q 558 1051 574 1042 q 528 1079 543 1061 q 518 1090 525 1082 q 503 1101 511 1097 q 486 1104 494 1104 q 431 1076 450 1103 q 413 1049 413 1049 l 400 1049 l 350 1083 q 413 1169 378 1138 q 496 1201 447 1201 q 538 1192 522 1201 q 569 1164 554 1182 q 590 1145 581 1151 q 611 1139 599 1139 q 646 1151 629 1139 q 672 1177 663 1164 q 683 1194 681 1190 l 696 1194 l 746 1160 q 683 1074 718 1106 q 600 1042 649 1042 z "},"Æ":{"ha":1132,"x_min":-62,"x_max":1226,"o":"m -62 0 l 518 972 l 1226 972 l 1210 875 l 807 875 l 750 556 l 1069 556 l 1053 458 l 733 458 l 669 97 l 1072 97 l 1056 0 l 514 0 l 563 278 l 243 278 l 76 0 l -62 0 m 301 375 l 579 375 l 668 875 l 599 875 l 301 375 z "},"B":{"ha":799,"x_min":90,"x_max":792,"o":"m 261 972 l 525 972 q 723 918 654 972 q 792 775 792 864 q 788 729 792 753 q 676 554 767 617 q 590 514 636 526 q 679 469 643 501 q 744 315 744 410 q 740 264 744 292 q 622 70 718 140 q 354 0 525 0 l 90 0 l 261 972 m 451 556 q 582 598 531 556 q 646 715 633 640 q 650 753 650 736 q 613 843 650 811 q 508 875 576 875 l 383 875 l 326 556 l 451 556 m 371 97 q 604 278 572 97 q 608 325 608 303 q 435 458 608 458 l 310 458 l 246 97 l 371 97 z "},"C":{"ha":715,"x_min":110,"x_max":792,"o":"m 400 -14 q 184 63 258 -14 q 110 308 110 140 q 126 486 110 386 q 284 865 171 744 q 563 986 397 986 q 735 947 663 986 q 792 910 769 929 l 728 826 l 714 826 q 672 857 697 840 q 558 889 617 889 q 265 486 339 889 q 247 317 247 392 q 431 83 247 83 q 556 114 492 83 q 608 146 592 133 l 622 146 l 656 63 q 585 24 626 42 q 400 -14 504 -14 z "},"Ć":{"ha":715,"x_min":110,"x_max":792,"o":"m 400 -14 q 184 63 258 -14 q 110 308 110 140 q 126 486 110 386 q 284 865 171 744 q 563 986 397 986 q 735 947 663 986 q 792 910 769 929 l 728 826 l 714 826 q 672 857 697 840 q 558 889 617 889 q 265 486 339 889 q 247 317 247 392 q 431 83 247 83 q 556 114 492 83 q 608 146 592 133 l 622 146 l 656 63 q 585 24 626 42 q 400 -14 504 -14 m 522 1042 l 622 1250 l 775 1250 l 613 1042 l 522 1042 z "},"Č":{"ha":715,"x_min":110,"x_max":803,"o":"m 400 -14 q 184 63 258 -14 q 110 308 110 140 q 126 486 110 386 q 284 865 171 744 q 563 986 397 986 q 735 947 663 986 q 792 910 769 929 l 728 826 l 714 826 q 672 857 697 840 q 558 889 617 889 q 265 486 339 889 q 247 317 247 392 q 431 83 247 83 q 556 114 492 83 q 608 146 592 133 l 622 146 l 656 63 q 585 24 626 42 q 400 -14 504 -14 m 528 1056 l 414 1236 l 504 1236 l 593 1146 l 713 1236 l 803 1236 l 625 1056 l 528 1056 z "},"Ç":{"ha":715,"x_min":110,"x_max":792,"o":"m 735 947 q 792 910 769 929 l 728 826 l 714 826 q 672 857 697 840 q 558 889 617 889 q 265 486 339 889 q 247 317 247 392 q 431 83 247 83 q 556 114 492 83 q 608 146 592 133 l 622 146 l 656 63 q 585 24 626 42 q 400 -14 504 -14 l 394 -42 q 473 -67 444 -42 q 501 -132 501 -92 q 459 -226 501 -187 q 349 -264 417 -264 q 271 -250 304 -264 q 244 -236 251 -242 l 275 -181 l 288 -181 q 297 -187 289 -182 q 317 -197 304 -192 q 346 -201 331 -201 q 389 -187 371 -201 q 410 -153 407 -174 q 400 -117 414 -131 q 356 -104 386 -104 l 300 -104 l 318 -7 q 110 308 110 35 q 126 486 110 386 q 284 865 171 744 q 563 986 397 986 q 735 947 663 986 z "},"D":{"ha":813,"x_min":90,"x_max":801,"o":"m 261 972 l 469 972 q 719 896 636 972 q 801 651 801 819 q 786 486 801 571 q 621 115 740 231 q 299 0 501 0 l 90 0 l 261 972 m 315 97 q 528 186 447 97 q 647 486 610 275 q 663 640 663 581 q 610 820 663 765 q 453 875 557 875 l 383 875 l 246 97 l 315 97 z "},"Ð":{"ha":813,"x_min":90,"x_max":801,"o":"m 168 444 l 92 444 l 111 556 l 188 556 l 261 972 l 469 972 q 719 896 636 972 q 801 651 801 819 q 786 486 801 571 q 621 115 740 231 q 299 0 501 0 l 90 0 l 168 444 m 315 97 q 528 186 447 97 q 647 486 610 275 q 663 640 663 581 q 610 820 663 765 q 453 875 557 875 l 383 875 l 326 556 l 486 556 l 467 444 l 307 444 l 246 97 l 315 97 z "},"Ď":{"ha":813,"x_min":90,"x_max":801,"o":"m 261 972 l 469 972 q 719 896 636 972 q 801 651 801 819 q 786 486 801 571 q 621 115 740 231 q 299 0 501 0 l 90 0 l 261 972 m 315 97 q 528 186 447 97 q 647 486 610 275 q 663 640 663 581 q 610 820 663 765 q 453 875 557 875 l 383 875 l 246 97 l 315 97 m 472 1056 l 358 1236 l 449 1236 l 538 1146 l 657 1236 l 747 1236 l 569 1056 l 472 1056 z "},"Đ":{"ha":813,"x_min":90,"x_max":801,"o":"m 168 444 l 92 444 l 111 556 l 188 556 l 261 972 l 469 972 q 719 896 636 972 q 801 651 801 819 q 786 486 801 571 q 621 115 740 231 q 299 0 501 0 l 90 0 l 168 444 m 315 97 q 528 186 447 97 q 647 486 610 275 q 663 640 663 581 q 610 820 663 765 q 453 875 557 875 l 383 875 l 326 556 l 486 556 l 467 444 l 307 444 l 246 97 l 315 97 z "},"E":{"ha":708,"x_min":90,"x_max":803,"o":"m 90 0 l 261 972 l 803 972 l 786 875 l 383 875 l 326 556 l 646 556 l 629 458 l 310 458 l 246 97 l 649 97 l 632 0 l 90 0 z "},"É":{"ha":708,"x_min":90,"x_max":803,"o":"m 90 0 l 261 972 l 803 972 l 786 875 l 383 875 l 326 556 l 646 556 l 629 458 l 310 458 l 246 97 l 649 97 l 632 0 l 90 0 m 467 1042 l 567 1250 l 719 1250 l 557 1042 l 467 1042 z "},"Ě":{"ha":708,"x_min":90,"x_max":803,"o":"m 90 0 l 261 972 l 803 972 l 786 875 l 383 875 l 326 556 l 646 556 l 629 458 l 310 458 l 246 97 l 649 97 l 632 0 l 90 0 m 514 1056 l 400 1236 l 490 1236 l 579 1146 l 699 1236 l 789 1236 l 611 1056 l 514 1056 z "},"Ê":{"ha":708,"x_min":90,"x_max":803,"o":"m 90 0 l 261 972 l 803 972 l 786 875 l 383 875 l 326 556 l 646 556 l 629 458 l 310 458 l 246 97 l 649 97 l 632 0 l 90 0 m 354 1056 l 532 1236 l 629 1236 l 743 1056 l 653 1056 l 565 1146 l 444 1056 l 354 1056 z "},"Ë":{"ha":708,"x_min":90,"x_max":803,"o":"m 90 0 l 261 972 l 803 972 l 786 875 l 383 875 l 326 556 l 646 556 l 629 458 l 310 458 l 246 97 l 649 97 l 632 0 l 90 0 m 425 1063 q 378 1078 396 1063 q 361 1122 361 1094 q 363 1139 361 1133 q 394 1194 368 1172 q 453 1215 419 1215 q 499 1198 482 1215 q 517 1153 517 1181 q 515 1139 517 1144 q 483 1084 508 1106 q 425 1063 458 1063 m 668 1063 q 622 1078 639 1063 q 604 1122 604 1094 q 606 1139 604 1133 q 637 1194 611 1172 q 696 1215 663 1215 q 742 1198 725 1215 q 760 1153 760 1181 q 758 1139 760 1144 q 726 1084 751 1106 q 668 1063 701 1063 z "},"Ė":{"ha":708,"x_min":90,"x_max":803,"o":"m 90 0 l 261 972 l 803 972 l 786 875 l 383 875 l 326 556 l 646 556 l 629 458 l 310 458 l 246 97 l 649 97 l 632 0 l 90 0 m 563 1056 q 513 1074 532 1056 q 493 1121 493 1092 q 522 1193 493 1164 q 592 1222 550 1222 q 643 1204 624 1222 q 663 1157 663 1186 q 633 1085 663 1114 q 563 1056 604 1056 z "},"È":{"ha":708,"x_min":90,"x_max":803,"o":"m 90 0 l 261 972 l 803 972 l 786 875 l 383 875 l 326 556 l 646 556 l 629 458 l 310 458 l 246 97 l 649 97 l 632 0 l 90 0 m 522 1042 l 435 1250 l 588 1250 l 613 1042 l 522 1042 z "},"Ē":{"ha":708,"x_min":90,"x_max":803,"o":"m 90 0 l 261 972 l 803 972 l 786 875 l 383 875 l 326 556 l 646 556 l 629 458 l 310 458 l 246 97 l 649 97 l 632 0 l 90 0 m 369 1097 l 386 1194 l 761 1194 l 744 1097 l 369 1097 z "},"Ę":{"ha":708,"x_min":90,"x_max":803,"o":"m 90 0 l 261 972 l 803 972 l 786 875 l 383 875 l 326 556 l 646 556 l 629 458 l 310 458 l 246 97 l 649 97 l 632 0 l 90 0 m 357 -215 q 276 -194 303 -215 q 250 -133 250 -172 q 251 -111 250 -119 q 300 -32 256 -76 q 340 0 325 -10 l 438 0 q 397 -26 422 -7 q 365 -61 378 -42 q 351 -99 351 -81 q 363 -128 351 -117 q 392 -139 374 -139 q 429 -132 410 -139 q 460 -118 449 -125 q 475 -108 472 -111 l 488 -108 l 475 -181 q 442 -199 457 -193 q 357 -215 406 -215 z "},"F":{"ha":694,"x_min":90,"x_max":803,"o":"m 90 0 l 261 972 l 803 972 l 786 875 l 383 875 l 324 542 l 643 542 l 626 444 l 307 444 l 229 0 l 90 0 z "},"G":{"ha":785,"x_min":111,"x_max":792,"o":"m 400 -14 q 189 71 267 -14 q 111 325 111 156 q 126 486 111 404 q 221 767 156 654 q 374 933 286 879 q 563 986 463 986 q 735 947 663 986 q 792 910 769 929 l 728 826 l 714 826 q 672 857 697 840 q 558 889 617 889 q 265 486 339 889 q 247 317 247 392 q 431 83 247 83 q 479 90 454 83 q 520 102 504 96 q 540 111 536 108 l 596 431 l 436 431 l 454 528 l 711 528 l 744 486 l 669 63 q 594 24 639 42 q 400 -14 507 -14 z "},"Ğ":{"ha":785,"x_min":111,"x_max":800,"o":"m 400 -14 q 189 71 267 -14 q 111 325 111 156 q 126 486 111 404 q 221 767 156 654 q 374 933 286 879 q 563 986 463 986 q 735 947 663 986 q 792 910 769 929 l 728 826 l 714 826 q 672 857 697 840 q 558 889 617 889 q 265 486 339 889 q 247 317 247 392 q 431 83 247 83 q 479 90 454 83 q 520 102 504 96 q 540 111 536 108 l 596 431 l 436 431 l 454 528 l 711 528 l 744 486 l 669 63 q 594 24 639 42 q 400 -14 507 -14 m 560 1042 q 425 1078 471 1042 q 379 1181 379 1115 q 383 1222 379 1200 l 508 1222 q 506 1189 506 1210 q 523 1140 506 1156 q 575 1125 540 1125 q 642 1148 618 1125 q 675 1222 665 1171 l 800 1222 q 722 1090 783 1138 q 560 1042 661 1042 z "},"Ģ":{"ha":785,"x_min":111,"x_max":792,"o":"m 400 -14 q 189 71 267 -14 q 111 325 111 156 q 126 486 111 404 q 221 767 156 654 q 374 933 286 879 q 563 986 463 986 q 735 947 663 986 q 792 910 769 929 l 728 826 l 714 826 q 672 857 697 840 q 558 889 617 889 q 265 486 339 889 q 247 317 247 392 q 431 83 247 83 q 479 90 454 83 q 520 102 504 96 q 540 111 536 108 l 596 431 l 436 431 l 454 528 l 711 528 l 744 486 l 669 63 q 594 24 639 42 q 400 -14 507 -14 m 257 -325 q 297 -294 278 -311 q 344 -221 338 -254 q 304 -203 321 -221 q 288 -157 288 -185 q 315 -95 288 -122 q 371 -68 342 -68 q 422 -87 403 -68 q 440 -137 440 -106 q 439 -157 440 -150 q 356 -318 419 -251 q 292 -368 326 -350 l 257 -325 z "},"H":{"ha":875,"x_min":90,"x_max":886,"o":"m 90 0 l 261 972 l 400 972 l 324 542 l 671 542 l 747 972 l 886 972 l 715 0 l 576 0 l 654 444 l 307 444 l 229 0 l 90 0 z "},"I":{"ha":389,"x_min":90,"x_max":400,"o":"m 90 0 l 261 972 l 400 972 l 229 0 l 90 0 z "},"Í":{"ha":385,"x_min":90,"x_max":542,"o":"m 90 0 l 261 972 l 400 972 l 229 0 l 90 0 m 289 1042 l 389 1250 l 542 1250 l 379 1042 l 289 1042 z "},"Î":{"ha":375,"x_min":90,"x_max":532,"o":"m 90 0 l 261 972 l 400 972 l 229 0 l 90 0 m 143 1056 l 321 1236 l 418 1236 l 532 1056 l 442 1056 l 354 1146 l 233 1056 l 143 1056 z "},"Ï":{"ha":361,"x_min":90,"x_max":542,"o":"m 90 0 l 261 972 l 400 972 l 229 0 l 90 0 m 207 1063 q 160 1078 178 1063 q 143 1122 143 1094 q 144 1139 143 1133 q 176 1194 150 1172 q 235 1215 201 1215 q 281 1198 264 1215 q 299 1153 299 1181 q 297 1139 299 1144 q 265 1084 290 1106 q 207 1063 240 1063 m 450 1063 q 403 1078 421 1063 q 386 1122 386 1094 q 388 1139 386 1133 q 419 1194 393 1172 q 478 1215 444 1215 q 524 1198 507 1215 q 542 1153 542 1181 q 540 1139 542 1144 q 508 1084 533 1106 q 450 1063 483 1063 z "},"İ":{"ha":361,"x_min":90,"x_max":431,"o":"m 90 0 l 261 972 l 400 972 l 229 0 l 90 0 m 331 1056 q 281 1074 300 1056 q 261 1121 261 1092 q 290 1193 261 1164 q 360 1222 318 1222 q 411 1204 392 1222 q 431 1157 431 1186 q 401 1085 431 1114 q 331 1056 372 1056 z "},"Ì":{"ha":386,"x_min":90,"x_max":400,"o":"m 90 0 l 261 972 l 400 972 l 229 0 l 90 0 m 300 1042 l 213 1250 l 365 1250 l 390 1042 l 300 1042 z "},"Ī":{"ha":361,"x_min":90,"x_max":540,"o":"m 90 0 l 261 972 l 400 972 l 229 0 l 90 0 m 149 1083 l 165 1181 l 540 1181 l 524 1083 l 149 1083 z "},"Į":{"ha":375,"x_min":35,"x_max":400,"o":"m 90 0 l 261 972 l 400 972 l 229 0 l 90 0 m 142 -215 q 61 -194 88 -215 q 35 -133 35 -172 q 36 -111 35 -119 q 85 -32 40 -76 q 125 0 110 -10 l 222 0 q 182 -26 207 -7 q 149 -61 163 -42 q 136 -99 136 -81 q 147 -128 136 -117 q 176 -139 158 -139 q 214 -132 194 -139 q 245 -118 233 -125 q 260 -108 257 -111 l 272 -108 l 260 -181 q 226 -199 242 -193 q 142 -215 190 -215 z "},"Ĩ":{"ha":347,"x_min":90,"x_max":532,"o":"m 90 0 l 261 972 l 400 972 l 229 0 l 90 0 m 386 1083 q 344 1093 360 1083 q 314 1121 329 1103 q 304 1131 311 1124 q 289 1142 297 1139 q 272 1146 281 1146 q 217 1117 236 1144 q 199 1090 199 1090 l 186 1090 l 136 1125 q 199 1211 164 1179 q 282 1243 233 1243 q 324 1233 308 1243 q 356 1206 340 1224 q 376 1187 367 1193 q 397 1181 385 1181 q 432 1193 415 1181 q 458 1219 449 1206 q 469 1236 467 1232 l 482 1236 l 532 1201 q 469 1115 504 1147 q 386 1083 435 1083 z "},"J":{"ha":590,"x_min":-26,"x_max":608,"o":"m 150 -14 q 19 17 83 -14 q -26 49 -11 33 l 31 139 l 44 139 q 75 111 64 119 q 153 83 113 83 q 281 127 233 83 q 344 264 328 171 l 469 972 l 608 972 l 483 264 q 376 56 460 126 q 150 -14 292 -14 z "},"Ĵ":{"ha":569,"x_min":-26,"x_max":735,"o":"m 150 -14 q 19 17 83 -14 q -26 49 -11 33 l 31 139 l 44 139 q 75 111 64 119 q 153 83 113 83 q 281 127 233 83 q 344 264 328 171 l 469 972 l 608 972 l 483 264 q 376 56 460 126 q 150 -14 292 -14 m 346 1028 l 524 1208 l 621 1208 l 735 1028 l 644 1028 l 557 1118 l 436 1028 l 346 1028 z "},"K":{"ha":771,"x_min":90,"x_max":872,"o":"m 90 0 l 261 972 l 400 972 l 319 514 l 713 972 l 872 972 l 469 500 l 715 0 l 556 0 l 314 486 l 229 0 l 90 0 z "},"Ķ":{"ha":771,"x_min":90,"x_max":872,"o":"m 90 0 l 261 972 l 400 972 l 319 514 l 713 972 l 872 972 l 469 500 l 715 0 l 556 0 l 314 486 l 229 0 l 90 0 m 246 -271 q 286 -240 267 -257 q 333 -167 326 -200 q 293 -149 310 -167 q 276 -103 276 -131 q 303 -41 276 -68 q 360 -14 331 -14 q 410 -33 392 -14 q 429 -83 429 -51 q 428 -103 429 -96 q 344 -264 408 -197 q 281 -314 315 -296 l 246 -271 z "},"L":{"ha":681,"x_min":90,"x_max":649,"o":"m 90 0 l 261 972 l 400 972 l 246 97 l 649 97 l 632 0 l 90 0 z "},"Ĺ":{"ha":681,"x_min":90,"x_max":649,"o":"m 90 0 l 261 972 l 400 972 l 246 97 l 649 97 l 632 0 l 90 0 m 314 1042 l 414 1250 l 567 1250 l 404 1042 l 314 1042 z "},"Ľ":{"ha":681,"x_min":90,"x_max":649,"o":"m 90 0 l 261 972 l 400 972 l 246 97 l 649 97 l 632 0 l 90 0 m 458 715 q 499 746 479 729 q 547 819 542 789 q 506 838 524 819 q 489 883 489 856 q 490 896 489 892 q 522 950 497 928 q 574 972 547 972 q 624 953 606 972 q 643 903 643 935 q 642 883 643 890 q 557 722 622 790 q 493 672 528 690 l 458 715 z "},"Ļ":{"ha":681,"x_min":90,"x_max":649,"o":"m 90 0 l 261 972 l 400 972 l 246 97 l 649 97 l 632 0 l 90 0 m 229 -325 q 269 -294 250 -311 q 317 -221 310 -254 q 276 -203 293 -221 q 260 -157 260 -185 q 287 -95 260 -122 q 343 -68 314 -68 q 394 -87 375 -68 q 413 -137 413 -106 q 411 -157 413 -150 q 328 -318 392 -251 q 264 -368 299 -350 l 229 -325 z "},"Ł":{"ha":656,"x_min":39,"x_max":624,"o":"m 79 0 l 144 375 l 39 306 l 67 458 l 172 528 l 250 972 l 389 972 l 329 632 l 507 750 l 479 597 l 301 479 l 235 97 l 624 97 l 607 0 l 79 0 z "},"M":{"ha":1167,"x_min":90,"x_max":1178,"o":"m 261 972 l 400 972 l 588 382 q 597 339 596 358 l 600 313 l 606 313 l 618 339 q 643 382 632 369 l 1039 972 l 1178 972 l 1007 0 l 868 0 l 971 583 l 986 658 l 997 701 l 992 701 l 971 658 q 929 583 946 607 l 649 174 l 510 174 l 374 583 q 358 658 367 603 q 353 701 356 674 l 347 701 l 342 658 l 338 622 q 332 583 335 594 l 229 0 l 90 0 l 261 972 z "},"N":{"ha":875,"x_min":90,"x_max":886,"o":"m 261 972 l 414 972 l 596 354 q 611 279 601 332 q 617 236 614 264 l 622 236 l 628 279 l 632 317 q 638 354 635 342 l 747 972 l 886 972 l 715 0 l 563 0 l 379 618 q 364 693 372 638 q 358 736 361 708 l 353 736 l 347 693 l 343 657 q 338 618 340 629 l 229 0 l 90 0 l 261 972 z "},"Ń":{"ha":875,"x_min":90,"x_max":886,"o":"m 261 972 l 414 972 l 596 354 q 611 279 601 332 q 617 236 614 264 l 622 236 l 628 279 l 632 317 q 638 354 635 342 l 747 972 l 886 972 l 715 0 l 563 0 l 379 618 q 364 693 372 638 q 358 736 361 708 l 353 736 l 347 693 l 343 657 q 338 618 340 629 l 229 0 l 90 0 l 261 972 m 515 1028 l 615 1236 l 768 1236 l 606 1028 l 515 1028 z "},"Ň":{"ha":875,"x_min":90,"x_max":886,"o":"m 261 972 l 414 972 l 596 354 q 611 279 601 332 q 617 236 614 264 l 622 236 l 628 279 l 632 317 q 638 354 635 342 l 747 972 l 886 972 l 715 0 l 563 0 l 379 618 q 364 693 372 638 q 358 736 361 708 l 353 736 l 347 693 l 343 657 q 338 618 340 629 l 229 0 l 90 0 l 261 972 m 536 1042 l 422 1222 l 513 1222 l 601 1132 l 721 1222 l 811 1222 l 633 1042 l 536 1042 z "},"Ņ":{"ha":875,"x_min":90,"x_max":886,"o":"m 261 972 l 414 972 l 596 354 q 611 279 601 332 q 617 236 614 264 l 622 236 l 628 279 l 632 317 q 638 354 635 342 l 747 972 l 886 972 l 715 0 l 563 0 l 379 618 q 364 693 372 638 q 358 736 361 708 l 353 736 l 347 693 l 343 657 q 338 618 340 629 l 229 0 l 90 0 l 261 972 m 278 -271 q 318 -240 299 -257 q 365 -167 358 -200 q 325 -149 342 -167 q 308 -103 308 -131 q 335 -41 308 -68 q 392 -14 363 -14 q 442 -33 424 -14 q 461 -83 461 -51 q 460 -103 461 -96 q 376 -264 440 -197 q 313 -314 347 -296 l 278 -271 z "},"Ñ":{"ha":875,"x_min":90,"x_max":886,"o":"m 261 972 l 414 972 l 596 354 q 611 279 601 332 q 617 236 614 264 l 622 236 l 628 279 l 632 317 q 638 354 635 342 l 747 972 l 886 972 l 715 0 l 563 0 l 379 618 q 364 693 372 638 q 358 736 361 708 l 353 736 l 347 693 l 343 657 q 338 618 340 629 l 229 0 l 90 0 l 261 972 m 642 1042 q 600 1051 615 1042 q 569 1079 585 1061 q 560 1090 567 1082 q 544 1101 553 1097 q 528 1104 536 1104 q 473 1076 492 1103 q 454 1049 454 1049 l 442 1049 l 392 1083 q 454 1169 419 1138 q 538 1201 489 1201 q 580 1192 564 1201 q 611 1164 596 1182 q 631 1145 622 1151 q 653 1139 640 1139 q 688 1151 671 1139 q 713 1177 704 1164 q 725 1194 722 1190 l 738 1194 l 788 1160 q 725 1074 760 1106 q 642 1042 690 1042 z "},"O":{"ha":833,"x_min":110,"x_max":824,"o":"m 379 -14 q 181 64 251 -14 q 110 307 110 142 q 126 486 110 386 q 283 865 171 744 q 556 986 396 986 q 753 909 683 986 q 824 667 824 832 q 807 486 824 589 q 651 107 763 228 q 379 -14 539 -14 m 396 83 q 556 178 483 83 q 668 486 629 274 q 686 658 686 582 q 644 833 686 778 q 538 889 603 889 q 376 794 449 889 q 265 486 304 700 q 247 311 247 388 q 288 138 247 192 q 396 83 329 83 z "},"Ó":{"ha":833,"x_min":110,"x_max":824,"o":"m 379 -14 q 181 64 251 -14 q 110 307 110 142 q 126 486 110 386 q 283 865 171 744 q 556 986 396 986 q 753 909 683 986 q 824 667 824 832 q 807 486 824 589 q 651 107 763 228 q 379 -14 539 -14 m 396 83 q 556 178 483 83 q 668 486 629 274 q 686 658 686 582 q 644 833 686 778 q 538 889 603 889 q 376 794 449 889 q 265 486 304 700 q 247 311 247 388 q 288 138 247 192 q 396 83 329 83 m 497 1042 l 597 1250 l 750 1250 l 588 1042 l 497 1042 z "},"Ô":{"ha":833,"x_min":110,"x_max":824,"o":"m 379 -14 q 181 64 251 -14 q 110 307 110 142 q 126 486 110 386 q 283 865 171 744 q 556 986 396 986 q 753 909 683 986 q 824 667 824 832 q 807 486 824 589 q 651 107 763 228 q 379 -14 539 -14 m 396 83 q 556 178 483 83 q 668 486 629 274 q 686 658 686 582 q 644 833 686 778 q 538 889 603 889 q 376 794 449 889 q 265 486 304 700 q 247 311 247 388 q 288 138 247 192 q 396 83 329 83 m 372 1056 l 550 1236 l 647 1236 l 761 1056 l 671 1056 l 583 1146 l 463 1056 l 372 1056 z "},"Ö":{"ha":833,"x_min":110,"x_max":824,"o":"m 379 -14 q 181 64 251 -14 q 110 307 110 142 q 126 486 110 386 q 283 865 171 744 q 556 986 396 986 q 753 909 683 986 q 824 667 824 832 q 807 486 824 589 q 651 107 763 228 q 379 -14 539 -14 m 396 83 q 556 178 483 83 q 668 486 629 274 q 686 658 686 582 q 644 833 686 778 q 538 889 603 889 q 376 794 449 889 q 265 486 304 700 q 247 311 247 388 q 288 138 247 192 q 396 83 329 83 m 443 1063 q 397 1078 414 1063 q 379 1122 379 1094 q 381 1139 379 1133 q 412 1194 386 1172 q 471 1215 438 1215 q 517 1198 500 1215 q 535 1153 535 1181 q 533 1139 535 1144 q 501 1084 526 1106 q 443 1063 476 1063 m 686 1063 q 640 1078 657 1063 q 622 1122 622 1094 q 624 1139 622 1133 q 655 1194 629 1172 q 714 1215 681 1215 q 760 1198 743 1215 q 778 1153 778 1181 q 776 1139 778 1144 q 744 1084 769 1106 q 686 1063 719 1063 z "},"Ò":{"ha":833,"x_min":110,"x_max":824,"o":"m 379 -14 q 181 64 251 -14 q 110 307 110 142 q 126 486 110 386 q 283 865 171 744 q 556 986 396 986 q 753 909 683 986 q 824 667 824 832 q 807 486 824 589 q 651 107 763 228 q 379 -14 539 -14 m 396 83 q 556 178 483 83 q 668 486 629 274 q 686 658 686 582 q 644 833 686 778 q 538 889 603 889 q 376 794 449 889 q 265 486 304 700 q 247 311 247 388 q 288 138 247 192 q 396 83 329 83 m 539 1042 l 451 1250 l 604 1250 l 629 1042 l 539 1042 z "},"Ő":{"ha":833,"x_min":110,"x_max":847,"o":"m 379 -14 q 181 64 251 -14 q 110 307 110 142 q 126 486 110 386 q 283 865 171 744 q 556 986 396 986 q 753 909 683 986 q 824 667 824 832 q 807 486 824 589 q 651 107 763 228 q 379 -14 539 -14 m 396 83 q 556 178 483 83 q 668 486 629 274 q 686 658 686 582 q 644 833 686 778 q 538 889 603 889 q 376 794 449 889 q 265 486 304 700 q 247 311 247 388 q 288 138 247 192 q 396 83 329 83 m 428 1042 l 528 1250 l 660 1250 l 504 1042 l 428 1042 m 615 1042 l 715 1250 l 847 1250 l 692 1042 l 615 1042 z "},"Ō":{"ha":833,"x_min":110,"x_max":824,"o":"m 379 -14 q 181 64 251 -14 q 110 307 110 142 q 126 486 110 386 q 283 865 171 744 q 556 986 396 986 q 753 909 683 986 q 824 667 824 832 q 807 486 824 589 q 651 107 763 228 q 379 -14 539 -14 m 396 83 q 556 178 483 83 q 668 486 629 274 q 686 658 686 582 q 644 833 686 778 q 538 889 603 889 q 376 794 449 889 q 265 486 304 700 q 247 311 247 388 q 288 138 247 192 q 396 83 329 83 m 388 1097 l 404 1194 l 779 1194 l 763 1097 l 388 1097 z "},"Ø":{"ha":833,"x_min":49,"x_max":886,"o":"m 379 -14 q 196 49 260 -14 l 160 0 l 49 0 l 140 124 q 108 300 108 196 q 126 486 108 383 q 283 865 171 744 q 556 986 396 986 q 739 924 669 986 l 775 972 l 886 972 l 793 847 q 825 671 825 776 q 807 486 825 586 q 651 107 763 228 q 379 -14 539 -14 m 657 814 q 538 889 621 889 q 376 794 449 889 q 265 486 304 700 q 249 313 249 385 q 250 269 249 283 l 657 814 m 396 83 q 556 178 483 83 q 668 486 629 274 q 686 664 686 586 q 685 701 686 689 l 276 157 q 396 83 314 83 z "},"Õ":{"ha":833,"x_min":110,"x_max":824,"o":"m 379 -14 q 181 64 251 -14 q 110 307 110 142 q 126 486 110 386 q 283 865 171 744 q 556 986 396 986 q 753 909 683 986 q 824 667 824 832 q 807 486 824 589 q 651 107 763 228 q 379 -14 539 -14 m 396 83 q 556 178 483 83 q 668 486 629 274 q 686 658 686 582 q 644 833 686 778 q 538 889 603 889 q 376 794 449 889 q 265 486 304 700 q 247 311 247 388 q 288 138 247 192 q 396 83 329 83 m 624 1056 q 582 1065 597 1056 q 551 1093 567 1075 q 542 1103 549 1096 q 526 1115 535 1111 q 510 1118 518 1118 q 455 1090 474 1117 q 436 1063 436 1063 l 424 1063 l 374 1097 q 436 1183 401 1151 q 519 1215 471 1215 q 562 1206 546 1215 q 593 1178 578 1196 q 613 1159 604 1165 q 635 1153 622 1153 q 669 1165 653 1153 q 695 1191 686 1178 q 707 1208 704 1204 l 719 1208 l 769 1174 q 707 1088 742 1119 q 624 1056 672 1056 z "},"Œ":{"ha":1132,"x_min":110,"x_max":1226,"o":"m 444 0 q 194 77 278 0 q 110 321 110 154 q 126 486 110 394 q 291 857 169 742 q 615 972 413 972 l 1226 972 l 1210 875 l 807 875 l 750 556 l 1069 556 l 1053 458 l 733 458 l 669 97 l 1072 97 l 1056 0 l 444 0 m 531 97 l 668 875 l 599 875 q 385 786 467 875 q 265 486 303 697 q 250 332 250 392 q 303 152 250 207 q 461 97 357 97 l 531 97 z "},"P":{"ha":785,"x_min":90,"x_max":810,"o":"m 261 972 l 511 972 q 810 738 810 972 q 801 653 810 699 q 674 413 774 493 q 399 333 575 333 l 288 333 l 229 0 l 90 0 l 261 972 m 415 431 q 582 485 521 431 q 663 653 643 539 q 669 722 669 694 q 626 838 669 801 q 494 875 583 875 l 383 875 l 304 431 l 415 431 z "},"Þ":{"ha":854,"x_min":85,"x_max":851,"o":"m 265 1000 l 404 1000 l 385 889 l 510 889 q 764 812 676 889 q 851 589 851 735 q 842 486 851 536 q 685 188 808 292 q 368 83 563 83 l 243 83 l 224 -28 l 85 -28 l 265 1000 m 385 181 q 593 259 508 181 q 703 486 678 338 q 711 572 711 532 q 653 735 711 679 q 493 792 594 792 l 368 792 l 260 181 l 385 181 z "},"Q":{"ha":833,"x_min":110,"x_max":824,"o":"m 489 -215 q 355 -172 403 -215 q 307 -53 307 -129 q 311 -7 307 -32 q 163 88 215 10 q 110 308 110 165 q 126 486 110 386 q 283 865 171 744 q 556 986 396 986 q 753 909 683 986 q 824 667 824 832 q 807 486 824 589 q 673 136 767 258 q 450 -7 579 14 q 446 -43 446 -28 q 521 -118 446 -118 q 556 -111 538 -118 l 571 -104 l 585 -104 l 597 -194 l 564 -206 q 489 -215 528 -215 m 396 83 q 556 178 483 83 q 668 486 629 274 q 686 658 686 582 q 644 833 686 778 q 538 889 603 889 q 376 794 449 889 q 265 486 304 700 q 247 311 247 388 q 288 138 247 192 q 396 83 329 83 z "},"R":{"ha":799,"x_min":90,"x_max":797,"o":"m 261 972 l 497 972 q 797 742 797 972 q 790 667 797 711 q 550 382 753 444 l 715 0 l 556 0 l 403 361 l 292 361 l 229 0 l 90 0 l 261 972 m 407 458 q 651 667 617 458 q 657 725 657 694 q 481 875 657 875 l 383 875 l 310 458 l 407 458 z "},"Ŕ":{"ha":799,"x_min":90,"x_max":797,"o":"m 261 972 l 497 972 q 797 742 797 972 q 790 667 797 711 q 550 382 753 444 l 715 0 l 556 0 l 403 361 l 292 361 l 229 0 l 90 0 l 261 972 m 407 458 q 651 667 617 458 q 657 725 657 694 q 481 875 657 875 l 383 875 l 310 458 l 407 458 m 474 1042 l 574 1250 l 726 1250 l 564 1042 l 474 1042 z "},"Ř":{"ha":799,"x_min":90,"x_max":797,"o":"m 261 972 l 497 972 q 797 742 797 972 q 790 667 797 711 q 550 382 753 444 l 715 0 l 556 0 l 403 361 l 292 361 l 229 0 l 90 0 l 261 972 m 407 458 q 651 667 617 458 q 657 725 657 694 q 481 875 657 875 l 383 875 l 310 458 l 407 458 m 479 1056 l 365 1236 l 456 1236 l 544 1146 l 664 1236 l 754 1236 l 576 1056 l 479 1056 z "},"Ŗ":{"ha":799,"x_min":90,"x_max":797,"o":"m 261 972 l 497 972 q 797 742 797 972 q 790 667 797 711 q 550 382 753 444 l 715 0 l 556 0 l 403 361 l 292 361 l 229 0 l 90 0 l 261 972 m 407 458 q 651 667 617 458 q 657 725 657 694 q 481 875 657 875 l 383 875 l 310 458 l 407 458 m 246 -271 q 286 -240 267 -257 q 333 -167 326 -200 q 293 -149 310 -167 q 276 -103 276 -131 q 303 -41 276 -68 q 360 -14 331 -14 q 410 -33 392 -14 q 429 -83 429 -51 q 428 -103 429 -96 q 344 -264 408 -197 q 281 -314 315 -296 l 246 -271 z "},"S":{"ha":701,"x_min":24,"x_max":750,"o":"m 296 -14 q 92 24 174 -14 q 24 63 47 42 l 88 146 l 101 146 q 153 114 121 129 q 299 83 219 83 q 451 129 392 83 q 522 250 510 175 q 525 275 525 267 q 503 344 525 315 q 447 394 481 374 q 357 443 414 415 q 249 502 290 475 q 178 572 207 529 q 150 674 150 614 q 154 722 150 697 q 213 858 167 799 q 332 952 260 918 q 493 986 404 986 q 689 947 608 986 q 750 910 726 929 l 686 826 l 672 826 q 628 857 653 843 q 489 889 561 889 q 392 864 438 889 q 320 798 347 839 q 293 711 293 757 q 315 642 293 671 q 371 592 338 613 q 461 543 404 571 q 569 484 528 511 q 640 415 611 457 q 668 313 668 372 q 664 264 668 289 q 545 61 642 136 q 296 -14 449 -14 z "},"Ś":{"ha":701,"x_min":24,"x_max":750,"o":"m 296 -14 q 92 24 174 -14 q 24 63 47 42 l 88 146 l 101 146 q 153 114 121 129 q 299 83 219 83 q 451 129 392 83 q 522 250 510 175 q 525 275 525 267 q 503 344 525 315 q 447 394 481 374 q 357 443 414 415 q 249 502 290 475 q 178 572 207 529 q 150 674 150 614 q 154 722 150 697 q 213 858 167 799 q 332 952 260 918 q 493 986 404 986 q 689 947 608 986 q 750 910 726 929 l 686 826 l 672 826 q 628 857 653 843 q 489 889 561 889 q 392 864 438 889 q 320 798 347 839 q 293 711 293 757 q 315 642 293 671 q 371 592 338 613 q 461 543 404 571 q 569 484 528 511 q 640 415 611 457 q 668 313 668 372 q 664 264 668 289 q 545 61 642 136 q 296 -14 449 -14 m 446 1042 l 546 1250 l 699 1250 l 536 1042 l 446 1042 z "},"Š":{"ha":701,"x_min":24,"x_max":750,"o":"m 296 -14 q 92 24 174 -14 q 24 63 47 42 l 88 146 l 101 146 q 153 114 121 129 q 299 83 219 83 q 451 129 392 83 q 522 250 510 175 q 525 275 525 267 q 503 344 525 315 q 447 394 481 374 q 357 443 414 415 q 249 502 290 475 q 178 572 207 529 q 150 674 150 614 q 154 722 150 697 q 213 858 167 799 q 332 952 260 918 q 493 986 404 986 q 689 947 608 986 q 750 910 726 929 l 686 826 l 672 826 q 628 857 653 843 q 489 889 561 889 q 392 864 438 889 q 320 798 347 839 q 293 711 293 757 q 315 642 293 671 q 371 592 338 613 q 461 543 404 571 q 569 484 528 511 q 640 415 611 457 q 668 313 668 372 q 664 264 668 289 q 545 61 642 136 q 296 -14 449 -14 m 451 1056 l 338 1236 l 428 1236 l 517 1146 l 636 1236 l 726 1236 l 549 1056 l 451 1056 z "},"Ş":{"ha":701,"x_min":24,"x_max":750,"o":"m 689 947 q 750 910 726 929 l 686 826 l 672 826 q 628 857 653 843 q 489 889 561 889 q 392 864 438 889 q 320 798 347 839 q 293 711 293 757 q 315 642 293 671 q 371 592 338 613 q 461 543 404 571 q 569 484 528 511 q 640 415 611 457 q 668 313 668 372 q 664 264 668 289 q 554 67 643 142 q 324 -14 465 -7 l 318 -42 q 397 -67 368 -42 q 425 -132 425 -92 q 383 -226 425 -187 q 272 -264 340 -264 q 194 -250 228 -264 q 168 -236 175 -242 l 199 -181 l 211 -181 q 220 -187 213 -182 q 241 -197 228 -192 q 269 -201 254 -201 q 313 -187 294 -201 q 333 -153 331 -174 q 324 -117 338 -131 q 279 -104 310 -104 l 224 -104 l 240 -11 q 92 24 154 -6 q 24 63 47 42 l 88 146 l 101 146 q 153 114 121 129 q 299 83 219 83 q 451 129 392 83 q 522 250 510 175 q 525 275 525 267 q 503 344 525 315 q 447 394 481 374 q 357 443 414 415 q 249 502 290 475 q 178 572 207 529 q 150 674 150 614 q 154 722 150 697 q 213 858 167 799 q 332 952 260 918 q 493 986 404 986 q 689 947 608 986 z "},"Ș":{"ha":701,"x_min":24,"x_max":750,"o":"m 296 -14 q 92 24 174 -14 q 24 63 47 42 l 88 146 l 101 146 q 153 114 121 129 q 299 83 219 83 q 451 129 392 83 q 522 250 510 175 q 525 275 525 267 q 503 344 525 315 q 447 394 481 374 q 357 443 414 415 q 249 502 290 475 q 178 572 207 529 q 150 674 150 614 q 154 722 150 697 q 213 858 167 799 q 332 952 260 918 q 493 986 404 986 q 689 947 608 986 q 750 910 726 929 l 686 826 l 672 826 q 628 857 653 843 q 489 889 561 889 q 392 864 438 889 q 320 798 347 839 q 293 711 293 757 q 315 642 293 671 q 371 592 338 613 q 461 543 404 571 q 569 484 528 511 q 640 415 611 457 q 668 313 668 372 q 664 264 668 289 q 545 61 642 136 q 296 -14 449 -14 m 190 -332 q 231 -301 211 -318 q 278 -228 271 -261 q 238 -210 254 -228 q 221 -164 221 -192 q 248 -102 221 -129 q 304 -75 275 -75 q 355 -94 336 -75 q 374 -144 374 -112 q 372 -164 374 -157 q 289 -325 353 -258 q 225 -375 260 -357 l 190 -332 z "},"T":{"ha":667,"x_min":133,"x_max":789,"o":"m 229 0 l 383 875 l 133 875 l 150 972 l 789 972 l 772 875 l 522 875 l 368 0 l 229 0 z "},"Ť":{"ha":667,"x_min":133,"x_max":789,"o":"m 229 0 l 383 875 l 133 875 l 150 972 l 789 972 l 772 875 l 522 875 l 368 0 l 229 0 m 435 1056 l 321 1236 l 411 1236 l 500 1146 l 619 1236 l 710 1236 l 532 1056 l 435 1056 z "},"Ț":{"ha":667,"x_min":133,"x_max":789,"o":"m 229 0 l 383 875 l 133 875 l 150 972 l 789 972 l 772 875 l 522 875 l 368 0 l 229 0 m 161 -339 q 201 -308 182 -325 q 249 -235 242 -268 q 208 -217 225 -235 q 192 -171 192 -199 q 219 -109 192 -136 q 275 -82 246 -82 q 326 -101 307 -82 q 344 -151 344 -119 q 343 -171 344 -164 q 260 -332 324 -265 q 196 -382 231 -364 l 161 -339 z "},"U":{"ha":861,"x_min":128,"x_max":879,"o":"m 393 -14 q 196 46 264 -14 q 128 221 128 106 q 136 306 128 260 l 254 972 l 393 972 l 275 306 q 268 236 268 264 q 305 121 268 158 q 410 83 342 83 q 547 138 492 83 q 622 306 603 193 l 740 972 l 879 972 l 761 306 q 639 67 733 149 q 393 -14 544 -14 z "},"Ú":{"ha":861,"x_min":128,"x_max":879,"o":"m 393 -14 q 196 46 264 -14 q 128 221 128 106 q 136 306 128 260 l 254 972 l 393 972 l 275 306 q 268 236 268 264 q 305 121 268 158 q 410 83 342 83 q 547 138 492 83 q 622 306 603 193 l 740 972 l 879 972 l 761 306 q 639 67 733 149 q 393 -14 544 -14 m 519 1014 l 619 1222 l 772 1222 l 610 1014 l 519 1014 z "},"Û":{"ha":861,"x_min":128,"x_max":879,"o":"m 393 -14 q 196 46 264 -14 q 128 221 128 106 q 136 306 128 260 l 254 972 l 393 972 l 275 306 q 268 236 268 264 q 305 121 268 158 q 410 83 342 83 q 547 138 492 83 q 622 306 603 193 l 740 972 l 879 972 l 761 306 q 639 67 733 149 q 393 -14 544 -14 m 386 1056 l 564 1236 l 661 1236 l 775 1056 l 685 1056 l 597 1146 l 476 1056 l 386 1056 z "},"Ü":{"ha":861,"x_min":128,"x_max":879,"o":"m 393 -14 q 196 46 264 -14 q 128 221 128 106 q 136 306 128 260 l 254 972 l 393 972 l 275 306 q 268 236 268 264 q 305 121 268 158 q 410 83 342 83 q 547 138 492 83 q 622 306 603 193 l 740 972 l 879 972 l 761 306 q 639 67 733 149 q 393 -14 544 -14 m 457 1063 q 410 1078 428 1063 q 393 1122 393 1094 q 394 1139 393 1133 q 426 1194 400 1172 q 485 1215 451 1215 q 531 1198 514 1215 q 549 1153 549 1181 q 547 1139 549 1144 q 515 1084 540 1106 q 457 1063 490 1063 m 700 1063 q 653 1078 671 1063 q 636 1122 636 1094 q 638 1139 636 1133 q 669 1194 643 1172 q 728 1215 694 1215 q 774 1198 757 1215 q 792 1153 792 1181 q 790 1139 792 1144 q 758 1084 783 1106 q 700 1063 733 1063 z "},"Ù":{"ha":861,"x_min":128,"x_max":879,"o":"m 393 -14 q 196 46 264 -14 q 128 221 128 106 q 136 306 128 260 l 254 972 l 393 972 l 275 306 q 268 236 268 264 q 305 121 268 158 q 410 83 342 83 q 547 138 492 83 q 622 306 603 193 l 740 972 l 879 972 l 761 306 q 639 67 733 149 q 393 -14 544 -14 m 547 1014 l 460 1222 l 613 1222 l 638 1014 l 547 1014 z "},"Ű":{"ha":861,"x_min":128,"x_max":879,"o":"m 393 -14 q 196 46 264 -14 q 128 221 128 106 q 136 306 128 260 l 254 972 l 393 972 l 275 306 q 268 236 268 264 q 305 121 268 158 q 410 83 342 83 q 547 138 492 83 q 622 306 603 193 l 740 972 l 879 972 l 761 306 q 639 67 733 149 q 393 -14 544 -14 m 439 1028 l 539 1236 l 671 1236 l 515 1028 l 439 1028 m 626 1028 l 726 1236 l 858 1236 l 703 1028 l 626 1028 z "},"Ū":{"ha":861,"x_min":128,"x_max":879,"o":"m 393 -14 q 196 46 264 -14 q 128 221 128 106 q 136 306 128 260 l 254 972 l 393 972 l 275 306 q 268 236 268 264 q 305 121 268 158 q 410 83 342 83 q 547 138 492 83 q 622 306 603 193 l 740 972 l 879 972 l 761 306 q 639 67 733 149 q 393 -14 544 -14 m 399 1083 l 415 1181 l 790 1181 l 774 1083 l 399 1083 z "},"Ų":{"ha":861,"x_min":128,"x_max":879,"o":"m 879 972 l 761 306 q 653 79 735 160 q 438 -12 571 -1 l 418 -26 q 385 -61 399 -42 q 372 -99 372 -81 q 383 -128 372 -117 q 413 -139 394 -139 q 450 -132 431 -139 q 481 -118 469 -125 q 496 -108 493 -111 l 508 -108 l 496 -181 q 463 -199 478 -193 q 378 -215 426 -215 q 297 -194 324 -215 q 271 -133 271 -172 q 272 -111 271 -119 q 321 -32 276 -76 l 344 -11 q 183 58 238 0 q 128 219 128 117 q 136 306 128 260 l 254 972 l 393 972 l 275 306 q 268 236 268 264 q 305 121 268 158 q 410 83 342 83 q 547 138 492 83 q 622 306 603 193 l 740 972 l 879 972 z "},"Ů":{"ha":861,"x_min":128,"x_max":879,"o":"m 393 -14 q 196 46 264 -14 q 128 221 128 106 q 136 306 128 260 l 254 972 l 393 972 l 275 306 q 268 236 268 264 q 305 121 268 158 q 410 83 342 83 q 547 138 492 83 q 622 306 603 193 l 740 972 l 879 972 l 761 306 q 639 67 733 149 q 393 -14 544 -14 m 574 1014 q 488 1043 519 1014 q 456 1121 456 1072 q 457 1146 456 1138 q 513 1241 468 1204 q 619 1278 557 1278 q 706 1249 674 1278 q 738 1174 738 1221 q 690 1060 738 1106 q 574 1014 643 1014 m 586 1083 q 627 1099 608 1083 q 651 1146 646 1115 q 653 1163 653 1151 q 640 1197 653 1185 q 607 1208 626 1208 q 566 1192 585 1208 q 540 1146 547 1176 q 539 1132 539 1140 q 552 1096 539 1108 q 586 1083 565 1083 z "},"V":{"ha":764,"x_min":157,"x_max":879,"o":"m 157 972 l 296 972 l 368 243 q 371 179 371 201 q 369 146 371 157 l 375 146 l 386 179 q 410 243 401 226 l 740 972 l 879 972 l 438 0 l 257 0 l 157 972 z "},"W":{"ha":1194,"x_min":157,"x_max":1310,"o":"m 157 972 l 296 972 l 336 292 q 333 221 336 265 l 329 181 l 335 181 l 346 221 q 371 292 363 274 l 650 972 l 817 972 l 857 292 q 854 221 857 265 l 851 181 l 857 181 l 868 221 q 878 253 871 229 q 892 292 885 276 l 1171 972 l 1310 972 l 910 0 l 743 0 l 703 681 l 701 717 l 703 751 q 704 792 703 778 l 699 792 l 686 751 q 661 681 669 699 l 382 0 l 215 0 l 157 972 z "},"X":{"ha":736,"x_min":-14,"x_max":844,"o":"m 329 493 l 164 972 l 317 972 l 421 660 q 426 640 424 650 q 431 619 428 629 l 435 597 l 440 597 l 451 619 q 476 660 467 647 l 692 972 l 844 972 l 510 493 l 681 0 l 528 0 l 418 326 q 413 347 415 336 q 408 367 411 357 l 404 389 l 399 389 l 386 367 q 376 348 383 361 q 363 326 369 335 l 139 0 l -14 0 l 329 493 z "},"Y":{"ha":736,"x_min":136,"x_max":872,"o":"m 319 319 l 136 972 l 282 972 l 401 549 q 411 494 410 514 q 413 465 413 485 l 418 465 l 429 494 q 457 549 439 518 l 726 972 l 872 972 l 458 319 l 403 0 l 264 0 l 319 319 z "},"Ý":{"ha":736,"x_min":136,"x_max":872,"o":"m 319 319 l 136 972 l 282 972 l 401 549 q 411 494 410 514 q 413 465 413 485 l 418 465 l 429 494 q 457 549 439 518 l 726 972 l 872 972 l 458 319 l 403 0 l 264 0 l 319 319 m 457 1014 l 557 1222 l 710 1222 l 547 1014 l 457 1014 z "},"Ÿ":{"ha":736,"x_min":136,"x_max":872,"o":"m 319 319 l 136 972 l 282 972 l 401 549 q 411 494 410 514 q 413 465 413 485 l 418 465 l 429 494 q 457 549 439 518 l 726 972 l 872 972 l 458 319 l 403 0 l 264 0 l 319 319 m 394 1063 q 348 1078 365 1063 q 331 1122 331 1094 q 332 1139 331 1133 q 363 1194 338 1172 q 422 1215 389 1215 q 469 1198 451 1215 q 486 1153 486 1181 q 485 1139 486 1144 q 453 1084 478 1106 q 394 1063 428 1063 m 638 1063 q 591 1078 608 1063 q 574 1122 574 1094 q 575 1139 574 1133 q 606 1194 581 1172 q 665 1215 632 1215 q 712 1198 694 1215 q 729 1153 729 1181 q 728 1139 729 1144 q 696 1084 721 1106 q 638 1063 671 1063 z "},"Z":{"ha":674,"x_min":0,"x_max":768,"o":"m 0 0 l 18 104 l 585 875 l 154 875 l 171 972 l 768 972 l 750 868 l 183 97 l 621 97 l 604 0 l 0 0 z "},"Ź":{"ha":674,"x_min":0,"x_max":768,"o":"m 0 0 l 18 104 l 585 875 l 154 875 l 171 972 l 768 972 l 750 868 l 183 97 l 621 97 l 604 0 l 0 0 m 418 1042 l 518 1250 l 671 1250 l 508 1042 l 418 1042 z "},"Ž":{"ha":674,"x_min":0,"x_max":768,"o":"m 0 0 l 18 104 l 585 875 l 154 875 l 171 972 l 768 972 l 750 868 l 183 97 l 621 97 l 604 0 l 0 0 m 438 1056 l 324 1236 l 414 1236 l 503 1146 l 622 1236 l 713 1236 l 535 1056 l 438 1056 z "},"Ż":{"ha":674,"x_min":0,"x_max":768,"o":"m 0 0 l 18 104 l 585 875 l 154 875 l 171 972 l 768 972 l 750 868 l 183 97 l 621 97 l 604 0 l 0 0 m 486 1056 q 436 1074 456 1056 q 417 1121 417 1092 q 445 1193 417 1164 q 515 1222 474 1222 q 567 1204 547 1222 q 586 1157 586 1186 q 557 1085 586 1114 q 486 1056 528 1056 z "},"a":{"ha":708,"x_min":58,"x_max":658,"o":"m 254 -14 q 109 30 160 -14 q 58 153 58 74 q 63 201 58 176 q 162 355 81 300 q 399 410 243 410 l 510 410 l 515 444 q 521 493 521 481 q 489 581 521 551 q 399 611 457 611 q 285 579 351 611 q 235 549 254 563 l 221 549 l 188 632 q 256 669 221 654 q 429 708 336 708 q 597 649 535 708 q 658 496 658 590 q 654 444 658 472 l 576 0 l 479 0 l 479 83 l 472 83 q 415 35 449 56 q 254 -14 346 -14 m 307 90 q 362 101 336 90 q 418 132 388 113 q 468 174 443 150 l 492 313 l 381 313 q 244 274 290 313 q 199 175 199 235 q 226 112 199 133 q 307 90 253 90 z "},"á":{"ha":708,"x_min":58,"x_max":658,"o":"m 254 -14 q 109 30 160 -14 q 58 153 58 74 q 63 201 58 176 q 162 355 81 300 q 399 410 243 410 l 510 410 l 515 444 q 521 493 521 481 q 489 581 521 551 q 399 611 457 611 q 285 579 351 611 q 235 549 254 563 l 221 549 l 188 632 q 256 669 221 654 q 429 708 336 708 q 597 649 535 708 q 658 496 658 590 q 654 444 658 472 l 576 0 l 479 0 l 479 83 l 472 83 q 415 35 449 56 q 254 -14 346 -14 m 307 90 q 362 101 336 90 q 418 132 388 113 q 468 174 443 150 l 492 313 l 381 313 q 244 274 290 313 q 199 175 199 235 q 226 112 199 133 q 307 90 253 90 m 386 764 l 486 972 l 639 972 l 476 764 l 386 764 z "},"ă":{"ha":708,"x_min":58,"x_max":693,"o":"m 254 -14 q 109 30 160 -14 q 58 153 58 74 q 63 201 58 176 q 162 355 81 300 q 399 410 243 410 l 510 410 l 515 444 q 521 493 521 481 q 489 581 521 551 q 399 611 457 611 q 285 579 351 611 q 235 549 254 563 l 221 549 l 188 632 q 256 669 221 654 q 429 708 336 708 q 597 649 535 708 q 658 496 658 590 q 654 444 658 472 l 576 0 l 479 0 l 479 83 l 472 83 q 415 35 449 56 q 254 -14 346 -14 m 307 90 q 362 101 336 90 q 418 132 388 113 q 468 174 443 150 l 492 313 l 381 313 q 244 274 290 313 q 199 175 199 235 q 226 112 199 133 q 307 90 253 90 m 453 765 q 318 802 364 765 q 272 904 272 839 q 276 946 272 924 l 401 946 q 399 913 399 933 q 416 864 399 879 q 468 849 433 849 q 535 872 511 849 q 568 946 558 894 l 693 946 q 615 813 676 861 q 453 765 554 765 z "},"â":{"ha":708,"x_min":58,"x_max":658,"o":"m 254 -14 q 109 30 160 -14 q 58 153 58 74 q 63 201 58 176 q 162 355 81 300 q 399 410 243 410 l 510 410 l 515 444 q 521 493 521 481 q 489 581 521 551 q 399 611 457 611 q 285 579 351 611 q 235 549 254 563 l 221 549 l 188 632 q 256 669 221 654 q 429 708 336 708 q 597 649 535 708 q 658 496 658 590 q 654 444 658 472 l 576 0 l 479 0 l 479 83 l 472 83 q 415 35 449 56 q 254 -14 346 -14 m 307 90 q 362 101 336 90 q 418 132 388 113 q 468 174 443 150 l 492 313 l 381 313 q 244 274 290 313 q 199 175 199 235 q 226 112 199 133 q 307 90 253 90 m 261 778 l 439 958 l 536 958 l 650 778 l 560 778 l 472 868 l 351 778 l 261 778 z "},"ä":{"ha":708,"x_min":58,"x_max":667,"o":"m 254 -14 q 109 30 160 -14 q 58 153 58 74 q 63 201 58 176 q 162 355 81 300 q 399 410 243 410 l 510 410 l 515 444 q 521 493 521 481 q 489 581 521 551 q 399 611 457 611 q 285 579 351 611 q 235 549 254 563 l 221 549 l 188 632 q 256 669 221 654 q 429 708 336 708 q 597 649 535 708 q 658 496 658 590 q 654 444 658 472 l 576 0 l 479 0 l 479 83 l 472 83 q 415 35 449 56 q 254 -14 346 -14 m 307 90 q 362 101 336 90 q 418 132 388 113 q 468 174 443 150 l 492 313 l 381 313 q 244 274 290 313 q 199 175 199 235 q 226 112 199 133 q 307 90 253 90 m 332 785 q 285 801 303 785 q 268 844 268 817 q 269 861 268 856 q 301 916 275 894 q 360 938 326 938 q 406 920 389 938 q 424 875 424 903 q 422 861 424 867 q 390 806 415 828 q 332 785 365 785 m 575 785 q 528 801 546 785 q 511 844 511 817 q 513 861 511 856 q 544 916 518 894 q 603 938 569 938 q 649 920 632 938 q 667 875 667 903 q 665 861 667 867 q 633 806 658 828 q 575 785 608 785 z "},"à":{"ha":708,"x_min":58,"x_max":658,"o":"m 254 -14 q 109 30 160 -14 q 58 153 58 74 q 63 201 58 176 q 162 355 81 300 q 399 410 243 410 l 510 410 l 515 444 q 521 493 521 481 q 489 581 521 551 q 399 611 457 611 q 285 579 351 611 q 235 549 254 563 l 221 549 l 188 632 q 256 669 221 654 q 429 708 336 708 q 597 649 535 708 q 658 496 658 590 q 654 444 658 472 l 576 0 l 479 0 l 479 83 l 472 83 q 415 35 449 56 q 254 -14 346 -14 m 307 90 q 362 101 336 90 q 418 132 388 113 q 468 174 443 150 l 492 313 l 381 313 q 244 274 290 313 q 199 175 199 235 q 226 112 199 133 q 307 90 253 90 m 414 764 l 326 972 l 479 972 l 504 764 l 414 764 z "},"ā":{"ha":708,"x_min":58,"x_max":682,"o":"m 254 -14 q 109 30 160 -14 q 58 153 58 74 q 63 201 58 176 q 162 355 81 300 q 399 410 243 410 l 510 410 l 515 444 q 521 493 521 481 q 489 581 521 551 q 399 611 457 611 q 285 579 351 611 q 235 549 254 563 l 221 549 l 188 632 q 256 669 221 654 q 429 708 336 708 q 597 649 535 708 q 658 496 658 590 q 654 444 658 472 l 576 0 l 479 0 l 479 83 l 472 83 q 415 35 449 56 q 254 -14 346 -14 m 307 90 q 362 101 336 90 q 418 132 388 113 q 468 174 443 150 l 492 313 l 381 313 q 244 274 290 313 q 199 175 199 235 q 226 112 199 133 q 307 90 253 90 m 290 819 l 307 917 l 682 917 l 665 819 l 290 819 z "},"ą":{"ha":701,"x_min":58,"x_max":658,"o":"m 429 708 q 597 649 535 708 q 658 496 658 590 q 654 444 658 472 l 576 0 l 583 0 q 543 -26 568 -7 q 510 -61 524 -42 q 497 -99 497 -81 q 508 -128 497 -117 q 538 -139 519 -139 q 575 -132 556 -139 q 606 -118 594 -125 q 621 -108 618 -111 l 633 -108 l 621 -181 q 588 -199 603 -193 q 503 -215 551 -215 q 422 -194 449 -215 q 396 -133 396 -172 q 397 -111 396 -119 q 446 -32 401 -76 q 486 0 471 -10 l 479 0 l 479 83 l 472 83 q 415 35 449 56 q 254 -14 346 -14 q 109 30 160 -14 q 58 153 58 74 q 63 201 58 176 q 162 355 81 300 q 399 410 243 410 l 510 410 l 515 444 q 521 493 521 481 q 489 581 521 551 q 399 611 457 611 q 285 579 351 611 q 235 549 254 563 l 221 549 l 188 632 q 256 669 221 654 q 429 708 336 708 m 492 313 l 381 313 q 244 274 290 313 q 199 175 199 235 q 226 112 199 133 q 307 90 253 90 q 362 101 336 90 q 418 132 388 113 q 468 174 443 150 l 492 313 z "},"å":{"ha":708,"x_min":58,"x_max":658,"o":"m 254 -14 q 109 30 160 -14 q 58 153 58 74 q 63 201 58 176 q 162 355 81 300 q 399 410 243 410 l 510 410 l 515 444 q 521 493 521 481 q 489 581 521 551 q 399 611 457 611 q 285 579 351 611 q 235 549 254 563 l 221 549 l 188 632 q 256 669 221 654 q 429 708 336 708 q 597 649 535 708 q 658 496 658 590 q 654 444 658 472 l 576 0 l 479 0 l 479 83 l 472 83 q 415 35 449 56 q 254 -14 346 -14 m 307 90 q 362 101 336 90 q 418 132 388 113 q 468 174 443 150 l 492 313 l 381 313 q 244 274 290 313 q 199 175 199 235 q 226 112 199 133 q 307 90 253 90 m 456 778 q 369 807 401 778 q 338 885 338 836 q 339 910 338 901 q 394 1005 350 968 q 501 1042 439 1042 q 588 1013 556 1042 q 619 938 619 985 q 572 824 619 869 q 456 778 525 778 m 468 847 q 509 863 490 847 q 533 910 528 879 q 535 926 535 915 q 522 960 535 949 q 489 972 508 972 q 448 956 467 972 q 422 910 429 940 q 421 896 421 904 q 434 860 421 872 q 468 847 447 847 z "},"ã":{"ha":708,"x_min":58,"x_max":658,"o":"m 254 -14 q 109 30 160 -14 q 58 153 58 74 q 63 201 58 176 q 162 355 81 300 q 399 410 243 410 l 510 410 l 515 444 q 521 493 521 481 q 489 581 521 551 q 399 611 457 611 q 285 579 351 611 q 235 549 254 563 l 221 549 l 188 632 q 256 669 221 654 q 429 708 336 708 q 597 649 535 708 q 658 496 658 590 q 654 444 658 472 l 576 0 l 479 0 l 479 83 l 472 83 q 415 35 449 56 q 254 -14 346 -14 m 307 90 q 362 101 336 90 q 418 132 388 113 q 468 174 443 150 l 492 313 l 381 313 q 244 274 290 313 q 199 175 199 235 q 226 112 199 133 q 307 90 253 90 m 513 779 q 471 789 486 779 q 440 817 456 799 q 431 827 438 819 q 415 838 424 835 q 399 842 407 842 q 344 813 363 840 q 325 786 325 786 l 313 786 l 263 821 q 325 907 290 875 q 408 939 360 939 q 451 929 435 939 q 482 901 467 919 q 502 883 493 889 q 524 876 511 876 q 558 889 542 876 q 584 915 575 901 q 596 932 593 928 l 608 932 l 658 897 q 596 811 631 843 q 513 779 561 779 z "},"æ":{"ha":1090,"x_min":58,"x_max":1064,"o":"m 254 -14 q 109 30 160 -14 q 58 153 58 74 q 63 201 58 176 q 162 355 81 300 q 399 410 243 410 l 510 410 l 515 444 q 521 493 521 481 q 489 581 521 551 q 399 611 457 611 q 285 579 351 611 q 235 549 254 563 l 221 549 l 188 632 q 256 669 221 654 q 429 708 336 708 q 553 681 506 708 q 619 604 601 653 q 722 681 667 653 q 839 708 778 708 q 1003 643 943 708 q 1064 451 1064 578 q 1054 347 1064 400 l 1050 326 l 1017 299 l 628 299 q 621 235 621 260 q 658 122 621 160 q 757 83 694 83 q 869 114 806 83 q 921 146 900 131 l 935 146 l 968 63 q 899 24 940 42 q 726 -14 821 -14 q 601 14 656 -14 q 519 97 547 42 q 444 42 488 68 q 254 -14 347 -14 m 924 396 q 931 471 931 442 q 901 576 931 542 q 822 611 872 611 q 713 558 761 611 q 646 396 665 504 l 924 396 m 307 90 q 362 101 336 90 q 418 132 388 113 q 468 174 443 150 l 492 313 l 381 313 q 244 274 290 313 q 199 175 199 235 q 226 112 199 133 q 307 90 253 90 z "},"b":{"ha":743,"x_min":69,"x_max":710,"o":"m 386 -14 q 242 35 296 -14 q 201 83 217 56 l 194 83 l 167 0 l 69 0 l 233 931 l 282 972 l 379 972 l 325 667 l 374 688 q 485 708 436 708 q 649 643 589 708 q 710 451 710 578 q 700 347 710 400 q 631 149 679 231 q 518 26 582 67 q 386 -14 454 -14 m 369 90 q 485 153 433 90 q 561 347 538 215 q 571 449 571 401 q 538 572 571 533 q 447 611 504 611 q 350 597 403 611 q 311 583 325 590 l 239 174 q 272 132 254 151 q 369 90 317 90 z "},"c":{"ha":632,"x_min":86,"x_max":667,"o":"m 338 -14 q 151 50 217 -14 q 86 240 86 114 q 96 347 86 293 q 222 617 128 525 q 450 708 315 708 q 610 669 540 708 q 667 632 643 651 l 603 549 l 589 549 q 549 579 569 565 q 500 603 524 594 q 447 611 476 611 q 314 549 369 611 q 235 347 258 486 q 225 246 225 293 q 261 122 225 160 q 368 83 297 83 q 481 114 417 83 q 532 146 511 131 l 546 146 l 579 63 q 510 24 551 42 q 338 -14 432 -14 z "},"ć":{"ha":632,"x_min":86,"x_max":667,"o":"m 338 -14 q 151 50 217 -14 q 86 240 86 114 q 96 347 86 293 q 222 617 128 525 q 450 708 315 708 q 610 669 540 708 q 667 632 643 651 l 603 549 l 589 549 q 549 579 569 565 q 500 603 524 594 q 447 611 476 611 q 314 549 369 611 q 235 347 258 486 q 225 246 225 293 q 261 122 225 160 q 368 83 297 83 q 481 114 417 83 q 532 146 511 131 l 546 146 l 579 63 q 510 24 551 42 q 338 -14 432 -14 m 393 764 l 493 972 l 646 972 l 483 764 l 393 764 z "},"č":{"ha":632,"x_min":86,"x_max":675,"o":"m 338 -14 q 151 50 217 -14 q 86 240 86 114 q 96 347 86 293 q 222 617 128 525 q 450 708 315 708 q 610 669 540 708 q 667 632 643 651 l 603 549 l 589 549 q 549 579 569 565 q 500 603 524 594 q 447 611 476 611 q 314 549 369 611 q 235 347 258 486 q 225 246 225 293 q 261 122 225 160 q 368 83 297 83 q 481 114 417 83 q 532 146 511 131 l 546 146 l 579 63 q 510 24 551 42 q 338 -14 432 -14 m 400 778 l 286 958 l 376 958 l 465 868 l 585 958 l 675 958 l 497 778 l 400 778 z "},"ç":{"ha":632,"x_min":86,"x_max":667,"o":"m 610 669 q 667 632 643 651 l 603 549 l 589 549 q 549 579 569 565 q 500 603 524 594 q 447 611 476 611 q 314 549 369 611 q 235 347 258 486 q 225 246 225 293 q 261 122 225 160 q 368 83 297 83 q 481 114 417 83 q 532 146 511 131 l 546 146 l 579 63 q 510 24 551 42 q 347 -14 433 -12 l 342 -42 q 420 -67 392 -42 q 449 -132 449 -92 q 406 -226 449 -187 q 296 -264 364 -264 q 218 -250 251 -264 q 192 -236 199 -242 l 222 -181 l 235 -181 q 244 -187 236 -182 q 265 -197 251 -192 q 293 -201 278 -201 q 336 -187 318 -201 q 357 -153 354 -174 q 347 -117 361 -131 q 303 -104 333 -104 l 247 -104 l 264 -7 q 132 72 178 10 q 86 240 86 133 q 96 347 86 293 q 222 617 128 525 q 450 708 315 708 q 610 669 540 708 z "},"d":{"ha":743,"x_min":85,"x_max":775,"o":"m 282 -14 q 140 51 196 -14 q 85 238 85 115 q 96 347 85 283 q 218 616 125 524 q 436 708 311 708 q 540 688 483 708 l 582 667 l 629 931 l 678 972 l 775 972 l 604 0 l 507 0 l 507 83 l 500 83 q 443 35 476 56 q 282 -14 374 -14 m 335 90 q 390 101 364 90 q 446 132 415 113 q 496 174 471 151 l 568 583 q 533 597 558 589 q 440 611 489 611 q 313 548 367 611 q 235 347 258 485 q 225 249 225 294 q 255 129 225 168 q 335 90 285 90 z "},"ð":{"ha":715,"x_min":67,"x_max":697,"o":"m 310 -14 q 132 50 197 -14 q 67 229 67 114 q 75 313 67 269 q 141 488 93 414 q 254 600 189 561 q 390 639 319 639 q 513 616 467 639 q 581 542 560 593 q 589 619 589 583 q 518 774 589 721 l 461 686 l 381 728 l 438 815 q 368 833 415 824 l 294 847 l 325 944 l 407 931 q 497 908 460 921 l 550 990 l 632 950 l 579 868 q 668 763 639 828 q 697 601 697 697 q 683 451 697 531 l 658 313 q 537 72 631 158 q 310 -14 443 -14 m 326 83 q 447 141 393 83 q 519 313 500 199 q 526 383 526 357 q 493 497 526 458 q 406 535 460 535 q 286 478 339 535 q 214 313 233 422 q 207 238 207 278 q 240 122 207 161 q 326 83 272 83 z "},"ď":{"ha":896,"x_min":85,"x_max":1004,"o":"m 282 -14 q 140 51 196 -14 q 85 238 85 115 q 96 347 85 283 q 218 616 125 524 q 436 708 311 708 q 540 688 483 708 l 582 667 l 629 931 l 678 972 l 775 972 l 604 0 l 507 0 l 507 83 l 500 83 q 443 35 476 56 q 282 -14 374 -14 m 819 715 q 860 746 840 729 q 908 819 903 789 q 867 838 885 819 q 850 883 850 856 q 851 896 850 892 q 883 950 858 928 q 935 972 908 972 q 985 953 967 972 q 1004 903 1004 935 q 1003 883 1004 890 q 918 722 983 790 q 854 672 889 690 l 819 715 m 335 90 q 390 101 364 90 q 446 132 415 113 q 496 174 471 151 l 568 583 q 533 597 558 589 q 440 611 489 611 q 313 548 367 611 q 235 347 258 485 q 225 249 225 294 q 255 129 225 168 q 335 90 285 90 z "},"đ":{"ha":757,"x_min":82,"x_max":840,"o":"m 282 -14 q 138 51 194 -14 q 82 231 82 115 q 90 319 82 272 q 210 565 118 478 q 426 653 303 653 q 531 632 474 653 l 572 611 l 594 736 l 449 736 l 465 833 l 611 833 l 629 931 l 678 972 l 775 972 l 750 833 l 840 833 l 824 736 l 733 736 l 604 0 l 507 0 l 507 83 l 500 83 q 443 35 476 56 q 282 -14 374 -14 m 335 90 q 390 101 364 90 q 446 132 415 113 q 496 174 471 151 l 558 528 q 524 542 549 533 q 431 556 479 556 q 304 497 358 556 q 229 319 250 439 q 222 243 222 285 q 254 129 222 168 q 335 90 286 90 z "},"e":{"ha":701,"x_min":86,"x_max":675,"o":"m 338 -14 q 151 50 217 -14 q 86 240 86 114 q 96 347 86 293 q 219 616 125 524 q 443 708 313 708 q 613 643 551 708 q 675 451 675 578 q 665 347 675 413 l 661 326 l 628 299 l 225 299 q 218 235 218 260 q 258 122 218 160 q 368 83 297 83 q 481 114 417 83 q 532 146 511 131 l 546 146 l 579 63 q 510 24 551 42 q 338 -14 432 -14 m 535 396 q 542 469 542 442 q 511 576 542 542 q 426 611 481 611 q 311 558 360 611 q 243 396 263 504 l 535 396 z "},"é":{"ha":701,"x_min":86,"x_max":675,"o":"m 338 -14 q 151 50 217 -14 q 86 240 86 114 q 96 347 86 293 q 219 616 125 524 q 443 708 313 708 q 613 643 551 708 q 675 451 675 578 q 665 347 675 413 l 661 326 l 628 299 l 225 299 q 218 235 218 260 q 258 122 218 160 q 368 83 297 83 q 481 114 417 83 q 532 146 511 131 l 546 146 l 579 63 q 510 24 551 42 q 338 -14 432 -14 m 535 396 q 542 469 542 442 q 511 576 542 542 q 426 611 481 611 q 311 558 360 611 q 243 396 263 504 l 535 396 m 397 764 l 497 972 l 650 972 l 488 764 l 397 764 z "},"ě":{"ha":701,"x_min":86,"x_max":678,"o":"m 338 -14 q 151 50 217 -14 q 86 240 86 114 q 96 347 86 293 q 219 616 125 524 q 443 708 313 708 q 613 643 551 708 q 675 451 675 578 q 665 347 675 413 l 661 326 l 628 299 l 225 299 q 218 235 218 260 q 258 122 218 160 q 368 83 297 83 q 481 114 417 83 q 532 146 511 131 l 546 146 l 579 63 q 510 24 551 42 q 338 -14 432 -14 m 535 396 q 542 469 542 442 q 511 576 542 542 q 426 611 481 611 q 311 558 360 611 q 243 396 263 504 l 535 396 m 403 778 l 289 958 l 379 958 l 468 868 l 588 958 l 678 958 l 500 778 l 403 778 z "},"ê":{"ha":701,"x_min":86,"x_max":675,"o":"m 338 -14 q 151 50 217 -14 q 86 240 86 114 q 96 347 86 293 q 219 616 125 524 q 443 708 313 708 q 613 643 551 708 q 675 451 675 578 q 665 347 675 413 l 661 326 l 628 299 l 225 299 q 218 235 218 260 q 258 122 218 160 q 368 83 297 83 q 481 114 417 83 q 532 146 511 131 l 546 146 l 579 63 q 510 24 551 42 q 338 -14 432 -14 m 535 396 q 542 469 542 442 q 511 576 542 542 q 426 611 481 611 q 311 558 360 611 q 243 396 263 504 l 535 396 m 257 778 l 435 958 l 532 958 l 646 778 l 556 778 l 468 868 l 347 778 l 257 778 z "},"ë":{"ha":701,"x_min":86,"x_max":675,"o":"m 338 -14 q 151 50 217 -14 q 86 240 86 114 q 96 347 86 293 q 219 616 125 524 q 443 708 313 708 q 613 643 551 708 q 675 451 675 578 q 665 347 675 413 l 661 326 l 628 299 l 225 299 q 218 235 218 260 q 258 122 218 160 q 368 83 297 83 q 481 114 417 83 q 532 146 511 131 l 546 146 l 579 63 q 510 24 551 42 q 338 -14 432 -14 m 535 396 q 542 469 542 442 q 511 576 542 542 q 426 611 481 611 q 311 558 360 611 q 243 396 263 504 l 535 396 m 328 785 q 281 801 299 785 q 264 844 264 817 q 265 861 264 856 q 297 916 271 894 q 356 938 322 938 q 402 920 385 938 q 419 875 419 903 q 418 861 419 867 q 386 806 411 828 q 328 785 361 785 m 571 785 q 524 801 542 785 q 507 844 507 817 q 508 861 507 856 q 540 916 514 894 q 599 938 565 938 q 645 920 628 938 q 663 875 663 903 q 661 861 663 867 q 629 806 654 828 q 571 785 604 785 z "},"ė":{"ha":701,"x_min":86,"x_max":675,"o":"m 338 -14 q 151 50 217 -14 q 86 240 86 114 q 96 347 86 293 q 219 616 125 524 q 443 708 313 708 q 613 643 551 708 q 675 451 675 578 q 665 347 675 413 l 661 326 l 628 299 l 225 299 q 218 235 218 260 q 258 122 218 160 q 368 83 297 83 q 481 114 417 83 q 532 146 511 131 l 546 146 l 579 63 q 510 24 551 42 q 338 -14 432 -14 m 535 396 q 542 469 542 442 q 511 576 542 542 q 426 611 481 611 q 311 558 360 611 q 243 396 263 504 l 535 396 m 451 778 q 401 796 421 778 q 382 843 382 814 q 410 915 382 886 q 481 944 439 944 q 532 926 513 944 q 551 879 551 908 q 522 807 551 836 q 451 778 493 778 z "},"è":{"ha":701,"x_min":86,"x_max":675,"o":"m 338 -14 q 151 50 217 -14 q 86 240 86 114 q 96 347 86 293 q 219 616 125 524 q 443 708 313 708 q 613 643 551 708 q 675 451 675 578 q 665 347 675 413 l 661 326 l 628 299 l 225 299 q 218 235 218 260 q 258 122 218 160 q 368 83 297 83 q 481 114 417 83 q 532 146 511 131 l 546 146 l 579 63 q 510 24 551 42 q 338 -14 432 -14 m 535 396 q 542 469 542 442 q 511 576 542 542 q 426 611 481 611 q 311 558 360 611 q 243 396 263 504 l 535 396 m 411 764 l 324 972 l 476 972 l 501 764 l 411 764 z "},"ē":{"ha":701,"x_min":86,"x_max":678,"o":"m 338 -14 q 151 50 217 -14 q 86 240 86 114 q 96 347 86 293 q 219 616 125 524 q 443 708 313 708 q 613 643 551 708 q 675 451 675 578 q 665 347 675 413 l 661 326 l 628 299 l 225 299 q 218 235 218 260 q 258 122 218 160 q 368 83 297 83 q 481 114 417 83 q 532 146 511 131 l 546 146 l 579 63 q 510 24 551 42 q 338 -14 432 -14 m 535 396 q 542 469 542 442 q 511 576 542 542 q 426 611 481 611 q 311 558 360 611 q 243 396 263 504 l 535 396 m 286 819 l 303 917 l 678 917 l 661 819 l 286 819 z "},"ę":{"ha":701,"x_min":86,"x_max":675,"o":"m 443 708 q 613 643 551 708 q 675 451 675 578 q 665 347 675 413 l 661 326 l 628 299 l 225 299 q 218 235 218 260 q 258 122 218 160 q 368 83 297 83 q 481 114 417 83 q 532 146 511 131 l 546 146 l 579 63 q 510 24 551 42 q 375 -12 446 -7 l 356 -26 q 323 -61 336 -42 q 310 -99 310 -81 q 321 -128 310 -117 q 350 -139 332 -139 q 388 -132 368 -139 q 419 -118 407 -125 q 433 -108 431 -111 l 446 -108 l 433 -181 q 400 -199 415 -193 q 315 -215 364 -215 q 235 -194 261 -215 q 208 -133 208 -172 q 210 -111 208 -119 q 258 -32 214 -76 l 283 -10 q 137 66 188 3 q 86 240 86 129 q 96 347 86 293 q 219 616 125 524 q 443 708 313 708 m 535 396 q 542 469 542 442 q 511 576 542 542 q 426 611 481 611 q 311 558 360 611 q 243 396 263 504 l 535 396 z "},"f":{"ha":472,"x_min":83,"x_max":674,"o":"m 188 597 l 97 597 l 115 694 l 206 694 l 217 764 q 308 925 233 864 q 486 986 382 986 q 624 947 564 986 q 674 910 651 931 l 610 826 l 596 826 q 563 857 583 840 q 482 889 519 889 q 400 857 433 889 q 356 764 367 825 l 344 694 l 532 694 l 514 597 l 326 597 l 222 0 l 83 0 l 188 597 z "},"g":{"ha":743,"x_min":38,"x_max":726,"o":"m 253 -292 q 93 -254 161 -292 q 38 -215 57 -235 l 101 -132 l 115 -132 q 154 -164 131 -149 q 257 -194 207 -194 q 396 -151 346 -194 q 463 -14 446 -108 l 469 28 q 421 7 447 15 q 310 -14 367 -14 q 146 51 207 -14 q 85 239 85 115 q 96 347 85 283 q 164 545 115 464 q 276 667 213 626 q 408 708 340 708 q 553 660 493 708 q 593 611 581 635 l 600 611 l 629 694 l 726 694 l 601 -14 q 486 -216 579 -140 q 253 -292 393 -292 m 347 83 q 444 97 392 83 q 485 111 468 104 l 557 521 q 522 563 544 540 q 425 604 478 604 q 310 542 361 604 q 235 347 258 479 q 225 244 225 293 q 347 83 225 83 z "},"ğ":{"ha":743,"x_min":38,"x_max":726,"o":"m 253 -292 q 93 -254 161 -292 q 38 -215 57 -235 l 101 -132 l 115 -132 q 154 -164 131 -149 q 257 -194 207 -194 q 396 -151 346 -194 q 463 -14 446 -108 l 469 28 q 421 7 447 15 q 310 -14 367 -14 q 146 51 207 -14 q 85 239 85 115 q 96 347 85 283 q 164 545 115 464 q 276 667 213 626 q 408 708 340 708 q 553 660 493 708 q 593 611 581 635 l 600 611 l 629 694 l 726 694 l 601 -14 q 486 -216 579 -140 q 253 -292 393 -292 m 347 83 q 444 97 392 83 q 485 111 468 104 l 557 521 q 522 563 544 540 q 425 604 478 604 q 310 542 361 604 q 235 347 258 479 q 225 244 225 293 q 347 83 225 83 m 472 778 q 338 815 383 778 q 292 917 292 851 q 296 958 292 936 l 421 958 q 418 925 418 946 q 435 876 418 892 q 488 861 453 861 q 554 884 531 861 q 588 958 578 907 l 713 958 q 635 826 696 874 q 472 778 574 778 z "},"ģ":{"ha":743,"x_min":38,"x_max":726,"o":"m 649 1049 q 608 1018 628 1035 q 561 944 568 978 q 601 926 585 944 q 618 881 618 908 q 591 819 618 846 q 535 792 564 792 q 484 810 503 792 q 465 861 465 829 q 467 881 465 874 q 550 1042 486 975 q 614 1092 579 1074 l 649 1049 m 253 -292 q 93 -254 161 -292 q 38 -215 57 -235 l 101 -132 l 115 -132 q 154 -164 131 -149 q 257 -194 207 -194 q 396 -151 346 -194 q 463 -14 446 -108 l 469 28 q 421 7 447 15 q 310 -14 367 -14 q 146 51 207 -14 q 85 239 85 115 q 96 347 85 283 q 164 545 115 464 q 276 667 213 626 q 408 708 340 708 q 553 660 493 708 q 593 611 581 635 l 600 611 l 629 694 l 726 694 l 601 -14 q 486 -216 579 -140 q 253 -292 393 -292 m 347 83 q 444 97 392 83 q 485 111 468 104 l 557 521 q 522 563 544 540 q 425 604 478 604 q 310 542 361 604 q 235 347 258 479 q 225 244 225 293 q 347 83 225 83 z "},"h":{"ha":757,"x_min":69,"x_max":713,"o":"m 233 931 l 282 972 l 379 972 l 321 639 q 372 674 349 663 q 513 708 442 708 q 658 657 603 708 q 713 522 713 606 q 707 472 713 508 l 625 0 l 486 0 l 568 472 q 571 501 571 492 q 540 576 571 547 q 460 604 510 604 q 349 563 407 604 q 300 521 321 542 l 208 0 l 69 0 l 233 931 z "},"ħ":{"ha":778,"x_min":90,"x_max":719,"o":"m 217 722 l 126 722 l 144 819 l 235 819 l 254 931 l 303 972 l 400 972 l 374 819 l 561 819 l 543 722 l 356 722 l 326 556 q 379 590 353 576 q 519 625 449 625 q 665 574 610 625 q 719 439 719 522 q 714 389 719 425 l 646 0 l 507 0 l 575 389 q 578 418 578 408 q 547 492 578 464 q 467 521 517 521 q 354 479 413 521 q 306 438 332 464 l 229 0 l 90 0 l 217 722 z "},"i":{"ha":347,"x_min":69,"x_max":379,"o":"m 281 806 q 229 824 249 806 q 210 871 210 842 q 239 943 210 914 q 310 972 268 972 q 360 954 340 972 q 379 907 379 936 q 351 835 379 864 q 281 806 322 806 m 69 0 l 192 694 l 331 694 l 208 0 l 69 0 z "},"ı":{"ha":347,"x_min":69,"x_max":331,"o":"m 69 0 l 192 694 l 331 694 l 208 0 l 69 0 z "},"í":{"ha":357,"x_min":69,"x_max":472,"o":"m 219 764 l 319 972 l 472 972 l 310 764 l 219 764 m 69 0 l 192 694 l 331 694 l 208 0 l 69 0 z "},"î":{"ha":361,"x_min":76,"x_max":476,"o":"m 88 778 l 265 958 l 363 958 l 476 778 l 386 778 l 299 868 l 178 778 l 88 778 m 76 0 l 199 694 l 338 694 l 215 0 l 76 0 z "},"ï":{"ha":361,"x_min":76,"x_max":493,"o":"m 158 785 q 112 801 129 785 q 94 844 94 817 q 96 861 94 856 q 127 916 101 894 q 186 938 153 938 q 233 920 215 938 q 250 875 250 903 q 249 861 250 867 q 217 806 242 828 q 158 785 192 785 m 401 785 q 355 801 372 785 q 338 844 338 817 q 339 861 338 856 q 370 916 344 894 q 429 938 396 938 q 476 920 458 938 q 493 875 493 903 q 492 861 493 867 q 460 806 485 828 q 401 785 435 785 m 76 0 l 199 694 l 338 694 l 215 0 l 76 0 z "},"ì":{"ha":358,"x_min":81,"x_max":342,"o":"m 244 764 l 157 972 l 310 972 l 335 764 l 244 764 m 81 0 l 203 694 l 342 694 l 219 0 l 81 0 z "},"ĳ":{"ha":701,"x_min":69,"x_max":733,"o":"m 281 806 q 229 824 249 806 q 210 871 210 842 q 239 943 210 914 q 310 972 268 972 q 360 954 340 972 q 379 907 379 936 q 351 835 379 864 q 281 806 322 806 m 635 806 q 583 824 603 806 q 564 871 564 842 q 593 943 564 914 q 664 972 622 972 q 714 954 694 972 q 733 907 733 936 q 705 835 733 864 q 635 806 676 806 m 283 -278 q 186 -257 228 -278 q 153 -236 168 -249 l 203 -146 l 217 -146 q 236 -164 226 -158 q 288 -181 257 -181 q 368 -149 335 -181 q 413 -56 401 -117 l 528 597 l 313 597 l 208 0 l 69 0 l 192 694 l 685 694 l 551 -56 q 461 -217 535 -156 q 283 -278 388 -278 z "},"ī":{"ha":347,"x_min":69,"x_max":486,"o":"m 94 806 l 111 903 l 486 903 l 469 806 l 94 806 m 69 0 l 192 694 l 331 694 l 208 0 l 69 0 z "},"į":{"ha":340,"x_min":21,"x_max":379,"o":"m 281 806 q 229 824 249 806 q 210 871 210 842 q 239 943 210 914 q 310 972 268 972 q 360 954 340 972 q 379 907 379 936 q 351 835 379 864 q 281 806 322 806 m 69 0 l 192 694 l 331 694 l 208 0 l 69 0 m 128 -215 q 47 -194 74 -215 q 21 -133 21 -172 q 22 -111 21 -119 q 71 -32 26 -76 q 111 0 96 -10 l 208 0 q 168 -26 193 -7 q 135 -61 149 -42 q 122 -99 122 -81 q 133 -128 122 -117 q 163 -139 144 -139 q 200 -132 181 -139 q 231 -118 219 -125 q 246 -108 243 -111 l 258 -108 l 246 -181 q 213 -199 228 -193 q 128 -215 176 -215 z "},"ĩ":{"ha":333,"x_min":69,"x_max":478,"o":"m 69 0 l 192 694 l 331 694 l 208 0 l 69 0 m 332 806 q 290 815 306 806 q 260 843 275 825 q 250 853 257 846 q 235 865 243 861 q 218 868 226 868 q 163 840 182 867 q 144 813 144 813 l 132 813 l 82 847 q 144 933 110 901 q 228 965 179 965 q 270 956 254 965 q 301 928 286 946 q 322 909 313 915 q 343 903 331 903 q 378 915 361 903 q 403 941 394 928 q 415 958 413 954 l 428 958 l 478 924 q 415 838 450 869 q 332 806 381 806 z "},"j":{"ha":347,"x_min":-200,"x_max":379,"o":"m 281 806 q 229 824 249 806 q 210 871 210 842 q 239 943 210 914 q 310 972 268 972 q 360 954 340 972 q 379 907 379 936 q 351 835 379 864 q 281 806 322 806 m -69 -278 q -167 -257 -125 -278 q -200 -236 -186 -249 l -150 -146 l -136 -146 q -117 -164 -126 -158 q -65 -181 -96 -181 q 15 -149 -18 -181 q 58 -56 47 -117 l 192 694 l 331 694 l 197 -56 q 107 -217 181 -156 q -69 -278 33 -278 z "},"ĵ":{"ha":372,"x_min":-172,"x_max":486,"o":"m 97 764 l 275 944 l 372 944 l 486 764 l 396 764 l 308 854 l 188 764 l 97 764 m -42 -278 q -139 -257 -97 -278 q -172 -236 -157 -249 l -122 -146 l -108 -146 q -89 -164 -99 -158 q -37 -181 -68 -181 q 42 -149 10 -181 q 86 -56 75 -117 l 219 694 l 358 694 l 225 -56 q 135 -217 208 -156 q -42 -278 61 -278 z "},"k":{"ha":667,"x_min":69,"x_max":726,"o":"m 69 0 l 233 931 l 282 972 l 379 972 l 274 375 l 567 694 l 726 694 l 417 361 l 618 0 l 458 0 l 269 347 l 208 0 l 69 0 z "},"ķ":{"ha":667,"x_min":69,"x_max":726,"o":"m 69 0 l 233 931 l 282 972 l 379 972 l 274 375 l 567 694 l 726 694 l 417 361 l 618 0 l 458 0 l 269 347 l 208 0 l 69 0 m 190 -271 q 231 -240 211 -257 q 278 -167 271 -200 q 238 -149 254 -167 q 221 -103 221 -131 q 248 -41 221 -68 q 304 -14 275 -14 q 355 -33 336 -14 q 374 -83 374 -51 q 372 -103 374 -96 q 289 -264 353 -197 q 225 -314 260 -296 l 190 -271 z "},"ĸ":{"ha":667,"x_min":69,"x_max":726,"o":"m 69 0 l 183 653 l 233 694 l 331 694 l 274 375 l 567 694 l 726 694 l 417 361 l 618 0 l 458 0 l 269 347 l 208 0 l 69 0 z "},"l":{"ha":347,"x_min":69,"x_max":379,"o":"m 69 0 l 233 931 l 282 972 l 379 972 l 208 0 l 69 0 z "},"ĺ":{"ha":350,"x_min":69,"x_max":535,"o":"m 69 0 l 233 931 l 282 972 l 379 972 l 208 0 l 69 0 m 282 1042 l 382 1250 l 535 1250 l 372 1042 l 282 1042 z "},"ľ":{"ha":507,"x_min":69,"x_max":615,"o":"m 69 0 l 233 931 l 282 972 l 379 972 l 208 0 l 69 0 m 431 715 q 471 746 451 729 q 519 819 514 789 q 478 838 496 819 q 461 883 461 856 q 463 896 461 892 q 494 950 469 928 q 546 972 519 972 q 597 953 578 972 q 615 903 615 935 q 614 883 615 890 q 529 722 594 790 q 465 672 500 690 l 431 715 z "},"ļ":{"ha":347,"x_min":4,"x_max":379,"o":"m 69 0 l 233 931 l 282 972 l 379 972 l 208 0 l 69 0 m 4 -325 q 44 -294 25 -311 q 92 -221 85 -254 q 51 -203 68 -221 q 35 -157 35 -185 q 62 -95 35 -122 q 118 -68 89 -68 q 169 -87 150 -68 q 188 -137 188 -106 q 186 -157 188 -150 q 103 -318 167 -251 q 39 -368 74 -350 l 4 -325 z "},"ŀ":{"ha":500,"x_min":69,"x_max":538,"o":"m 69 0 l 233 931 l 282 972 l 379 972 l 208 0 l 69 0 m 368 468 q 397 540 368 511 q 468 569 426 569 q 518 551 499 569 q 538 504 538 533 q 509 432 538 461 q 439 403 481 403 q 388 421 407 403 q 368 468 368 439 z "},"ł":{"ha":403,"x_min":53,"x_max":463,"o":"m 83 0 l 149 374 l 53 306 l 81 458 l 175 526 l 247 931 l 296 972 l 393 972 l 333 638 l 463 736 l 436 583 l 307 485 l 222 0 l 83 0 z "},"m":{"ha":1118,"x_min":69,"x_max":1074,"o":"m 192 694 l 289 694 l 288 611 l 294 611 q 353 660 317 633 q 499 708 431 708 q 631 660 576 708 q 663 611 653 639 q 728 660 685 632 q 888 708 811 708 q 1022 657 971 708 q 1074 522 1074 606 q 1068 472 1074 508 l 986 0 l 847 0 l 929 472 q 932 497 932 489 q 904 574 932 544 q 835 604 876 604 q 736 569 794 604 q 690 535 715 557 l 597 0 l 458 0 l 540 472 q 543 497 543 489 q 515 574 543 544 q 446 604 488 604 q 347 563 403 604 q 300 521 325 546 l 208 0 l 69 0 l 192 694 z "},"n":{"ha":757,"x_min":69,"x_max":713,"o":"m 192 694 l 289 694 l 288 611 l 294 611 q 351 660 314 633 q 513 708 429 708 q 658 657 603 708 q 713 522 713 606 q 707 472 713 508 l 625 0 l 486 0 l 568 472 q 571 501 571 492 q 540 576 571 547 q 460 604 510 604 q 349 563 407 604 q 300 521 321 542 l 208 0 l 69 0 l 192 694 z "},"ń":{"ha":757,"x_min":69,"x_max":713,"o":"m 192 694 l 289 694 l 288 611 l 294 611 q 351 660 314 633 q 513 708 429 708 q 658 657 603 708 q 713 522 713 606 q 707 472 713 508 l 625 0 l 486 0 l 568 472 q 571 501 571 492 q 540 576 571 547 q 460 604 510 604 q 349 563 407 604 q 300 521 321 542 l 208 0 l 69 0 l 192 694 m 425 764 l 525 972 l 678 972 l 515 764 l 425 764 z "},"ň":{"ha":757,"x_min":69,"x_max":713,"o":"m 192 694 l 289 694 l 288 611 l 294 611 q 351 660 314 633 q 513 708 429 708 q 658 657 603 708 q 713 522 713 606 q 707 472 713 508 l 625 0 l 486 0 l 568 472 q 571 501 571 492 q 540 576 571 547 q 460 604 510 604 q 349 563 407 604 q 300 521 321 542 l 208 0 l 69 0 l 192 694 m 431 778 l 317 958 l 407 958 l 496 868 l 615 958 l 706 958 l 528 778 l 431 778 z "},"ņ":{"ha":757,"x_min":69,"x_max":713,"o":"m 192 694 l 289 694 l 288 611 l 294 611 q 351 660 314 633 q 513 708 429 708 q 658 657 603 708 q 713 522 713 606 q 707 472 713 508 l 625 0 l 486 0 l 568 472 q 571 501 571 492 q 540 576 571 547 q 460 604 510 604 q 349 563 407 604 q 300 521 321 542 l 208 0 l 69 0 l 192 694 m 225 -271 q 265 -240 246 -257 q 313 -167 306 -200 q 272 -149 289 -167 q 256 -103 256 -131 q 283 -41 256 -68 q 339 -14 310 -14 q 390 -33 371 -14 q 408 -83 408 -51 q 407 -103 408 -96 q 324 -264 388 -197 q 260 -314 294 -296 l 225 -271 z "},"ñ":{"ha":757,"x_min":69,"x_max":713,"o":"m 192 694 l 289 694 l 288 611 l 294 611 q 351 660 314 633 q 513 708 429 708 q 658 657 603 708 q 713 522 713 606 q 707 472 713 508 l 625 0 l 486 0 l 568 472 q 571 501 571 492 q 540 576 571 547 q 460 604 510 604 q 349 563 407 604 q 300 521 321 542 l 208 0 l 69 0 l 192 694 m 553 793 q 511 803 526 793 q 481 831 496 813 q 471 841 478 833 q 456 852 464 849 q 439 856 447 856 q 384 827 403 854 q 365 800 365 800 l 353 800 l 303 835 q 365 921 331 889 q 449 953 400 953 q 491 943 475 953 q 522 915 507 933 q 542 897 533 903 q 564 890 551 890 q 599 903 582 890 q 624 928 615 915 q 636 946 633 942 l 649 946 l 699 911 q 636 825 671 857 q 553 793 601 793 z "},"o":{"ha":736,"x_min":86,"x_max":703,"o":"m 331 -14 q 150 50 214 -14 q 86 240 86 114 q 96 347 86 293 q 222 617 128 526 q 457 708 317 708 q 638 643 574 708 q 703 450 703 578 q 693 347 703 413 q 566 78 661 169 q 331 -14 471 -14 m 347 83 q 475 147 419 83 q 554 347 531 210 q 564 449 564 401 q 531 572 564 533 q 440 611 497 611 q 313 548 367 611 q 235 347 258 485 q 225 244 225 293 q 347 83 225 83 z "},"ó":{"ha":736,"x_min":86,"x_max":703,"o":"m 331 -14 q 150 50 214 -14 q 86 240 86 114 q 96 347 86 293 q 222 617 128 526 q 457 708 317 708 q 638 643 574 708 q 703 450 703 578 q 693 347 703 413 q 566 78 661 169 q 331 -14 471 -14 m 347 83 q 475 147 419 83 q 554 347 531 210 q 564 449 564 401 q 531 572 564 533 q 440 611 497 611 q 313 548 367 611 q 235 347 258 485 q 225 244 225 293 q 347 83 225 83 m 414 764 l 514 972 l 667 972 l 504 764 l 414 764 z "},"ô":{"ha":736,"x_min":86,"x_max":703,"o":"m 331 -14 q 150 50 214 -14 q 86 240 86 114 q 96 347 86 293 q 222 617 128 526 q 457 708 317 708 q 638 643 574 708 q 703 450 703 578 q 693 347 703 413 q 566 78 661 169 q 331 -14 471 -14 m 347 83 q 475 147 419 83 q 554 347 531 210 q 564 449 564 401 q 531 572 564 533 q 440 611 497 611 q 313 548 367 611 q 235 347 258 485 q 225 244 225 293 q 347 83 225 83 m 275 778 l 453 958 l 550 958 l 664 778 l 574 778 l 486 868 l 365 778 l 275 778 z "},"ö":{"ha":736,"x_min":86,"x_max":703,"o":"m 331 -14 q 150 50 214 -14 q 86 240 86 114 q 96 347 86 293 q 222 617 128 526 q 457 708 317 708 q 638 643 574 708 q 703 450 703 578 q 693 347 703 413 q 566 78 661 169 q 331 -14 471 -14 m 347 83 q 475 147 419 83 q 554 347 531 210 q 564 449 564 401 q 531 572 564 533 q 440 611 497 611 q 313 548 367 611 q 235 347 258 485 q 225 244 225 293 q 347 83 225 83 m 346 785 q 299 801 317 785 q 282 844 282 817 q 283 861 282 856 q 315 916 289 894 q 374 938 340 938 q 420 920 403 938 q 438 875 438 903 q 436 861 438 867 q 404 806 429 828 q 346 785 379 785 m 589 785 q 542 801 560 785 q 525 844 525 817 q 526 861 525 856 q 558 916 532 894 q 617 938 583 938 q 663 920 646 938 q 681 875 681 903 q 679 861 681 867 q 647 806 672 828 q 589 785 622 785 z "},"ò":{"ha":736,"x_min":86,"x_max":703,"o":"m 331 -14 q 150 50 214 -14 q 86 240 86 114 q 96 347 86 293 q 222 617 128 526 q 457 708 317 708 q 638 643 574 708 q 703 450 703 578 q 693 347 703 413 q 566 78 661 169 q 331 -14 471 -14 m 347 83 q 475 147 419 83 q 554 347 531 210 q 564 449 564 401 q 531 572 564 533 q 440 611 497 611 q 313 548 367 611 q 235 347 258 485 q 225 244 225 293 q 347 83 225 83 m 428 764 l 340 972 l 493 972 l 518 764 l 428 764 z "},"ő":{"ha":736,"x_min":86,"x_max":736,"o":"m 331 -14 q 150 50 214 -14 q 86 240 86 114 q 96 347 86 293 q 222 617 128 526 q 457 708 317 708 q 638 643 574 708 q 703 450 703 578 q 693 347 703 413 q 566 78 661 169 q 331 -14 471 -14 m 347 83 q 475 147 419 83 q 554 347 531 210 q 564 449 564 401 q 531 572 564 533 q 440 611 497 611 q 313 548 367 611 q 235 347 258 485 q 225 244 225 293 q 347 83 225 83 m 317 764 l 417 972 l 549 972 l 393 764 l 317 764 m 504 764 l 604 972 l 736 972 l 581 764 l 504 764 z "},"ō":{"ha":736,"x_min":86,"x_max":703,"o":"m 331 -14 q 150 50 214 -14 q 86 240 86 114 q 96 347 86 293 q 222 617 128 526 q 457 708 317 708 q 638 643 574 708 q 703 450 703 578 q 693 347 703 413 q 566 78 661 169 q 331 -14 471 -14 m 347 83 q 475 147 419 83 q 554 347 531 210 q 564 449 564 401 q 531 572 564 533 q 440 611 497 611 q 313 548 367 611 q 235 347 258 485 q 225 244 225 293 q 347 83 225 83 m 290 819 l 307 917 l 682 917 l 665 819 l 290 819 z "},"ø":{"ha":736,"x_min":49,"x_max":740,"o":"m 331 -14 q 181 25 242 -14 l 160 0 l 49 0 l 121 88 q 85 236 85 147 q 96 347 85 283 q 222 617 128 526 q 457 708 317 708 q 607 669 551 708 l 629 694 l 740 694 l 667 607 q 703 451 703 546 q 693 347 703 400 q 566 78 661 169 q 331 -14 471 -14 m 528 575 q 440 611 496 611 q 313 548 367 611 q 235 347 258 485 q 224 242 224 285 l 225 213 l 528 575 m 347 83 q 475 147 419 83 q 554 347 531 210 q 564 453 564 404 q 563 482 564 474 l 258 119 q 347 83 288 83 z "},"õ":{"ha":736,"x_min":86,"x_max":703,"o":"m 331 -14 q 150 50 214 -14 q 86 240 86 114 q 96 347 86 293 q 222 617 128 526 q 457 708 317 708 q 638 643 574 708 q 703 450 703 578 q 693 347 703 413 q 566 78 661 169 q 331 -14 471 -14 m 347 83 q 475 147 419 83 q 554 347 531 210 q 564 449 564 401 q 531 572 564 533 q 440 611 497 611 q 313 548 367 611 q 235 347 258 485 q 225 244 225 293 q 347 83 225 83 m 526 779 q 485 789 500 779 q 454 817 469 799 q 444 827 451 819 q 429 838 438 835 q 413 842 421 842 q 358 813 376 840 q 339 786 339 786 l 326 786 l 276 821 q 339 907 304 875 q 422 939 374 939 q 465 929 449 939 q 496 901 481 919 q 516 883 507 889 q 538 876 525 876 q 572 889 556 876 q 598 915 589 901 q 610 932 607 928 l 622 932 l 672 897 q 610 811 644 843 q 526 779 575 779 z "},"œ":{"ha":1139,"x_min":86,"x_max":1113,"o":"m 324 -14 q 149 51 211 -14 q 86 240 86 115 q 96 347 86 293 q 222 617 128 525 q 450 708 315 708 q 653 597 586 708 q 888 708 758 708 q 1052 643 992 708 q 1113 451 1113 578 q 1103 347 1113 400 l 1099 326 l 1065 299 l 676 299 q 669 235 669 260 q 706 122 669 160 q 806 83 743 83 q 918 114 854 83 q 969 146 949 131 l 983 146 l 1017 63 q 947 24 989 42 q 775 -14 869 -14 q 649 14 704 -14 q 567 97 594 42 q 459 13 517 39 q 324 -14 401 -14 m 340 83 q 460 143 407 83 q 538 332 513 203 l 540 347 l 542 361 q 549 449 549 403 q 517 572 549 532 q 433 611 486 611 q 312 548 365 611 q 235 347 258 485 q 225 243 225 290 q 256 122 225 160 q 340 83 286 83 m 972 396 q 979 471 979 442 q 950 576 979 542 q 871 611 921 611 q 762 558 810 611 q 694 396 714 504 l 972 396 z "},"p":{"ha":743,"x_min":19,"x_max":710,"o":"m 192 694 l 289 694 l 288 611 l 294 611 q 351 660 314 633 q 513 708 429 708 q 656 643 601 708 q 710 453 710 578 q 700 347 710 401 q 576 78 668 171 q 358 -14 483 -14 q 254 7 304 -14 q 213 28 232 15 l 167 -236 l 117 -278 l 19 -278 l 192 694 m 354 83 q 482 147 426 83 q 561 347 538 210 q 571 444 571 397 q 540 565 571 526 q 460 604 508 604 q 349 563 407 604 q 300 521 321 542 l 228 111 q 263 97 238 106 q 354 83 307 83 z "},"þ":{"ha":750,"x_min":26,"x_max":717,"o":"m 240 931 l 289 972 l 386 972 l 332 667 l 381 688 q 492 708 443 708 q 656 643 596 708 q 717 451 717 578 q 707 347 717 400 q 583 78 675 171 q 365 -14 490 -14 q 261 7 311 -14 q 219 28 239 15 l 165 -278 l 26 -278 l 240 931 m 361 83 q 489 147 433 83 q 568 347 544 210 q 578 449 578 401 q 544 572 578 533 q 454 611 511 611 q 357 597 410 611 q 318 583 332 590 l 235 111 q 269 97 244 106 q 361 83 314 83 z "},"q":{"ha":743,"x_min":85,"x_max":726,"o":"m 424 -236 l 469 28 q 421 7 447 15 q 310 -14 367 -14 q 146 51 207 -14 q 85 239 85 115 q 96 347 85 283 q 164 545 115 464 q 276 667 213 626 q 408 708 340 708 q 553 660 493 708 q 593 611 581 635 l 600 611 l 629 694 l 726 694 l 554 -278 l 457 -278 l 424 -236 m 347 83 q 444 97 392 83 q 485 111 468 104 l 557 521 q 522 563 544 540 q 425 604 478 604 q 310 542 361 604 q 235 347 258 479 q 225 244 225 293 q 347 83 225 83 z "},"r":{"ha":507,"x_min":69,"x_max":594,"o":"m 192 694 l 289 694 l 288 611 l 294 611 q 350 660 313 632 q 506 708 428 708 q 568 701 540 708 l 594 694 l 554 583 l 540 583 q 511 590 531 585 q 451 597 483 597 q 346 556 404 597 q 299 514 324 539 l 208 0 l 69 0 l 192 694 z "},"ŕ":{"ha":507,"x_min":69,"x_max":594,"o":"m 192 694 l 289 694 l 288 611 l 294 611 q 350 660 313 632 q 506 708 428 708 q 568 701 540 708 l 594 694 l 554 583 l 540 583 q 511 590 531 585 q 451 597 483 597 q 346 556 404 597 q 299 514 324 539 l 208 0 l 69 0 l 192 694 m 338 764 l 438 972 l 590 972 l 428 764 l 338 764 z "},"ř":{"ha":528,"x_min":69,"x_max":647,"o":"m 192 694 l 289 694 l 288 611 l 294 611 q 350 660 313 632 q 506 708 428 708 q 568 701 540 708 l 594 694 l 554 583 l 540 583 q 511 590 531 585 q 451 597 483 597 q 346 556 404 597 q 299 514 324 539 l 208 0 l 69 0 l 192 694 m 372 778 l 258 958 l 349 958 l 438 868 l 557 958 l 647 958 l 469 778 l 372 778 z "},"ŗ":{"ha":507,"x_min":4,"x_max":594,"o":"m 192 694 l 289 694 l 288 611 l 294 611 q 350 660 313 632 q 506 708 428 708 q 568 701 540 708 l 594 694 l 554 583 l 540 583 q 511 590 531 585 q 451 597 483 597 q 346 556 404 597 q 299 514 324 539 l 208 0 l 69 0 l 192 694 m 4 -325 q 44 -294 25 -311 q 92 -221 85 -254 q 51 -203 68 -221 q 35 -157 35 -185 q 62 -95 35 -122 q 118 -68 89 -68 q 169 -87 150 -68 q 188 -137 188 -106 q 186 -157 188 -150 q 103 -318 167 -251 q 39 -368 74 -350 l 4 -325 z "},"s":{"ha":639,"x_min":24,"x_max":646,"o":"m 268 -14 q 83 24 156 -14 q 24 63 44 42 l 88 146 l 101 146 q 144 114 118 129 q 271 83 200 83 q 447 181 431 83 q 449 196 449 186 q 414 255 449 233 q 307 301 379 276 q 207 342 246 322 q 141 393 168 361 q 114 474 114 425 q 117 507 114 485 q 208 654 133 600 q 415 708 283 708 q 588 669 515 708 q 646 632 624 653 l 582 549 l 568 549 q 526 579 551 563 q 413 611 471 611 q 305 586 343 611 q 258 521 267 561 q 257 506 257 515 q 291 447 257 468 q 397 400 325 426 q 499 358 461 376 q 565 306 538 339 q 592 225 592 274 q 589 194 592 217 q 492 41 571 96 q 268 -14 414 -14 z "},"ś":{"ha":639,"x_min":24,"x_max":646,"o":"m 268 -14 q 83 24 156 -14 q 24 63 44 42 l 88 146 l 101 146 q 144 114 118 129 q 271 83 200 83 q 447 181 431 83 q 449 196 449 186 q 414 255 449 233 q 307 301 379 276 q 207 342 246 322 q 141 393 168 361 q 114 474 114 425 q 117 507 114 485 q 208 654 133 600 q 415 708 283 708 q 588 669 515 708 q 646 632 624 653 l 582 549 l 568 549 q 526 579 551 563 q 413 611 471 611 q 305 586 343 611 q 258 521 267 561 q 257 506 257 515 q 291 447 257 468 q 397 400 325 426 q 499 358 461 376 q 565 306 538 339 q 592 225 592 274 q 589 194 592 217 q 492 41 571 96 q 268 -14 414 -14 m 351 764 l 451 972 l 604 972 l 442 764 l 351 764 z "},"š":{"ha":639,"x_min":24,"x_max":647,"o":"m 268 -14 q 83 24 156 -14 q 24 63 44 42 l 88 146 l 101 146 q 144 114 118 129 q 271 83 200 83 q 447 181 431 83 q 449 196 449 186 q 414 255 449 233 q 307 301 379 276 q 207 342 246 322 q 141 393 168 361 q 114 474 114 425 q 117 507 114 485 q 208 654 133 600 q 415 708 283 708 q 588 669 515 708 q 646 632 624 653 l 582 549 l 568 549 q 526 579 551 563 q 413 611 471 611 q 305 586 343 611 q 258 521 267 561 q 257 506 257 515 q 291 447 257 468 q 397 400 325 426 q 499 358 461 376 q 565 306 538 339 q 592 225 592 274 q 589 194 592 217 q 492 41 571 96 q 268 -14 414 -14 m 372 778 l 258 958 l 349 958 l 438 868 l 557 958 l 647 958 l 469 778 l 372 778 z "},"ş":{"ha":639,"x_min":24,"x_max":646,"o":"m 258 521 q 257 506 257 515 q 291 447 257 468 q 397 400 325 426 q 499 358 461 376 q 565 306 538 339 q 592 225 592 274 q 589 194 592 217 q 503 49 572 103 q 306 -12 433 -6 l 300 -42 q 378 -67 350 -42 q 407 -132 407 -92 q 365 -226 407 -187 q 254 -264 322 -264 q 176 -250 210 -264 q 150 -236 157 -242 l 181 -181 l 193 -181 q 202 -187 194 -182 q 223 -197 210 -192 q 251 -201 236 -201 q 294 -187 276 -201 q 315 -153 313 -174 q 306 -117 319 -131 q 261 -104 292 -104 l 206 -104 l 222 -12 q 83 24 138 -4 q 24 63 44 42 l 88 146 l 101 146 q 144 114 118 129 q 271 83 200 83 q 447 181 431 83 q 449 196 449 186 q 414 255 449 233 q 307 301 379 276 q 207 342 246 322 q 141 393 168 361 q 114 474 114 425 q 117 507 114 485 q 208 654 133 600 q 415 708 283 708 q 588 669 515 708 q 646 632 624 653 l 582 549 l 568 549 q 526 579 551 563 q 413 611 471 611 q 305 586 343 611 q 258 521 267 561 z "},"ș":{"ha":639,"x_min":24,"x_max":646,"o":"m 268 -14 q 83 24 156 -14 q 24 63 44 42 l 88 146 l 101 146 q 144 114 118 129 q 271 83 200 83 q 447 181 431 83 q 449 196 449 186 q 414 255 449 233 q 307 301 379 276 q 207 342 246 322 q 141 393 168 361 q 114 474 114 425 q 117 507 114 485 q 208 654 133 600 q 415 708 283 708 q 588 669 515 708 q 646 632 624 653 l 582 549 l 568 549 q 526 579 551 563 q 413 611 471 611 q 305 586 343 611 q 258 521 267 561 q 257 506 257 515 q 291 447 257 468 q 397 400 325 426 q 499 358 461 376 q 565 306 538 339 q 592 225 592 274 q 589 194 592 217 q 492 41 571 96 q 268 -14 414 -14 m 163 -332 q 203 -301 183 -318 q 250 -228 243 -261 q 210 -210 226 -228 q 193 -164 193 -192 q 220 -102 193 -129 q 276 -75 247 -75 q 327 -94 308 -75 q 346 -144 346 -112 q 344 -164 346 -157 q 261 -325 325 -258 q 197 -375 232 -357 l 163 -332 z "},"ß":{"ha":861,"x_min":104,"x_max":825,"o":"m 504 -14 q 394 7 439 -14 q 358 28 374 14 l 408 118 l 422 118 q 443 100 432 106 q 507 83 469 83 q 621 123 575 83 q 679 236 667 163 q 682 261 682 253 q 661 332 682 301 q 599 403 640 363 q 526 487 551 449 q 501 582 501 525 q 506 625 501 603 q 518 667 510 649 q 542 708 526 685 q 565 751 557 733 q 576 792 572 768 q 578 810 578 799 q 556 867 578 844 q 503 889 535 889 q 421 857 454 889 q 376 764 388 825 l 243 0 l 104 0 l 207 583 l 117 583 l 133 681 l 224 681 l 238 764 q 328 925 254 864 q 507 986 403 986 q 665 942 611 986 q 718 826 718 899 q 715 792 718 814 q 699 742 710 763 q 668 701 688 722 q 638 655 647 675 q 628 603 628 635 q 649 540 628 567 q 714 474 669 513 q 797 389 768 428 q 825 292 825 350 q 821 250 825 274 q 714 58 799 129 q 504 -14 629 -14 z "},"t":{"ha":556,"x_min":97,"x_max":532,"o":"m 324 -14 q 181 34 233 -14 q 129 163 129 82 q 133 208 129 186 l 201 597 l 97 597 l 113 681 l 325 861 l 388 861 l 358 694 l 532 694 l 514 597 l 340 597 l 272 208 q 268 172 268 188 q 291 106 268 128 q 354 83 314 83 q 442 111 399 83 q 482 139 461 124 l 496 139 l 531 56 q 468 21 494 32 q 324 -14 396 -14 z "},"ť":{"ha":667,"x_min":97,"x_max":756,"o":"m 324 -14 q 181 34 233 -14 q 129 163 129 82 q 133 208 129 186 l 201 597 l 97 597 l 113 681 l 325 861 l 388 861 l 358 694 l 532 694 l 514 597 l 340 597 l 272 208 q 268 172 268 188 q 291 106 268 128 q 354 83 314 83 q 442 111 399 83 q 482 139 461 124 l 496 139 l 531 56 q 468 21 494 32 q 324 -14 396 -14 m 571 604 q 611 635 592 618 q 658 708 651 675 q 618 726 635 708 q 601 772 601 744 q 629 834 601 807 q 686 861 657 861 q 737 842 718 861 q 756 792 756 824 q 754 772 756 779 q 669 611 735 679 q 606 561 640 579 l 571 604 z "},"ț":{"ha":556,"x_min":97,"x_max":532,"o":"m 324 -14 q 181 34 233 -14 q 129 163 129 82 q 133 208 129 186 l 201 597 l 97 597 l 113 681 l 325 861 l 388 861 l 358 694 l 532 694 l 514 597 l 340 597 l 272 208 q 268 172 268 188 q 291 106 268 128 q 354 83 314 83 q 442 111 399 83 q 482 139 461 124 l 496 139 l 531 56 q 468 21 494 32 q 324 -14 396 -14 m 168 -339 q 208 -308 189 -325 q 256 -235 249 -268 q 215 -217 232 -235 q 199 -171 199 -199 q 226 -109 199 -136 q 282 -82 253 -82 q 333 -101 314 -82 q 351 -151 351 -119 q 350 -171 351 -164 q 267 -332 331 -265 q 203 -382 238 -364 l 168 -339 z "},"u":{"ha":764,"x_min":104,"x_max":747,"o":"m 303 -14 q 158 37 211 -14 q 104 172 104 88 q 108 222 104 197 l 192 694 l 331 694 l 247 222 q 244 193 244 203 q 275 119 244 147 q 356 90 306 90 q 410 101 385 90 q 467 132 436 113 q 517 174 492 151 l 608 694 l 747 694 l 625 0 l 528 0 l 528 83 l 521 83 q 464 35 497 56 q 303 -14 394 -14 z "},"ú":{"ha":764,"x_min":104,"x_max":747,"o":"m 303 -14 q 158 37 211 -14 q 104 172 104 88 q 108 222 104 197 l 192 694 l 331 694 l 247 222 q 244 193 244 203 q 275 119 244 147 q 356 90 306 90 q 410 101 385 90 q 467 132 436 113 q 517 174 492 151 l 608 694 l 747 694 l 625 0 l 528 0 l 528 83 l 521 83 q 464 35 497 56 q 303 -14 394 -14 m 425 751 l 525 960 l 678 960 l 515 751 l 425 751 z "},"û":{"ha":764,"x_min":104,"x_max":747,"o":"m 303 -14 q 158 37 211 -14 q 104 172 104 88 q 108 222 104 197 l 192 694 l 331 694 l 247 222 q 244 193 244 203 q 275 119 244 147 q 356 90 306 90 q 410 101 385 90 q 467 132 436 113 q 517 174 492 151 l 608 694 l 747 694 l 625 0 l 528 0 l 528 83 l 521 83 q 464 35 497 56 q 303 -14 394 -14 m 289 778 l 467 958 l 564 958 l 678 778 l 588 778 l 500 868 l 379 778 l 289 778 z "},"ü":{"ha":764,"x_min":104,"x_max":747,"o":"m 303 -14 q 158 37 211 -14 q 104 172 104 88 q 108 222 104 197 l 192 694 l 331 694 l 247 222 q 244 193 244 203 q 275 119 244 147 q 356 90 306 90 q 410 101 385 90 q 467 132 436 113 q 517 174 492 151 l 608 694 l 747 694 l 625 0 l 528 0 l 528 83 l 521 83 q 464 35 497 56 q 303 -14 394 -14 m 360 785 q 313 801 331 785 q 296 844 296 817 q 297 861 296 856 q 328 916 303 894 q 388 938 354 938 q 434 920 417 938 q 451 875 451 903 q 450 861 451 867 q 418 806 443 828 q 360 785 393 785 m 603 785 q 556 801 574 785 q 539 844 539 817 q 540 861 539 856 q 572 916 546 894 q 631 938 597 938 q 677 920 660 938 q 694 875 694 903 q 693 861 694 867 q 661 806 686 828 q 603 785 636 785 z "},"ù":{"ha":764,"x_min":104,"x_max":747,"o":"m 303 -14 q 158 37 211 -14 q 104 172 104 88 q 108 222 104 197 l 192 694 l 331 694 l 247 222 q 244 193 244 203 q 275 119 244 147 q 356 90 306 90 q 410 101 385 90 q 467 132 436 113 q 517 174 492 151 l 608 694 l 747 694 l 625 0 l 528 0 l 528 83 l 521 83 q 464 35 497 56 q 303 -14 394 -14 m 453 751 l 365 960 l 518 960 l 543 751 l 453 751 z "},"ű":{"ha":764,"x_min":104,"x_max":761,"o":"m 303 -14 q 158 37 211 -14 q 104 172 104 88 q 108 222 104 197 l 192 694 l 331 694 l 247 222 q 244 193 244 203 q 275 119 244 147 q 356 90 306 90 q 410 101 385 90 q 467 132 436 113 q 517 174 492 151 l 608 694 l 747 694 l 625 0 l 528 0 l 528 83 l 521 83 q 464 35 497 56 q 303 -14 394 -14 m 342 751 l 442 960 l 574 960 l 418 751 l 342 751 m 529 751 l 629 960 l 761 960 l 606 751 l 529 751 z "},"ū":{"ha":764,"x_min":104,"x_max":747,"o":"m 303 -14 q 158 37 211 -14 q 104 172 104 88 q 108 222 104 197 l 192 694 l 331 694 l 247 222 q 244 193 244 203 q 275 119 244 147 q 356 90 306 90 q 410 101 385 90 q 467 132 436 113 q 517 174 492 151 l 608 694 l 747 694 l 625 0 l 528 0 l 528 83 l 521 83 q 464 35 497 56 q 303 -14 394 -14 m 301 807 l 318 904 l 693 904 l 676 807 l 301 807 z "},"ų":{"ha":757,"x_min":104,"x_max":747,"o":"m 586 -139 q 624 -132 604 -139 q 655 -118 643 -125 q 669 -108 667 -111 l 682 -108 l 669 -181 q 636 -199 651 -193 q 551 -215 600 -215 q 471 -194 497 -215 q 444 -133 444 -172 q 446 -111 444 -119 q 494 -32 450 -76 q 535 0 519 -10 l 528 0 l 528 83 l 521 83 q 464 35 497 56 q 303 -14 394 -14 q 158 37 211 -14 q 104 172 104 88 q 108 222 104 197 l 192 694 l 331 694 l 247 222 q 244 193 244 203 q 275 119 244 147 q 356 90 306 90 q 410 101 385 90 q 467 132 436 113 q 517 174 492 151 l 608 694 l 747 694 l 625 0 l 632 0 q 592 -26 617 -7 q 559 -61 572 -42 q 546 -99 546 -81 q 557 -128 546 -117 q 586 -139 568 -139 z "},"ů":{"ha":764,"x_min":104,"x_max":747,"o":"m 303 -14 q 158 37 211 -14 q 104 172 104 88 q 108 222 104 197 l 192 694 l 331 694 l 247 222 q 244 193 244 203 q 275 119 244 147 q 356 90 306 90 q 410 101 385 90 q 467 132 436 113 q 517 174 492 151 l 608 694 l 747 694 l 625 0 l 528 0 l 528 83 l 521 83 q 464 35 497 56 q 303 -14 394 -14 m 481 764 q 394 793 426 764 q 363 871 363 822 q 364 896 363 888 q 419 991 375 954 q 526 1028 464 1028 q 613 999 581 1028 q 644 924 644 971 q 597 810 644 856 q 481 764 550 764 m 493 833 q 534 849 515 833 q 558 896 553 865 q 560 913 560 901 q 547 947 560 935 q 514 958 533 958 q 473 942 492 958 q 447 896 454 926 q 446 882 446 890 q 459 846 446 858 q 493 833 472 833 z "},"v":{"ha":653,"x_min":108,"x_max":719,"o":"m 108 694 l 247 694 l 311 236 q 314 199 314 219 q 314 172 314 178 q 313 139 314 150 l 318 139 q 328 172 324 161 q 353 236 338 207 l 581 694 l 719 694 l 375 0 l 208 0 l 108 694 z "},"w":{"ha":986,"x_min":108,"x_max":1053,"o":"m 108 694 l 240 694 l 276 271 q 278 239 278 260 q 276 210 278 219 l 274 181 l 279 181 q 289 210 285 200 q 311 271 304 257 l 497 694 l 664 694 l 700 271 q 701 210 703 228 l 699 181 l 704 181 q 713 210 707 196 q 735 271 728 257 l 921 694 l 1053 694 l 750 0 l 597 0 l 556 438 q 553 472 553 451 q 553 499 553 492 q 554 535 553 522 l 549 535 q 543 517 546 526 q 538 499 540 508 q 514 438 531 476 l 319 0 l 167 0 l 108 694 z "},"x":{"ha":639,"x_min":-14,"x_max":699,"o":"m 263 354 l 115 694 l 268 694 l 344 500 q 350 481 347 490 q 356 464 353 472 l 360 444 l 365 444 l 376 464 q 386 480 379 468 q 400 500 393 492 l 546 694 l 699 694 l 429 354 l 583 0 l 431 0 l 347 201 q 342 219 344 208 q 336 238 339 231 l 332 257 l 326 257 l 315 238 q 306 222 313 233 q 292 201 299 210 l 139 0 l -14 0 l 263 354 z "},"y":{"ha":660,"x_min":-31,"x_max":726,"o":"m 100 -292 q 3 -271 44 -292 q -31 -250 -17 -262 l 19 -160 l 33 -160 q 53 -178 43 -172 q 104 -194 74 -194 q 172 -167 140 -194 q 225 -97 204 -140 l 271 0 l 215 0 l 108 694 l 247 694 l 318 236 q 325 165 322 218 l 328 125 l 333 125 l 350 165 l 363 197 q 379 236 374 225 l 588 694 l 726 694 l 364 -97 q 256 -238 325 -185 q 100 -292 186 -292 z "},"ý":{"ha":660,"x_min":-31,"x_max":726,"o":"m 100 -292 q 3 -271 44 -292 q -31 -250 -17 -262 l 19 -160 l 33 -160 q 53 -178 43 -172 q 104 -194 74 -194 q 172 -167 140 -194 q 225 -97 204 -140 l 271 0 l 215 0 l 108 694 l 247 694 l 318 236 q 325 165 322 218 l 328 125 l 333 125 l 350 165 l 363 197 q 379 236 374 225 l 588 694 l 726 694 l 364 -97 q 256 -238 325 -185 q 100 -292 186 -292 m 374 751 l 474 960 l 626 960 l 464 751 l 374 751 z "},"ÿ":{"ha":660,"x_min":-31,"x_max":726,"o":"m 100 -292 q 3 -271 44 -292 q -31 -250 -17 -262 l 19 -160 l 33 -160 q 53 -178 43 -172 q 104 -194 74 -194 q 172 -167 140 -194 q 225 -97 204 -140 l 271 0 l 215 0 l 108 694 l 247 694 l 318 236 q 325 165 322 218 l 328 125 l 333 125 l 350 165 l 363 197 q 379 236 374 225 l 588 694 l 726 694 l 364 -97 q 256 -238 325 -185 q 100 -292 186 -292 m 307 785 q 260 801 278 785 q 243 844 243 817 q 244 861 243 856 q 276 916 250 894 q 335 938 301 938 q 381 920 364 938 q 399 875 399 903 q 397 861 399 867 q 365 806 390 828 q 307 785 340 785 m 550 785 q 503 801 521 785 q 486 844 486 817 q 488 861 486 856 q 519 916 493 894 q 578 938 544 938 q 624 920 607 938 q 642 875 642 903 q 640 861 642 867 q 608 806 633 828 q 550 785 583 785 z "},"z":{"ha":611,"x_min":14,"x_max":643,"o":"m 14 0 l 32 104 l 458 597 l 118 597 l 136 694 l 643 694 l 624 590 l 197 97 l 544 97 l 528 0 l 14 0 z "},"ź":{"ha":611,"x_min":14,"x_max":643,"o":"m 14 0 l 32 104 l 458 597 l 118 597 l 136 694 l 643 694 l 624 590 l 197 97 l 544 97 l 528 0 l 14 0 m 338 764 l 438 972 l 590 972 l 428 764 l 338 764 z "},"ž":{"ha":611,"x_min":14,"x_max":643,"o":"m 14 0 l 32 104 l 458 597 l 118 597 l 136 694 l 643 694 l 624 590 l 197 97 l 544 97 l 528 0 l 14 0 m 358 778 l 244 958 l 335 958 l 424 868 l 543 958 l 633 958 l 456 778 l 358 778 z "},"ż":{"ha":611,"x_min":14,"x_max":643,"o":"m 14 0 l 32 104 l 458 597 l 118 597 l 136 694 l 643 694 l 624 590 l 197 97 l 544 97 l 528 0 l 14 0 m 407 778 q 357 796 376 778 q 338 843 338 814 q 366 915 338 886 q 436 944 394 944 q 488 926 468 944 q 507 879 507 908 q 478 807 507 836 q 407 778 449 778 z "},"ª":{"ha":500,"x_min":122,"x_max":564,"o":"m 267 486 q 160 519 199 486 q 122 604 122 551 q 125 632 122 613 q 197 744 138 703 q 367 785 256 785 l 429 785 l 436 819 q 438 836 438 825 q 417 885 438 867 q 360 903 396 903 q 278 882 322 903 q 249 861 261 872 l 235 861 l 210 924 q 261 954 231 939 q 396 986 328 986 q 521 951 478 986 q 564 853 564 915 q 561 819 564 842 l 504 500 l 408 500 l 410 556 l 403 556 q 365 521 383 533 q 267 486 319 486 m 308 569 q 372 590 342 569 q 399 611 389 600 l 415 701 l 353 701 q 281 683 307 701 q 250 632 256 665 q 249 619 249 628 q 265 583 249 597 q 308 569 281 569 z "},"º":{"ha":542,"x_min":138,"x_max":593,"o":"m 321 486 q 186 534 235 486 q 138 672 138 582 q 143 736 138 704 q 236 920 164 854 q 410 986 308 986 q 544 938 496 986 q 593 800 593 890 q 588 736 593 768 q 494 552 567 618 q 321 486 422 486 m 336 569 q 463 736 433 569 q 469 803 469 781 q 394 903 469 903 q 268 736 297 903 q 261 668 261 692 q 336 569 261 569 z "},"А":{"ha":792,"x_min":-14,"x_max":736,"o":"m -14 0 l 442 972 l 622 972 l 736 0 l 597 0 l 564 250 l 244 250 l 125 0 l -14 0 m 554 347 l 510 729 q 507 767 507 746 q 507 794 507 789 q 508 826 507 817 l 503 826 q 493 793 497 804 q 468 729 481 757 l 290 347 l 554 347 z "},"Б":{"ha":792,"x_min":90,"x_max":803,"o":"m 261 972 l 803 972 l 786 875 l 383 875 l 332 583 l 457 583 q 678 524 606 583 q 751 356 751 465 q 746 292 751 321 q 622 76 721 153 q 354 0 524 0 l 90 0 l 261 972 m 371 97 q 531 147 471 97 q 607 292 590 196 q 611 340 611 317 q 568 449 611 411 q 439 486 525 486 l 314 486 l 246 97 l 371 97 z "},"В":{"ha":799,"x_min":90,"x_max":792,"o":"m 261 972 l 525 972 q 723 918 654 972 q 792 775 792 864 q 788 729 792 753 q 676 554 767 617 q 590 514 636 526 q 679 469 643 501 q 744 315 744 410 q 740 264 744 292 q 622 70 718 140 q 354 0 525 0 l 90 0 l 261 972 m 451 556 q 582 598 531 556 q 646 715 633 640 q 650 753 650 736 q 613 843 650 811 q 508 875 576 875 l 383 875 l 326 556 l 451 556 m 371 97 q 604 278 572 97 q 608 325 608 303 q 435 458 608 458 l 310 458 l 246 97 l 371 97 z "},"Г":{"ha":681,"x_min":90,"x_max":803,"o":"m 90 0 l 261 972 l 803 972 l 786 875 l 383 875 l 229 0 l 90 0 z "},"Ѓ":{"ha":681,"x_min":90,"x_max":803,"o":"m 90 0 l 261 972 l 803 972 l 786 875 l 383 875 l 229 0 l 90 0 m 535 1042 l 635 1250 l 788 1250 l 625 1042 l 535 1042 z "},"Ґ":{"ha":681,"x_min":90,"x_max":828,"o":"m 90 0 l 261 972 l 678 972 l 717 1111 l 828 1111 l 786 875 l 383 875 l 229 0 l 90 0 z "},"Д":{"ha":861,"x_min":-57,"x_max":851,"o":"m -4 97 l 65 97 q 111 157 86 118 q 186 347 158 229 l 331 972 l 851 972 l 697 97 l 788 97 l 733 -208 l 622 -208 l 639 0 l 118 0 l 60 -208 l -57 -208 l -4 97 m 558 97 l 696 875 l 446 875 l 325 347 q 250 157 297 229 q 204 97 225 118 l 558 97 z "},"Е":{"ha":708,"x_min":90,"x_max":803,"o":"m 90 0 l 261 972 l 803 972 l 786 875 l 383 875 l 326 556 l 646 556 l 629 458 l 310 458 l 246 97 l 649 97 l 632 0 l 90 0 z "},"Ѐ":{"ha":708,"x_min":90,"x_max":803,"o":"m 90 0 l 261 972 l 803 972 l 786 875 l 383 875 l 326 556 l 646 556 l 629 458 l 310 458 l 246 97 l 649 97 l 632 0 l 90 0 m 507 1042 l 419 1250 l 572 1250 l 597 1042 l 507 1042 z "},"Ё":{"ha":708,"x_min":90,"x_max":803,"o":"m 90 0 l 261 972 l 803 972 l 786 875 l 383 875 l 326 556 l 646 556 l 629 458 l 310 458 l 246 97 l 649 97 l 632 0 l 90 0 m 442 1063 q 395 1078 413 1063 q 378 1122 378 1094 q 379 1139 378 1133 q 410 1194 385 1172 q 469 1215 436 1215 q 516 1198 499 1215 q 533 1153 533 1181 q 532 1139 533 1144 q 500 1084 525 1106 q 442 1063 475 1063 m 685 1063 q 638 1078 656 1063 q 621 1122 621 1094 q 622 1139 621 1133 q 653 1194 628 1172 q 713 1215 679 1215 q 759 1198 742 1215 q 776 1153 776 1181 q 775 1139 776 1144 q 743 1084 768 1106 q 685 1063 718 1063 z "},"Ж":{"ha":1194,"x_min":0,"x_max":1275,"o":"m 81 -14 q 19 -7 43 -14 q 0 0 7 -6 l 29 90 l 36 90 l 44 86 q 63 83 56 83 q 129 146 104 83 l 217 368 q 319 482 246 440 q 388 507 350 499 q 329 528 354 514 q 271 632 271 561 l 269 826 q 259 874 271 858 q 225 889 247 889 q 206 885 222 889 l 196 882 l 189 882 l 192 972 l 214 979 q 278 986 239 986 q 378 949 344 986 q 413 847 413 911 l 413 653 q 441 576 413 604 q 526 549 469 549 l 589 549 l 664 972 l 803 972 l 728 549 l 790 549 q 885 576 847 549 q 940 653 924 604 l 1010 847 q 1082 949 1035 913 q 1194 986 1129 986 q 1256 979 1231 986 l 1275 972 l 1244 882 l 1238 882 l 1229 885 q 1221 887 1226 885 q 1211 889 1215 889 q 1144 826 1168 889 l 1076 632 q 981 528 1050 561 q 915 507 950 514 q 974 482 949 499 q 1036 368 1031 440 l 1046 146 q 1090 83 1050 83 q 1110 86 1096 83 l 1119 90 l 1126 90 l 1125 0 q 1103 -7 1111 -6 q 1039 -14 1075 -14 q 940 23 974 -14 q 903 125 906 60 l 894 347 q 865 424 892 396 q 788 451 839 451 l 711 451 l 632 0 l 493 0 l 572 451 l 496 451 q 353 347 397 451 l 264 125 q 192 23 239 60 q 81 -14 146 -14 z "},"З":{"ha":722,"x_min":3,"x_max":731,"o":"m 261 -14 q 64 24 142 -14 q 3 63 25 42 l 67 146 l 81 146 q 125 114 99 129 q 264 83 189 83 q 526 271 493 83 q 531 317 531 296 q 488 422 531 385 q 358 458 444 458 l 233 458 l 250 556 l 375 556 q 528 613 468 556 q 588 757 588 669 q 544 853 588 818 q 419 889 501 889 q 282 857 351 889 q 228 826 249 842 l 214 826 l 181 910 q 253 947 213 932 q 451 986 343 986 q 658 929 586 986 q 731 781 731 872 q 726 736 731 760 q 608 557 706 624 q 514 514 565 528 q 603 468 568 499 q 668 315 668 408 q 663 257 668 285 q 540 59 640 132 q 261 -14 439 -14 z "},"И":{"ha":875,"x_min":90,"x_max":900,"o":"m 261 972 l 400 972 l 285 326 l 278 294 q 258 208 271 247 l 264 208 q 326 326 301 289 l 761 972 l 900 972 l 729 0 l 590 0 l 704 646 q 731 764 714 703 l 725 764 q 663 646 683 676 l 229 0 l 90 0 l 261 972 z "},"Й":{"ha":875,"x_min":90,"x_max":900,"o":"m 261 972 l 400 972 l 285 326 l 278 294 q 258 208 271 247 l 264 208 q 326 326 301 289 l 761 972 l 900 972 l 729 0 l 590 0 l 704 646 q 731 764 714 703 l 725 764 q 663 646 683 676 l 229 0 l 90 0 l 261 972 m 586 1042 q 451 1078 497 1042 q 406 1181 406 1115 q 410 1222 406 1200 l 535 1222 q 532 1188 532 1210 q 549 1140 532 1154 q 600 1125 565 1125 q 667 1148 643 1125 q 701 1222 692 1171 l 826 1222 q 749 1090 810 1138 q 586 1042 688 1042 z "},"Ѝ":{"ha":875,"x_min":90,"x_max":900,"o":"m 261 972 l 400 972 l 285 326 l 278 294 q 258 208 271 247 l 264 208 q 326 326 301 289 l 761 972 l 900 972 l 729 0 l 590 0 l 704 646 q 731 764 714 703 l 725 764 q 663 646 683 676 l 229 0 l 90 0 l 261 972 m 547 1042 l 460 1250 l 613 1250 l 638 1042 l 547 1042 z "},"К":{"ha":813,"x_min":90,"x_max":893,"o":"m 657 -14 q 567 24 599 -14 q 532 125 535 61 l 524 347 q 492 424 521 396 q 406 451 464 451 l 308 451 l 229 0 l 90 0 l 261 972 l 400 972 l 325 549 l 408 549 q 511 576 469 549 q 569 653 553 604 l 639 847 q 706 949 661 911 q 813 986 751 986 q 856 983 839 986 q 893 972 872 981 l 863 882 l 856 882 q 829 889 844 889 q 763 826 786 889 l 694 632 q 599 528 668 561 q 533 507 568 514 q 592 482 567 499 q 654 368 649 440 l 664 146 q 708 83 668 83 q 738 90 724 83 l 744 90 l 743 0 q 657 -14 707 -14 z "},"Ќ":{"ha":813,"x_min":90,"x_max":893,"o":"m 657 -14 q 567 24 599 -14 q 532 125 535 61 l 524 347 q 492 424 521 396 q 406 451 464 451 l 308 451 l 229 0 l 90 0 l 261 972 l 400 972 l 325 549 l 408 549 q 511 576 469 549 q 569 653 553 604 l 639 847 q 706 949 661 911 q 813 986 751 986 q 856 983 839 986 q 893 972 872 981 l 863 882 l 856 882 q 829 889 844 889 q 763 826 786 889 l 694 632 q 599 528 668 561 q 533 507 568 514 q 592 482 567 499 q 654 368 649 440 l 664 146 q 708 83 668 83 q 738 90 724 83 l 744 90 l 743 0 q 657 -14 707 -14 m 504 1042 l 604 1250 l 757 1250 l 594 1042 l 504 1042 z "},"Л":{"ha":847,"x_min":-21,"x_max":858,"o":"m 53 -14 q 0 -7 24 -14 q -21 0 -10 -6 l 1 90 l 15 90 l 24 86 q 42 83 35 83 q 98 116 71 83 q 143 222 125 149 l 317 972 l 858 972 l 688 0 l 549 0 l 703 875 l 432 875 l 282 222 q 194 45 254 104 q 53 -14 135 -14 z "},"М":{"ha":1167,"x_min":90,"x_max":1178,"o":"m 261 972 l 400 972 l 588 382 q 597 339 596 358 l 600 313 l 606 313 l 618 339 q 643 382 632 369 l 1039 972 l 1178 972 l 1007 0 l 868 0 l 971 583 l 986 658 l 997 701 l 992 701 l 971 658 q 929 583 946 607 l 649 174 l 510 174 l 374 583 q 358 658 367 603 q 353 701 356 674 l 347 701 l 342 658 l 338 622 q 332 583 335 594 l 229 0 l 90 0 l 261 972 z "},"Н":{"ha":875,"x_min":90,"x_max":886,"o":"m 90 0 l 261 972 l 400 972 l 324 542 l 671 542 l 747 972 l 886 972 l 715 0 l 576 0 l 654 444 l 307 444 l 229 0 l 90 0 z "},"О":{"ha":833,"x_min":110,"x_max":824,"o":"m 379 -14 q 181 64 251 -14 q 110 307 110 142 q 126 486 110 386 q 283 865 171 744 q 556 986 396 986 q 753 909 683 986 q 824 667 824 832 q 807 486 824 589 q 651 107 763 228 q 379 -14 539 -14 m 396 83 q 556 178 483 83 q 668 486 629 274 q 686 658 686 582 q 644 833 686 778 q 538 889 603 889 q 376 794 449 889 q 265 486 304 700 q 247 311 247 388 q 288 138 247 192 q 396 83 329 83 z "},"П":{"ha":875,"x_min":90,"x_max":886,"o":"m 90 0 l 261 972 l 886 972 l 715 0 l 576 0 l 731 875 l 383 875 l 229 0 l 90 0 z "},"Р":{"ha":785,"x_min":90,"x_max":810,"o":"m 261 972 l 511 972 q 810 738 810 972 q 801 653 810 699 q 674 413 774 493 q 399 333 575 333 l 288 333 l 229 0 l 90 0 l 261 972 m 415 431 q 582 485 521 431 q 663 653 643 539 q 669 722 669 694 q 626 838 669 801 q 494 875 583 875 l 383 875 l 304 431 l 415 431 z "},"С":{"ha":715,"x_min":110,"x_max":792,"o":"m 400 -14 q 184 63 258 -14 q 110 308 110 140 q 126 486 110 386 q 284 865 171 744 q 563 986 397 986 q 735 947 663 986 q 792 910 769 929 l 728 826 l 714 826 q 672 857 697 840 q 558 889 617 889 q 265 486 339 889 q 247 317 247 392 q 431 83 247 83 q 556 114 492 83 q 608 146 592 133 l 622 146 l 656 63 q 585 24 626 42 q 400 -14 504 -14 z "},"Т":{"ha":667,"x_min":133,"x_max":789,"o":"m 229 0 l 383 875 l 133 875 l 150 972 l 789 972 l 772 875 l 522 875 l 368 0 l 229 0 z "},"У":{"ha":744,"x_min":53,"x_max":867,"o":"m 192 -21 q 89 0 133 -21 q 53 21 67 8 l 104 111 l 118 111 q 138 93 128 99 q 194 76 158 76 q 272 103 235 76 q 331 174 308 131 l 372 257 l 310 257 l 150 972 l 296 972 l 410 465 q 418 400 415 440 l 421 361 l 426 361 l 443 400 l 454 426 l 472 465 l 728 972 l 867 972 l 469 174 q 353 35 429 92 q 192 -21 276 -21 z "},"Ў":{"ha":744,"x_min":53,"x_max":867,"o":"m 192 -21 q 89 0 133 -21 q 53 21 67 8 l 104 111 l 118 111 q 138 93 128 99 q 194 76 158 76 q 272 103 235 76 q 331 174 308 131 l 372 257 l 310 257 l 150 972 l 296 972 l 410 465 q 418 400 415 440 l 421 361 l 426 361 l 443 400 l 454 426 l 472 465 l 728 972 l 867 972 l 469 174 q 353 35 429 92 q 192 -21 276 -21 m 494 1042 q 360 1078 406 1042 q 314 1181 314 1115 q 318 1222 314 1200 l 443 1222 q 440 1188 440 1210 q 457 1140 440 1154 q 508 1125 474 1125 q 576 1148 551 1125 q 610 1222 600 1171 l 735 1222 q 657 1090 718 1138 q 494 1042 596 1042 z "},"Ф":{"ha":1069,"x_min":101,"x_max":1068,"o":"m 440 56 q 188 146 275 65 q 101 375 101 226 q 113 486 101 422 q 272 797 149 689 q 592 917 394 906 l 608 1014 l 747 1014 l 731 917 q 982 826 896 907 q 1068 597 1068 746 q 1057 486 1068 550 q 899 176 1021 285 q 579 56 776 67 l 561 -42 l 422 -42 l 440 56 m 575 819 q 364 725 449 807 q 251 486 279 643 q 243 393 243 436 q 299 222 243 282 q 457 153 354 163 l 575 819 m 596 153 q 806 246 722 163 q 918 486 890 329 q 928 582 928 535 q 872 751 928 692 q 714 819 815 810 l 596 153 z "},"Х":{"ha":736,"x_min":-14,"x_max":844,"o":"m 329 493 l 164 972 l 317 972 l 421 660 q 426 640 424 650 q 431 619 428 629 l 435 597 l 440 597 l 451 619 q 476 660 467 647 l 692 972 l 844 972 l 510 493 l 681 0 l 528 0 l 418 326 q 413 347 415 336 q 408 367 411 357 l 404 389 l 399 389 l 386 367 q 376 348 383 361 q 363 326 369 335 l 139 0 l -14 0 l 329 493 z "},"Ч":{"ha":833,"x_min":154,"x_max":844,"o":"m 601 382 q 570 376 585 378 q 543 371 556 374 q 403 361 478 361 q 219 419 285 361 q 154 575 154 476 q 160 632 154 606 l 219 972 l 358 972 l 299 632 q 296 594 296 619 q 338 494 296 531 q 456 458 379 458 q 571 468 519 458 l 618 479 l 706 972 l 844 972 l 674 0 l 535 0 l 601 382 z "},"Ц":{"ha":882,"x_min":90,"x_max":872,"o":"m 643 -208 l 660 0 l 90 0 l 261 972 l 400 972 l 246 97 l 579 97 l 733 972 l 872 972 l 718 97 l 808 97 l 754 -208 l 643 -208 z "},"Ш":{"ha":1278,"x_min":90,"x_max":1289,"o":"m 90 0 l 261 972 l 400 972 l 246 97 l 551 97 l 706 972 l 844 972 l 690 97 l 996 97 l 1150 972 l 1289 972 l 1118 0 l 90 0 z "},"Щ":{"ha":1299,"x_min":90,"x_max":1289,"o":"m 1060 -208 l 1076 0 l 90 0 l 261 972 l 400 972 l 246 97 l 551 97 l 706 972 l 844 972 l 690 97 l 996 97 l 1150 972 l 1289 972 l 1135 97 l 1225 97 l 1171 -208 l 1060 -208 z "},"Џ":{"ha":875,"x_min":90,"x_max":886,"o":"m 310 -208 l 333 0 l 90 0 l 261 972 l 400 972 l 246 97 l 593 97 l 747 972 l 886 972 l 715 0 l 472 0 l 421 -208 l 310 -208 z "},"Ь":{"ha":778,"x_min":90,"x_max":754,"o":"m 261 972 l 400 972 l 336 611 l 461 611 q 681 552 607 611 q 754 381 754 493 q 747 306 754 350 q 624 78 722 157 q 354 0 525 0 l 90 0 l 261 972 m 371 97 q 608 306 574 97 q 614 367 614 335 q 444 514 614 514 l 319 514 l 246 97 l 371 97 z "},"Ъ":{"ha":861,"x_min":133,"x_max":838,"o":"m 328 875 l 133 875 l 150 972 l 483 972 l 419 611 l 544 611 q 764 552 690 611 q 838 381 838 493 q 831 306 838 350 q 707 78 806 157 q 438 0 608 0 l 174 0 l 328 875 m 454 97 q 692 306 657 97 q 697 367 697 335 q 528 514 697 514 l 403 514 l 329 97 l 454 97 z "},"Ы":{"ha":1111,"x_min":90,"x_max":1122,"o":"m 261 972 l 400 972 l 336 611 l 447 611 q 667 552 593 611 q 740 381 740 493 q 733 306 740 350 q 610 78 708 157 q 340 0 511 0 l 90 0 l 261 972 m 813 0 l 983 972 l 1122 972 l 951 0 l 813 0 m 357 97 q 594 306 560 97 q 600 367 600 335 q 431 514 600 514 l 319 514 l 246 97 l 357 97 z "},"Љ":{"ha":1224,"x_min":-21,"x_max":1200,"o":"m 53 -14 q 0 -7 24 -14 q -21 0 -10 -6 l 1 90 l 15 90 l 24 86 q 42 83 35 83 q 98 116 71 83 q 143 222 125 149 l 317 972 l 846 972 l 782 611 l 907 611 q 1126 552 1053 611 q 1200 381 1200 493 q 1193 306 1200 350 q 1069 78 1168 157 q 800 0 971 0 l 535 0 l 689 875 l 432 875 l 282 222 q 194 45 254 104 q 53 -14 135 -14 m 817 97 q 1054 306 1019 97 q 1060 367 1060 335 q 890 514 1060 514 l 765 514 l 692 97 l 817 97 z "},"Њ":{"ha":1250,"x_min":90,"x_max":1224,"o":"m 261 972 l 400 972 l 332 583 l 665 583 l 733 972 l 872 972 l 804 583 l 929 583 q 1151 524 1078 583 q 1224 356 1224 465 q 1218 292 1224 321 q 1094 76 1193 153 q 826 0 996 0 l 563 0 l 647 486 l 314 486 l 229 0 l 90 0 l 261 972 m 843 97 q 1003 147 943 97 q 1079 292 1063 196 q 1083 340 1083 317 q 1040 449 1083 411 q 911 486 997 486 l 786 486 l 718 97 l 843 97 z "},"Ѕ":{"ha":701,"x_min":24,"x_max":750,"o":"m 296 -14 q 92 24 174 -14 q 24 63 47 42 l 88 146 l 101 146 q 153 114 121 129 q 299 83 219 83 q 451 129 392 83 q 522 250 510 175 q 525 275 525 267 q 503 344 525 315 q 447 394 481 374 q 357 443 414 415 q 249 502 290 475 q 178 572 207 529 q 150 674 150 614 q 154 722 150 697 q 213 858 167 799 q 332 952 260 918 q 493 986 404 986 q 689 947 608 986 q 750 910 726 929 l 686 826 l 672 826 q 628 857 653 843 q 489 889 561 889 q 392 864 438 889 q 320 798 347 839 q 293 711 293 757 q 315 642 293 671 q 371 592 338 613 q 461 543 404 571 q 569 484 528 511 q 640 415 611 457 q 668 313 668 372 q 664 264 668 289 q 545 61 642 136 q 296 -14 449 -14 z "},"Є":{"ha":715,"x_min":110,"x_max":792,"o":"m 400 -14 q 184 63 258 -14 q 110 308 110 140 q 126 486 110 386 q 284 865 171 744 q 563 986 397 986 q 735 947 663 986 q 792 910 769 929 l 728 826 l 714 826 q 672 857 697 840 q 558 889 617 889 q 276 542 356 889 l 601 542 l 585 444 l 258 444 q 249 318 249 378 q 431 83 249 83 q 556 114 492 83 q 608 146 592 133 l 622 146 l 656 63 q 585 24 626 42 q 400 -14 504 -14 z "},"Э":{"ha":715,"x_min":10,"x_max":706,"o":"m 240 -14 q 68 24 138 -14 q 10 63 32 40 l 74 146 l 88 146 q 129 114 103 131 q 243 83 182 83 q 427 167 350 83 q 543 444 504 251 l 217 444 l 233 542 l 558 542 q 567 657 567 607 q 399 889 567 889 q 274 857 340 889 q 221 826 238 838 l 207 826 l 174 910 q 244 947 204 931 q 431 986 328 986 q 706 665 706 986 q 689 486 706 586 q 240 -14 603 -14 z "},"І":{"ha":389,"x_min":90,"x_max":400,"o":"m 90 0 l 261 972 l 400 972 l 229 0 l 90 0 z "},"Ї":{"ha":389,"x_min":90,"x_max":558,"o":"m 90 0 l 261 972 l 400 972 l 229 0 l 90 0 m 224 1063 q 177 1078 194 1063 q 160 1122 160 1094 q 161 1139 160 1133 q 192 1194 167 1172 q 251 1215 218 1215 q 298 1198 281 1215 q 315 1153 315 1181 q 314 1139 315 1144 q 282 1084 307 1106 q 224 1063 257 1063 m 467 1063 q 420 1078 438 1063 q 403 1122 403 1094 q 404 1139 403 1133 q 435 1194 410 1172 q 494 1215 461 1215 q 541 1198 524 1215 q 558 1153 558 1181 q 557 1139 558 1144 q 525 1084 550 1106 q 467 1063 500 1063 z "},"Ј":{"ha":590,"x_min":-26,"x_max":608,"o":"m 150 -14 q 19 17 83 -14 q -26 49 -11 33 l 31 139 l 44 139 q 75 111 64 119 q 153 83 113 83 q 281 127 233 83 q 344 264 328 171 l 469 972 l 608 972 l 483 264 q 376 56 460 126 q 150 -14 292 -14 z "},"Ћ":{"ha":903,"x_min":119,"x_max":851,"o":"m 314 875 l 119 875 l 136 972 l 719 972 l 703 875 l 453 875 l 404 604 l 461 614 q 603 625 536 625 q 786 567 721 625 q 851 411 851 510 q 846 354 851 381 l 785 0 l 646 0 l 707 354 q 711 394 711 375 q 669 492 711 457 q 551 528 628 528 q 436 517 494 528 q 388 507 424 514 l 299 0 l 160 0 l 314 875 z "},"Ю":{"ha":1125,"x_min":90,"x_max":1117,"o":"m 685 -14 q 497 64 564 -14 q 429 308 429 142 q 439 444 429 375 l 307 444 l 229 0 l 90 0 l 261 972 l 400 972 l 324 542 l 456 542 q 613 878 507 771 q 861 986 718 986 q 1049 909 982 986 q 1117 668 1117 832 q 1099 486 1117 585 q 944 108 1054 229 q 685 -14 835 -14 m 701 83 q 851 179 781 83 q 960 486 921 275 q 978 661 978 585 q 940 834 978 779 q 843 889 901 889 q 694 793 764 889 q 585 486 624 697 q 567 311 567 388 q 605 138 567 193 q 701 83 643 83 z "},"Я":{"ha":792,"x_min":-7,"x_max":803,"o":"m 74 -14 q 13 -7 36 -14 q -7 0 0 -6 l 22 90 l 29 90 l 38 86 q 56 83 49 83 q 91 99 72 83 q 122 146 110 115 l 190 292 q 272 388 218 353 q 322 410 301 404 q 204 478 253 419 q 156 622 156 536 q 160 674 156 647 q 285 895 185 818 q 560 972 385 972 l 803 972 l 632 0 l 493 0 l 558 375 l 468 375 q 385 347 422 375 q 325 271 347 319 l 257 125 q 179 21 224 56 q 74 -14 135 -14 m 575 472 l 647 875 l 543 875 q 299 674 333 875 q 293 619 293 635 q 471 472 293 472 l 575 472 z "},"Ђ":{"ha":889,"x_min":119,"x_max":851,"o":"m 561 -42 q 481 -32 517 -42 q 447 -21 447 -21 l 476 69 l 490 69 q 510 63 500 64 q 551 56 531 56 q 633 88 600 56 q 676 181 665 119 l 707 354 q 711 394 711 375 q 669 492 711 457 q 551 528 628 528 q 436 517 494 528 q 388 507 424 514 l 299 0 l 160 0 l 314 875 l 119 875 l 136 972 l 719 972 l 703 875 l 453 875 l 404 604 l 461 614 q 603 625 536 625 q 786 567 721 625 q 851 411 851 510 q 846 354 851 381 l 815 181 q 728 20 799 82 q 561 -42 657 -42 z "},"Ѣ":{"ha":863,"x_min":96,"x_max":839,"o":"m 546 611 q 766 553 693 611 q 839 382 839 494 q 832 306 839 351 q 707 78 806 157 q 438 0 608 0 l 174 0 l 304 736 l 96 736 l 114 833 l 321 833 l 353 1014 l 492 1014 l 460 833 l 739 833 l 721 736 l 443 736 l 421 611 l 546 611 m 693 306 q 699 364 699 333 q 528 514 699 514 l 403 514 l 329 97 l 454 97 q 693 306 656 97 z "},"Ѫ":{"ha":1142,"x_min":-53,"x_max":1100,"o":"m 28 -14 q -53 0 -21 -14 l -24 90 l -17 90 q 11 83 -4 83 q 78 146 51 83 l 165 368 q 270 499 200 453 q 471 546 340 546 l 238 972 l 1100 972 l 760 547 q 902 527 856 547 q 964 472 949 507 q 985 368 979 436 l 994 146 q 1039 83 997 83 q 1067 90 1053 83 l 1074 90 l 1072 0 q 986 -14 1033 -14 q 894 22 922 -14 q 863 125 865 57 l 853 347 q 819 423 850 394 q 735 451 788 451 l 658 451 l 579 0 l 440 0 l 519 451 l 443 451 q 300 347 344 451 l 213 125 q 140 23 186 60 q 28 -14 93 -14 m 603 521 l 608 521 l 883 875 l 421 875 l 603 521 z "},"Ѳ":{"ha":833,"x_min":110,"x_max":824,"o":"m 379 -14 q 181 64 251 -14 q 110 307 110 142 q 126 486 110 386 q 283 865 171 744 q 556 986 396 986 q 753 909 683 986 q 824 667 824 832 q 807 486 824 589 q 651 107 763 228 q 379 -14 539 -14 m 396 83 q 556 178 483 83 q 668 486 629 274 q 686 658 686 582 q 644 833 686 778 q 538 889 603 889 q 376 794 449 889 q 265 486 304 700 q 247 311 247 388 q 288 138 247 192 q 396 83 329 83 m 267 438 l 283 535 l 672 535 l 656 438 l 267 438 z "},"Ѵ":{"ha":797,"x_min":157,"x_max":935,"o":"m 157 972 l 296 972 l 365 235 q 368 181 368 201 q 367 138 368 154 l 372 138 q 407 235 383 183 l 632 750 q 736 933 688 879 q 861 986 785 986 q 935 972 900 986 l 913 882 l 907 882 q 879 889 893 889 q 826 860 853 889 q 764 750 800 831 l 431 0 l 257 0 l 157 972 z "},"Ғ":{"ha":681,"x_min":90,"x_max":803,"o":"m 786 875 l 383 875 l 324 535 l 499 535 l 482 438 l 307 438 l 229 0 l 90 0 l 167 438 l 93 438 l 110 535 l 185 535 l 261 972 l 803 972 l 786 875 z "},"Ҕ":{"ha":806,"x_min":90,"x_max":803,"o":"m 383 875 l 326 549 q 439 565 401 561 q 519 569 476 569 q 703 511 638 569 q 769 354 769 453 q 764 299 769 338 l 726 83 q 638 -78 708 -17 q 471 -139 567 -139 q 392 -129 421 -139 q 376 -124 385 -126 q 357 -118 367 -122 l 386 -28 l 400 -28 q 421 -35 414 -33 q 461 -42 453 -42 q 544 -10 510 -42 q 588 83 578 22 l 625 299 q 628 336 628 311 q 586 436 628 400 q 468 472 544 472 q 401 468 435 472 q 308 453 368 464 l 229 0 l 90 0 l 261 972 l 803 972 l 786 875 l 383 875 z "},"Җ":{"ha":1194,"x_min":0,"x_max":1275,"o":"m 1275 972 l 1244 882 l 1238 882 l 1229 885 q 1221 887 1226 885 q 1211 889 1215 889 q 1144 826 1168 889 l 1076 632 q 981 528 1050 561 q 915 507 950 514 q 974 482 949 499 q 1036 368 1031 440 l 1046 146 q 1090 83 1050 83 q 1110 86 1096 83 l 1119 90 l 1126 90 l 1125 0 l 1089 -208 l 978 -208 l 993 -8 q 928 38 950 4 q 903 125 906 72 l 894 347 q 865 424 892 396 q 788 451 839 451 l 711 451 l 632 0 l 493 0 l 572 451 l 496 451 q 353 347 397 451 l 264 125 q 192 23 239 60 q 81 -14 146 -14 q 19 -7 43 -14 q 0 0 7 -6 l 29 90 l 36 90 l 44 86 q 63 83 56 83 q 129 146 104 83 l 217 368 q 319 482 246 440 q 388 507 350 499 q 329 528 354 514 q 271 632 271 561 l 269 826 q 259 874 271 858 q 225 889 247 889 q 206 885 222 889 l 196 882 l 189 882 l 192 972 l 214 979 q 278 986 239 986 q 378 949 344 986 q 413 847 413 911 l 413 653 q 441 576 413 604 q 526 549 469 549 l 589 549 l 664 972 l 803 972 l 728 549 l 790 549 q 885 576 847 549 q 940 653 924 604 l 1010 847 q 1082 949 1035 913 q 1194 986 1129 986 q 1256 979 1231 986 l 1275 972 z "},"Ҙ":{"ha":722,"x_min":3,"x_max":731,"o":"m 726 736 q 608 557 706 624 q 514 514 565 528 q 603 468 568 499 q 668 315 668 408 q 663 257 668 285 q 571 85 643 153 q 374 -6 499 17 l 339 -208 l 228 -208 l 242 -14 q 64 24 133 -10 q 3 63 25 42 l 67 146 l 81 146 q 125 114 99 129 q 264 83 189 83 q 526 271 493 83 q 531 317 531 296 q 488 422 531 385 q 358 458 444 458 l 233 458 l 250 556 l 375 556 q 528 613 468 556 q 588 757 588 669 q 544 853 588 818 q 419 889 501 889 q 282 857 351 889 q 228 826 249 842 l 214 826 l 181 910 q 253 947 213 932 q 451 986 343 986 q 658 929 586 986 q 731 781 731 872 q 726 736 731 760 z "},"Қ":{"ha":813,"x_min":90,"x_max":893,"o":"m 813 986 q 856 983 839 986 q 893 972 872 981 l 863 882 l 856 882 q 829 889 844 889 q 763 826 786 889 l 694 632 q 599 528 668 561 q 533 507 568 514 q 592 482 567 499 q 654 368 649 440 l 664 146 q 708 83 668 83 q 738 90 724 83 l 744 90 l 743 0 l 707 -208 l 596 -208 l 611 -7 q 532 125 536 19 l 524 347 q 492 424 521 396 q 406 451 464 451 l 308 451 l 229 0 l 90 0 l 261 972 l 400 972 l 325 549 l 408 549 q 511 576 469 549 q 569 653 553 604 l 639 847 q 706 949 661 911 q 813 986 751 986 z "},"Ҝ":{"ha":854,"x_min":90,"x_max":935,"o":"m 935 972 l 906 882 l 899 882 q 890 885 899 882 q 882 887 888 885 q 872 889 876 889 q 806 826 828 889 l 736 632 q 642 528 711 561 q 575 507 613 514 q 633 482 608 499 q 697 368 694 440 l 707 146 q 751 83 710 83 q 779 90 767 83 l 786 90 l 785 0 q 699 -14 751 -14 q 608 23 640 -14 q 574 125 576 60 l 564 347 q 482 449 557 433 l 454 292 l 392 292 l 419 451 l 308 451 l 229 0 l 90 0 l 261 972 l 400 972 l 326 549 l 436 549 l 460 681 l 522 681 l 500 554 q 611 653 582 572 l 681 847 q 748 949 703 911 q 854 986 793 986 q 915 979 899 986 l 935 972 z "},"Ҡ":{"ha":965,"x_min":133,"x_max":1046,"o":"m 965 986 q 1008 983 990 986 q 1046 972 1025 981 l 1015 882 l 1008 882 q 982 889 997 889 q 915 826 939 889 l 847 632 q 751 528 821 561 q 686 507 721 514 q 744 482 719 499 q 807 368 801 440 l 817 146 q 861 83 821 83 q 890 90 876 83 l 897 90 l 896 0 q 810 -14 860 -14 q 719 24 751 -14 q 685 125 688 61 l 676 347 q 645 424 674 396 q 558 451 617 451 l 461 451 l 382 0 l 243 0 l 397 875 l 133 875 l 150 972 l 553 972 l 478 549 l 561 549 q 664 576 622 549 q 722 653 706 604 l 792 847 q 859 949 814 911 q 965 986 904 986 z "},"Ң":{"ha":875,"x_min":90,"x_max":886,"o":"m 886 972 l 732 97 l 822 97 l 769 -208 l 658 -208 l 674 0 l 576 0 l 593 97 l 654 444 l 307 444 l 229 0 l 90 0 l 261 972 l 400 972 l 324 542 l 671 542 l 747 972 l 886 972 z "},"Ԥ":{"ha":875,"x_min":90,"x_max":886,"o":"m 886 972 l 732 97 l 822 97 l 769 -208 l 658 -208 l 674 0 l 576 0 l 593 97 l 731 875 l 383 875 l 229 0 l 90 0 l 261 972 l 886 972 z "},"Ҫ":{"ha":715,"x_min":110,"x_max":792,"o":"m 735 947 q 792 910 769 929 l 728 826 l 714 826 q 672 857 697 840 q 558 889 617 889 q 265 486 339 889 q 247 317 247 392 q 431 83 247 83 q 556 114 492 83 q 608 146 592 133 l 622 146 l 656 63 q 585 24 626 42 q 453 -11 526 -3 l 418 -208 l 307 -208 l 322 -7 q 110 308 110 31 q 126 486 110 386 q 284 865 171 744 q 563 986 397 986 q 735 947 663 986 z "},"Ү":{"ha":736,"x_min":136,"x_max":872,"o":"m 319 319 l 136 972 l 282 972 l 401 549 q 411 494 410 514 q 413 465 413 485 l 418 465 l 429 494 q 457 549 439 518 l 726 972 l 872 972 l 458 319 l 403 0 l 264 0 l 319 319 z "},"Ұ":{"ha":736,"x_min":136,"x_max":872,"o":"m 468 335 l 585 335 l 568 238 l 444 238 l 403 0 l 264 0 l 306 238 l 179 238 l 196 335 l 315 335 l 136 972 l 282 972 l 401 549 q 411 494 410 514 q 413 465 413 485 l 418 465 l 429 494 q 457 549 439 518 l 726 972 l 872 972 l 468 335 z "},"Ҷ":{"ha":833,"x_min":154,"x_max":844,"o":"m 690 97 l 781 97 l 728 -208 l 617 -208 l 632 0 l 535 0 l 551 97 l 601 382 q 570 376 585 378 q 543 371 556 374 q 403 361 478 361 q 219 419 285 361 q 154 575 154 476 q 160 632 154 606 l 219 972 l 358 972 l 299 632 q 296 594 296 619 q 338 494 296 531 q 456 458 379 458 q 571 468 519 458 l 618 479 l 706 972 l 844 972 l 690 97 z "},"Ҹ":{"ha":833,"x_min":154,"x_max":844,"o":"m 844 972 l 674 0 l 535 0 l 601 382 q 570 376 585 378 q 543 371 556 374 q 444 363 501 364 l 419 215 l 357 215 l 382 361 q 214 424 274 367 q 154 575 154 481 q 160 632 154 606 l 219 972 l 358 972 l 299 632 q 296 594 296 619 q 323 510 296 544 q 400 464 350 476 l 425 604 l 488 604 l 463 458 q 571 468 522 458 l 618 479 l 706 972 l 844 972 z "},"Һ":{"ha":833,"x_min":38,"x_max":728,"o":"m 281 590 q 312 597 297 594 q 339 601 326 599 q 479 611 404 611 q 663 553 597 611 q 728 397 728 496 q 722 340 728 367 l 663 0 l 524 0 l 583 340 q 586 378 586 353 q 544 478 586 442 q 426 514 503 514 q 311 504 363 514 l 264 493 l 176 0 l 38 0 l 208 972 l 347 972 l 281 590 z "},"Ӏ":{"ha":389,"x_min":90,"x_max":400,"o":"m 90 0 l 261 972 l 400 972 l 229 0 l 90 0 z "},"Ӂ":{"ha":1194,"x_min":0,"x_max":1275,"o":"m 81 -14 q 19 -7 43 -14 q 0 0 7 -6 l 29 90 l 36 90 l 44 86 q 63 83 56 83 q 129 146 104 83 l 217 368 q 319 482 246 440 q 388 507 350 499 q 329 528 354 514 q 271 632 271 561 l 269 826 q 259 874 271 858 q 225 889 247 889 q 206 885 222 889 l 196 882 l 189 882 l 192 972 l 214 979 q 278 986 239 986 q 378 949 344 986 q 413 847 413 911 l 413 653 q 441 576 413 604 q 526 549 469 549 l 589 549 l 664 972 l 803 972 l 728 549 l 790 549 q 885 576 847 549 q 940 653 924 604 l 1010 847 q 1082 949 1035 913 q 1194 986 1129 986 q 1256 979 1231 986 l 1275 972 l 1244 882 l 1238 882 l 1229 885 q 1221 887 1226 885 q 1211 889 1215 889 q 1144 826 1168 889 l 1076 632 q 981 528 1050 561 q 915 507 950 514 q 974 482 949 499 q 1036 368 1031 440 l 1046 146 q 1090 83 1050 83 q 1110 86 1096 83 l 1119 90 l 1126 90 l 1125 0 q 1103 -7 1111 -6 q 1039 -14 1075 -14 q 940 23 974 -14 q 903 125 906 60 l 894 347 q 865 424 892 396 q 788 451 839 451 l 711 451 l 632 0 l 493 0 l 572 451 l 496 451 q 353 347 397 451 l 264 125 q 192 23 239 60 q 81 -14 146 -14 m 733 1042 q 599 1078 644 1042 q 553 1181 553 1115 q 557 1222 553 1200 l 682 1222 q 679 1188 679 1210 q 696 1140 679 1154 q 747 1125 713 1125 q 815 1148 790 1125 q 849 1222 839 1171 l 974 1222 q 896 1090 957 1138 q 733 1042 835 1042 z "},"Ӌ":{"ha":833,"x_min":154,"x_max":844,"o":"m 844 972 l 674 0 l 576 0 l 519 -208 l 408 -208 l 461 97 l 551 97 l 601 382 q 570 376 585 378 q 543 371 556 374 q 403 361 478 361 q 219 419 285 361 q 154 575 154 476 q 160 632 154 606 l 219 972 l 358 972 l 299 632 q 296 594 296 619 q 338 494 296 531 q 456 458 379 458 q 571 468 519 458 l 618 479 l 706 972 l 844 972 z "},"Ӑ":{"ha":792,"x_min":-14,"x_max":758,"o":"m -14 0 l 442 972 l 622 972 l 736 0 l 597 0 l 564 250 l 244 250 l 125 0 l -14 0 m 554 347 l 510 729 q 507 767 507 746 q 507 794 507 789 q 508 826 507 817 l 503 826 q 493 793 497 804 q 468 729 481 757 l 290 347 l 554 347 m 518 1042 q 383 1078 429 1042 q 338 1181 338 1115 q 342 1222 338 1200 l 467 1222 q 464 1188 464 1210 q 481 1140 464 1154 q 532 1125 497 1125 q 599 1148 575 1125 q 633 1222 624 1171 l 758 1222 q 681 1090 742 1138 q 518 1042 619 1042 z "},"Ӓ":{"ha":792,"x_min":-14,"x_max":749,"o":"m -14 0 l 442 972 l 622 972 l 736 0 l 597 0 l 564 250 l 244 250 l 125 0 l -14 0 m 554 347 l 510 729 q 507 767 507 746 q 507 794 507 789 q 508 826 507 817 l 503 826 q 493 793 497 804 q 468 729 481 757 l 290 347 l 554 347 m 414 1063 q 367 1078 385 1063 q 350 1122 350 1094 q 351 1139 350 1133 q 383 1194 357 1172 q 442 1215 408 1215 q 488 1198 471 1215 q 506 1153 506 1181 q 504 1139 506 1144 q 472 1084 497 1106 q 414 1063 447 1063 m 657 1063 q 610 1078 628 1063 q 593 1122 593 1094 q 594 1139 593 1133 q 626 1194 600 1172 q 685 1215 651 1215 q 731 1198 714 1215 q 749 1153 749 1181 q 747 1139 749 1144 q 715 1084 740 1106 q 657 1063 690 1063 z "},"Ӗ":{"ha":708,"x_min":90,"x_max":803,"o":"m 90 0 l 261 972 l 803 972 l 786 875 l 383 875 l 326 556 l 646 556 l 629 458 l 310 458 l 246 97 l 649 97 l 632 0 l 90 0 m 546 1042 q 411 1078 457 1042 q 365 1181 365 1115 q 369 1222 365 1200 l 494 1222 q 492 1188 492 1210 q 508 1140 492 1154 q 560 1125 525 1125 q 627 1148 603 1125 q 661 1222 651 1171 l 786 1222 q 708 1090 769 1138 q 546 1042 647 1042 z "},"Ә":{"ha":822,"x_min":106,"x_max":813,"o":"m 544 986 q 745 913 678 986 q 813 674 813 839 q 793 472 813 579 q 644 109 753 232 q 378 -14 535 -14 q 177 66 249 -14 q 106 304 106 146 q 124 474 106 383 l 129 503 l 175 542 l 665 542 q 678 685 678 624 q 642 838 678 788 q 531 889 606 889 q 406 870 463 889 q 274 801 349 851 l 254 801 l 225 865 q 382 957 304 928 q 544 986 460 986 m 396 85 q 647 444 576 85 l 254 444 q 240 297 240 365 q 396 85 240 85 z "},"Ӝ":{"ha":1194,"x_min":0,"x_max":1275,"o":"m 81 -14 q 19 -7 43 -14 q 0 0 7 -6 l 29 90 l 36 90 l 44 86 q 63 83 56 83 q 129 146 104 83 l 217 368 q 319 482 246 440 q 388 507 350 499 q 329 528 354 514 q 271 632 271 561 l 269 826 q 259 874 271 858 q 225 889 247 889 q 206 885 222 889 l 196 882 l 189 882 l 192 972 l 214 979 q 278 986 239 986 q 378 949 344 986 q 413 847 413 911 l 413 653 q 441 576 413 604 q 526 549 469 549 l 589 549 l 664 972 l 803 972 l 728 549 l 790 549 q 885 576 847 549 q 940 653 924 604 l 1010 847 q 1082 949 1035 913 q 1194 986 1129 986 q 1256 979 1231 986 l 1275 972 l 1244 882 l 1238 882 l 1229 885 q 1221 887 1226 885 q 1211 889 1215 889 q 1144 826 1168 889 l 1076 632 q 981 528 1050 561 q 915 507 950 514 q 974 482 949 499 q 1036 368 1031 440 l 1046 146 q 1090 83 1050 83 q 1110 86 1096 83 l 1119 90 l 1126 90 l 1125 0 q 1103 -7 1111 -6 q 1039 -14 1075 -14 q 940 23 974 -14 q 903 125 906 60 l 894 347 q 865 424 892 396 q 788 451 839 451 l 711 451 l 632 0 l 493 0 l 572 451 l 496 451 q 353 347 397 451 l 264 125 q 192 23 239 60 q 81 -14 146 -14 m 629 1063 q 583 1078 600 1063 q 565 1122 565 1094 q 567 1139 565 1133 q 598 1194 572 1172 q 657 1215 624 1215 q 703 1198 686 1215 q 721 1153 721 1181 q 719 1139 721 1144 q 688 1084 713 1106 q 629 1063 663 1063 m 872 1063 q 826 1078 843 1063 q 808 1122 808 1094 q 810 1139 808 1133 q 841 1194 815 1172 q 900 1215 867 1215 q 947 1198 929 1215 q 964 1153 964 1181 q 963 1139 964 1144 q 931 1084 956 1106 q 872 1063 906 1063 z "},"Ӟ":{"ha":722,"x_min":3,"x_max":731,"o":"m 261 -14 q 64 24 142 -14 q 3 63 25 42 l 67 146 l 81 146 q 125 114 99 129 q 264 83 189 83 q 526 271 493 83 q 531 317 531 296 q 488 422 531 385 q 358 458 444 458 l 233 458 l 250 556 l 375 556 q 528 613 468 556 q 588 757 588 669 q 544 853 588 818 q 419 889 501 889 q 282 857 351 889 q 228 826 249 842 l 214 826 l 181 910 q 253 947 213 932 q 451 986 343 986 q 658 929 586 986 q 731 781 731 872 q 726 736 731 760 q 608 557 706 624 q 514 514 565 528 q 603 468 568 499 q 668 315 668 408 q 663 257 668 285 q 540 59 640 132 q 261 -14 439 -14 m 338 1063 q 291 1078 308 1063 q 274 1122 274 1094 q 275 1139 274 1133 q 306 1194 281 1172 q 365 1215 332 1215 q 412 1198 394 1215 q 429 1153 429 1181 q 428 1139 429 1144 q 396 1084 421 1106 q 338 1063 371 1063 m 581 1063 q 534 1078 551 1063 q 517 1122 517 1094 q 518 1139 517 1133 q 549 1194 524 1172 q 608 1215 575 1215 q 655 1198 638 1215 q 672 1153 672 1181 q 671 1139 672 1144 q 639 1084 664 1106 q 581 1063 614 1063 z "},"Ӣ":{"ha":875,"x_min":90,"x_max":900,"o":"m 261 972 l 400 972 l 285 326 l 278 294 q 258 208 271 247 l 264 208 q 326 326 301 289 l 761 972 l 900 972 l 729 0 l 590 0 l 704 646 q 731 764 714 703 l 725 764 q 663 646 683 676 l 229 0 l 90 0 l 261 972 m 422 1097 l 439 1194 l 814 1194 l 797 1097 l 422 1097 z "},"Ӥ":{"ha":875,"x_min":90,"x_max":900,"o":"m 261 972 l 400 972 l 285 326 l 278 294 q 258 208 271 247 l 264 208 q 326 326 301 289 l 761 972 l 900 972 l 729 0 l 590 0 l 704 646 q 731 764 714 703 l 725 764 q 663 646 683 676 l 229 0 l 90 0 l 261 972 m 482 1063 q 435 1078 453 1063 q 418 1122 418 1094 q 419 1139 418 1133 q 451 1194 425 1172 q 510 1215 476 1215 q 556 1198 539 1215 q 574 1153 574 1181 q 572 1139 574 1144 q 540 1084 565 1106 q 482 1063 515 1063 m 725 1063 q 678 1078 696 1063 q 661 1122 661 1094 q 663 1139 661 1133 q 694 1194 668 1172 q 753 1215 719 1215 q 799 1198 782 1215 q 817 1153 817 1181 q 815 1139 817 1144 q 783 1084 808 1106 q 725 1063 758 1063 z "},"Ӧ":{"ha":833,"x_min":110,"x_max":824,"o":"m 379 -14 q 181 64 251 -14 q 110 307 110 142 q 126 486 110 386 q 283 865 171 744 q 556 986 396 986 q 753 909 683 986 q 824 667 824 832 q 807 486 824 589 q 651 107 763 228 q 379 -14 539 -14 m 396 83 q 556 178 483 83 q 668 486 629 274 q 686 658 686 582 q 644 833 686 778 q 538 889 603 889 q 376 794 449 889 q 265 486 304 700 q 247 311 247 388 q 288 138 247 192 q 396 83 329 83 m 449 1063 q 402 1078 419 1063 q 385 1122 385 1094 q 386 1139 385 1133 q 417 1194 392 1172 q 476 1215 443 1215 q 523 1198 506 1215 q 540 1153 540 1181 q 539 1139 540 1144 q 507 1084 532 1106 q 449 1063 482 1063 m 692 1063 q 645 1078 663 1063 q 628 1122 628 1094 q 629 1139 628 1133 q 660 1194 635 1172 q 719 1215 686 1215 q 766 1198 749 1215 q 783 1153 783 1181 q 782 1139 783 1144 q 750 1084 775 1106 q 692 1063 725 1063 z "},"Ө":{"ha":833,"x_min":110,"x_max":824,"o":"m 379 -14 q 181 64 251 -14 q 110 307 110 142 q 126 486 110 386 q 283 865 171 744 q 556 986 396 986 q 753 909 683 986 q 824 667 824 832 q 807 486 824 589 q 651 107 763 228 q 379 -14 539 -14 m 396 83 q 556 178 483 83 q 668 486 629 274 q 686 658 686 582 q 644 833 686 778 q 538 889 603 889 q 376 794 449 889 q 265 486 304 700 q 247 311 247 388 q 288 138 247 192 q 396 83 329 83 m 267 438 l 283 535 l 672 535 l 656 438 l 267 438 z "},"Ӯ":{"ha":744,"x_min":53,"x_max":867,"o":"m 192 -21 q 89 0 133 -21 q 53 21 67 8 l 104 111 l 118 111 q 138 93 128 99 q 194 76 158 76 q 272 103 235 76 q 331 174 308 131 l 372 257 l 310 257 l 150 972 l 296 972 l 410 465 q 418 400 415 440 l 421 361 l 426 361 l 443 400 l 454 426 l 472 465 l 728 972 l 867 972 l 469 174 q 353 35 429 92 q 192 -21 276 -21 m 331 1097 l 347 1194 l 722 1194 l 706 1097 l 331 1097 z "},"Ӱ":{"ha":744,"x_min":53,"x_max":867,"o":"m 192 -21 q 89 0 133 -21 q 53 21 67 8 l 104 111 l 118 111 q 138 93 128 99 q 194 76 158 76 q 272 103 235 76 q 331 174 308 131 l 372 257 l 310 257 l 150 972 l 296 972 l 410 465 q 418 400 415 440 l 421 361 l 426 361 l 443 400 l 454 426 l 472 465 l 728 972 l 867 972 l 469 174 q 353 35 429 92 q 192 -21 276 -21 m 390 1063 q 344 1078 361 1063 q 326 1122 326 1094 q 328 1139 326 1133 q 359 1194 333 1172 q 418 1215 385 1215 q 465 1198 447 1215 q 482 1153 482 1181 q 481 1139 482 1144 q 449 1084 474 1106 q 390 1063 424 1063 m 633 1063 q 587 1078 604 1063 q 569 1122 569 1094 q 571 1139 569 1133 q 602 1194 576 1172 q 661 1215 628 1215 q 708 1198 690 1215 q 725 1153 725 1181 q 724 1139 725 1144 q 692 1084 717 1106 q 633 1063 667 1063 z "},"Ӳ":{"ha":744,"x_min":53,"x_max":867,"o":"m 192 -21 q 89 0 133 -21 q 53 21 67 8 l 104 111 l 118 111 q 138 93 128 99 q 194 76 158 76 q 272 103 235 76 q 331 174 308 131 l 372 257 l 310 257 l 150 972 l 296 972 l 410 465 q 418 400 415 440 l 421 361 l 426 361 l 443 400 l 454 426 l 472 465 l 728 972 l 867 972 l 469 174 q 353 35 429 92 q 192 -21 276 -21 m 372 1042 l 472 1250 l 604 1250 l 449 1042 l 372 1042 m 560 1042 l 660 1250 l 792 1250 l 636 1042 l 560 1042 z "},"Ӵ":{"ha":833,"x_min":154,"x_max":844,"o":"m 601 382 q 570 376 585 378 q 543 371 556 374 q 403 361 478 361 q 219 419 285 361 q 154 575 154 476 q 160 632 154 606 l 219 972 l 358 972 l 299 632 q 296 594 296 619 q 338 494 296 531 q 456 458 379 458 q 571 468 519 458 l 618 479 l 706 972 l 844 972 l 674 0 l 535 0 l 601 382 m 421 1063 q 374 1078 392 1063 q 357 1122 357 1094 q 358 1139 357 1133 q 390 1194 364 1172 q 449 1215 415 1215 q 495 1198 478 1215 q 513 1153 513 1181 q 511 1139 513 1144 q 479 1084 504 1106 q 421 1063 454 1063 m 664 1063 q 617 1078 635 1063 q 600 1122 600 1094 q 601 1139 600 1133 q 633 1194 607 1172 q 692 1215 658 1215 q 738 1198 721 1215 q 756 1153 756 1181 q 754 1139 756 1144 q 722 1084 747 1106 q 664 1063 697 1063 z "},"Ӷ":{"ha":681,"x_min":90,"x_max":803,"o":"m 261 972 l 803 972 l 786 875 l 383 875 l 246 97 l 336 97 l 283 -208 l 172 -208 l 188 0 l 90 0 l 107 97 l 261 972 z "},"Ӹ":{"ha":1111,"x_min":90,"x_max":1122,"o":"m 261 972 l 400 972 l 336 611 l 447 611 q 667 552 593 611 q 740 381 740 493 q 733 306 740 350 q 610 78 708 157 q 340 0 511 0 l 90 0 l 261 972 m 813 0 l 983 972 l 1122 972 l 951 0 l 813 0 m 357 97 q 594 306 560 97 q 600 367 600 335 q 431 514 600 514 l 319 514 l 246 97 l 357 97 m 588 1063 q 541 1078 558 1063 q 524 1122 524 1094 q 525 1139 524 1133 q 556 1194 531 1172 q 615 1215 582 1215 q 662 1198 644 1215 q 679 1153 679 1181 q 678 1139 679 1144 q 646 1084 671 1106 q 588 1063 621 1063 m 831 1063 q 784 1078 801 1063 q 767 1122 767 1094 q 768 1139 767 1133 q 799 1194 774 1172 q 858 1215 825 1215 q 905 1198 888 1215 q 922 1153 922 1181 q 921 1139 922 1144 q 889 1084 914 1106 q 831 1063 864 1063 z "},"Ԛ":{"ha":833,"x_min":110,"x_max":824,"o":"m 489 -215 q 355 -172 403 -215 q 307 -53 307 -129 q 311 -7 307 -32 q 163 88 215 10 q 110 308 110 165 q 126 486 110 386 q 283 865 171 744 q 556 986 396 986 q 753 909 683 986 q 824 667 824 832 q 807 486 824 589 q 673 136 767 258 q 450 -7 579 14 q 446 -43 446 -28 q 521 -118 446 -118 q 556 -111 538 -118 l 571 -104 l 585 -104 l 597 -194 l 564 -206 q 489 -215 528 -215 m 396 83 q 556 178 483 83 q 668 486 629 274 q 686 658 686 582 q 644 833 686 778 q 538 889 603 889 q 376 794 449 889 q 265 486 304 700 q 247 311 247 388 q 288 138 247 192 q 396 83 329 83 z "},"Ԝ":{"ha":1194,"x_min":157,"x_max":1310,"o":"m 157 972 l 296 972 l 336 292 q 333 221 336 265 l 329 181 l 335 181 l 346 221 q 371 292 363 274 l 650 972 l 817 972 l 857 292 q 854 221 857 265 l 851 181 l 857 181 l 868 221 q 878 253 871 229 q 892 292 885 276 l 1171 972 l 1310 972 l 910 0 l 743 0 l 703 681 l 701 717 l 703 751 q 704 792 703 778 l 699 792 l 686 751 q 661 681 669 699 l 382 0 l 215 0 l 157 972 z "},"а":{"ha":708,"x_min":58,"x_max":658,"o":"m 254 -14 q 109 30 160 -14 q 58 153 58 74 q 63 201 58 176 q 162 355 81 300 q 399 410 243 410 l 510 410 l 515 444 q 521 493 521 481 q 489 581 521 551 q 399 611 457 611 q 285 579 351 611 q 235 549 254 563 l 221 549 l 188 632 q 256 669 221 654 q 429 708 336 708 q 597 649 535 708 q 658 496 658 590 q 654 444 658 472 l 576 0 l 479 0 l 479 83 l 472 83 q 415 35 449 56 q 254 -14 346 -14 m 307 90 q 362 101 336 90 q 418 132 388 113 q 468 174 443 150 l 492 313 l 381 313 q 244 274 290 313 q 199 175 199 235 q 226 112 199 133 q 307 90 253 90 z "},"б":{"ha":729,"x_min":89,"x_max":772,"o":"m 331 -14 q 153 50 218 -14 q 89 232 89 114 q 97 319 89 274 l 121 451 q 207 729 151 626 q 349 883 263 832 q 571 958 436 935 l 772 993 l 772 875 l 571 840 q 358 748 429 815 q 261 542 286 681 q 359 624 303 596 q 482 653 415 653 q 631 589 574 653 q 689 408 689 525 q 681 319 689 368 q 558 73 653 160 q 331 -14 464 -14 m 347 83 q 467 142 414 83 q 542 319 521 201 q 549 394 549 365 q 516 510 549 472 q 429 549 483 549 q 309 491 363 549 q 236 319 256 433 q 228 239 228 274 q 260 122 228 161 q 347 83 293 83 z "},"в":{"ha":708,"x_min":69,"x_max":676,"o":"m 192 694 l 456 694 q 621 651 565 694 q 676 540 676 608 q 650 450 676 488 q 585 390 624 413 q 514 361 551 372 q 589 332 557 353 q 647 224 647 292 q 568 63 647 126 q 333 0 489 0 l 69 0 l 192 694 m 404 403 q 497 436 461 403 q 533 518 533 469 q 508 576 533 554 q 438 597 483 597 l 313 597 l 279 403 l 404 403 m 350 97 q 460 125 421 97 q 507 201 499 153 q 508 224 508 208 q 386 306 508 306 l 261 306 l 225 97 l 350 97 z "},"г":{"ha":576,"x_min":69,"x_max":650,"o":"m 69 0 l 192 694 l 650 694 l 632 597 l 313 597 l 208 0 l 69 0 z "},"ѓ":{"ha":576,"x_min":69,"x_max":650,"o":"m 69 0 l 192 694 l 650 694 l 632 597 l 313 597 l 208 0 l 69 0 m 379 764 l 479 972 l 632 972 l 469 764 l 379 764 z "},"ґ":{"ha":576,"x_min":69,"x_max":672,"o":"m 69 0 l 192 694 l 525 694 l 561 819 l 672 819 l 632 597 l 313 597 l 208 0 l 69 0 z "},"д":{"ha":778,"x_min":-61,"x_max":726,"o":"m -11 97 l 58 97 q 104 151 82 121 q 171 306 150 218 l 261 694 l 726 694 l 621 97 l 711 97 l 660 -194 l 549 -194 l 563 0 l 111 0 l 56 -194 l -61 -194 l -11 97 m 482 97 l 569 597 l 375 597 l 310 306 q 243 151 289 218 q 197 97 221 121 l 482 97 z "},"е":{"ha":701,"x_min":86,"x_max":675,"o":"m 338 -14 q 151 50 217 -14 q 86 240 86 114 q 96 347 86 293 q 219 616 125 524 q 443 708 313 708 q 613 643 551 708 q 675 451 675 578 q 665 347 675 413 l 661 326 l 628 299 l 225 299 q 218 235 218 260 q 258 122 218 160 q 368 83 297 83 q 481 114 417 83 q 532 146 511 131 l 546 146 l 579 63 q 510 24 551 42 q 338 -14 432 -14 m 535 396 q 542 469 542 442 q 511 576 542 542 q 426 611 481 611 q 311 558 360 611 q 243 396 263 504 l 535 396 z "},"ѐ":{"ha":701,"x_min":86,"x_max":675,"o":"m 338 -14 q 151 50 217 -14 q 86 240 86 114 q 96 347 86 293 q 219 616 125 524 q 443 708 313 708 q 613 643 551 708 q 675 451 675 578 q 665 347 675 413 l 661 326 l 628 299 l 225 299 q 218 235 218 260 q 258 122 218 160 q 368 83 297 83 q 481 114 417 83 q 532 146 511 131 l 546 146 l 579 63 q 510 24 551 42 q 338 -14 432 -14 m 535 396 q 542 469 542 442 q 511 576 542 542 q 426 611 481 611 q 311 558 360 611 q 243 396 263 504 l 535 396 m 414 764 l 326 972 l 479 972 l 504 764 l 414 764 z "},"ё":{"ha":701,"x_min":86,"x_max":683,"o":"m 338 -14 q 151 50 217 -14 q 86 240 86 114 q 96 347 86 293 q 219 616 125 524 q 443 708 313 708 q 613 643 551 708 q 675 451 675 578 q 665 347 675 413 l 661 326 l 628 299 l 225 299 q 218 235 218 260 q 258 122 218 160 q 368 83 297 83 q 481 114 417 83 q 532 146 511 131 l 546 146 l 579 63 q 510 24 551 42 q 338 -14 432 -14 m 535 396 q 542 469 542 442 q 511 576 542 542 q 426 611 481 611 q 311 558 360 611 q 243 396 263 504 l 535 396 m 349 785 q 302 801 319 785 q 285 844 285 817 q 286 861 285 856 q 317 916 292 894 q 376 938 343 938 q 423 920 406 938 q 440 875 440 903 q 439 861 440 867 q 407 806 432 828 q 349 785 382 785 m 592 785 q 545 801 563 785 q 528 844 528 817 q 529 861 528 856 q 560 916 535 894 q 619 938 586 938 q 666 920 649 938 q 683 875 683 903 q 682 861 683 867 q 650 806 675 828 q 592 785 625 785 z "},"ж":{"ha":1028,"x_min":0,"x_max":1060,"o":"m 81 -14 q 22 -7 47 -14 q 0 0 14 -6 l 29 90 l 36 90 l 44 86 q 63 83 56 83 q 111 125 94 83 l 169 257 q 216 317 186 294 q 243 338 246 339 q 313 361 240 338 q 281 369 303 361 q 240 397 260 376 q 218 451 219 417 l 211 569 q 176 611 207 611 q 157 607 174 611 l 147 604 l 140 604 l 143 694 l 167 701 q 228 708 192 708 q 315 679 286 708 q 346 590 343 650 l 353 472 q 374 420 356 438 q 432 403 393 403 l 481 403 l 532 694 l 671 694 l 619 403 l 668 403 q 769 472 743 403 l 818 590 q 881 679 843 650 q 978 708 919 708 q 1038 701 1013 708 q 1060 694 1057 696 l 1029 604 l 1022 604 l 1014 607 q 1006 609 1011 607 q 996 611 1000 611 q 947 569 964 611 l 899 451 q 857 397 883 417 q 806 369 831 376 q 771 361 782 361 q 804 351 779 361 q 852 317 829 340 q 878 257 875 294 l 889 125 q 924 83 893 83 q 943 86 929 83 l 953 90 l 960 90 l 958 0 q 933 -7 946 -6 q 872 -14 906 -14 q 787 16 815 -14 q 754 104 758 46 l 742 236 q 664 306 735 306 l 601 306 l 549 0 l 410 0 l 463 306 l 400 306 q 297 236 331 306 l 240 104 q 176 16 214 46 q 81 -14 138 -14 z "},"з":{"ha":625,"x_min":-4,"x_max":608,"o":"m 240 -14 q 56 24 128 -14 q -4 63 17 42 l 60 146 l 74 146 q 117 114 90 129 q 243 83 172 83 q 371 111 329 83 q 422 194 413 139 q 425 221 425 214 q 303 306 425 306 l 185 306 l 203 403 l 321 403 q 419 431 382 403 q 464 507 456 458 q 465 529 465 514 q 336 611 465 611 q 214 579 281 611 q 165 549 189 565 l 151 549 l 118 632 q 185 669 147 653 q 367 708 265 708 q 548 665 488 708 q 608 551 608 622 q 510 394 608 453 q 431 361 475 372 q 506 331 475 353 q 563 219 563 290 q 481 51 563 115 q 240 -14 400 -14 z "},"и":{"ha":764,"x_min":69,"x_max":747,"o":"m 192 694 l 324 694 l 250 285 l 236 221 l 228 188 l 233 188 q 242 207 238 199 q 250 221 247 215 q 292 285 269 257 l 615 694 l 747 694 l 625 0 l 493 0 l 567 425 l 581 489 l 589 522 l 583 522 q 567 489 578 506 q 525 425 543 450 l 201 0 l 69 0 l 192 694 z "},"й":{"ha":764,"x_min":69,"x_max":747,"o":"m 192 694 l 324 694 l 250 285 l 236 221 l 228 188 l 233 188 q 242 207 238 199 q 250 221 247 215 q 292 285 269 257 l 615 694 l 747 694 l 625 0 l 493 0 l 567 425 l 581 489 l 589 522 l 583 522 q 567 489 578 506 q 525 425 543 450 l 201 0 l 69 0 l 192 694 m 453 764 q 318 801 364 764 q 272 903 272 838 q 276 944 272 922 l 401 944 q 399 913 399 919 q 416 863 399 878 q 468 847 433 847 q 535 870 511 847 q 568 944 560 893 l 693 944 q 615 812 676 860 q 453 764 554 764 z "},"ѝ":{"ha":764,"x_min":69,"x_max":747,"o":"m 192 694 l 324 694 l 250 285 l 236 221 l 228 188 l 233 188 q 242 207 238 199 q 250 221 247 215 q 292 285 269 257 l 615 694 l 747 694 l 625 0 l 493 0 l 567 425 l 581 489 l 589 522 l 583 522 q 567 489 578 506 q 525 425 543 450 l 201 0 l 69 0 l 192 694 m 414 764 l 326 972 l 479 972 l 504 764 l 414 764 z "},"к":{"ha":708,"x_min":69,"x_max":740,"o":"m 553 -14 q 467 16 496 -14 q 435 104 439 46 l 422 236 q 344 306 415 306 l 261 306 l 208 0 l 69 0 l 192 694 l 331 694 l 279 403 l 349 403 q 450 472 424 403 l 499 590 q 562 679 524 650 q 658 708 600 708 q 718 701 693 708 q 740 694 736 696 l 710 604 l 703 604 l 694 607 q 686 609 692 607 q 676 611 681 611 q 628 569 644 611 l 579 451 q 503 375 557 400 q 451 361 474 363 q 503 343 482 357 q 558 257 553 314 l 569 125 q 604 83 574 83 q 624 86 610 83 l 633 90 l 640 90 l 639 0 q 614 -7 626 -6 q 553 -14 586 -14 z "},"ќ":{"ha":708,"x_min":69,"x_max":740,"o":"m 553 -14 q 467 16 496 -14 q 435 104 439 46 l 422 236 q 344 306 415 306 l 261 306 l 208 0 l 69 0 l 192 694 l 331 694 l 279 403 l 349 403 q 450 472 424 403 l 499 590 q 562 679 524 650 q 658 708 600 708 q 718 701 693 708 q 740 694 736 696 l 710 604 l 703 604 l 694 607 q 686 609 692 607 q 676 611 681 611 q 628 569 644 611 l 579 451 q 503 375 557 400 q 451 361 474 363 q 503 343 482 357 q 558 257 553 314 l 569 125 q 604 83 574 83 q 624 86 610 83 l 633 90 l 640 90 l 639 0 q 614 -7 626 -6 q 553 -14 586 -14 m 375 764 l 475 972 l 628 972 l 465 764 l 375 764 z "},"л":{"ha":750,"x_min":-21,"x_max":733,"o":"m 53 -14 q 0 -7 24 -14 q -21 0 -10 -6 l 1 90 l 15 90 l 24 86 q 42 83 35 83 q 94 114 71 83 q 136 222 118 144 l 247 694 l 733 694 l 611 0 l 472 0 l 576 597 l 361 597 l 275 222 q 53 -14 219 -14 z "},"м":{"ha":944,"x_min":69,"x_max":928,"o":"m 192 694 l 324 694 l 463 306 q 468 287 465 296 q 474 269 471 278 l 478 250 l 483 250 l 494 269 q 504 285 497 274 q 518 306 511 297 l 796 694 l 928 694 l 806 0 l 681 0 l 744 368 q 760 432 749 396 l 768 465 l 763 465 l 744 433 q 703 368 728 403 l 522 118 l 408 118 l 307 410 q 298 442 303 422 q 290 475 293 463 q 283 507 285 497 l 278 507 l 275 474 l 271 442 q 265 410 268 422 l 194 0 l 69 0 l 192 694 z "},"н":{"ha":764,"x_min":69,"x_max":747,"o":"m 69 0 l 192 694 l 331 694 l 279 403 l 557 403 l 608 694 l 747 694 l 625 0 l 486 0 l 539 306 l 261 306 l 208 0 l 69 0 z "},"о":{"ha":736,"x_min":86,"x_max":703,"o":"m 331 -14 q 150 50 214 -14 q 86 240 86 114 q 96 347 86 293 q 222 617 128 526 q 457 708 317 708 q 638 643 574 708 q 703 450 703 578 q 693 347 703 413 q 566 78 661 169 q 331 -14 471 -14 m 347 83 q 475 147 419 83 q 554 347 531 210 q 564 449 564 401 q 531 572 564 533 q 440 611 497 611 q 313 548 367 611 q 235 347 258 485 q 225 244 225 293 q 347 83 225 83 z "},"п":{"ha":764,"x_min":69,"x_max":747,"o":"m 69 0 l 192 694 l 747 694 l 625 0 l 486 0 l 590 597 l 313 597 l 208 0 l 69 0 z "},"р":{"ha":743,"x_min":19,"x_max":710,"o":"m 192 694 l 289 694 l 288 611 l 294 611 q 351 660 314 633 q 513 708 429 708 q 656 643 601 708 q 710 453 710 578 q 700 347 710 401 q 576 78 668 171 q 358 -14 483 -14 q 254 7 304 -14 q 213 28 232 15 l 167 -236 l 117 -278 l 19 -278 l 192 694 m 354 83 q 482 147 426 83 q 561 347 538 210 q 571 444 571 397 q 540 565 571 526 q 460 604 508 604 q 349 563 407 604 q 300 521 321 542 l 228 111 q 263 97 238 106 q 354 83 307 83 z "},"с":{"ha":632,"x_min":86,"x_max":667,"o":"m 338 -14 q 151 50 217 -14 q 86 240 86 114 q 96 347 86 293 q 222 617 128 525 q 450 708 315 708 q 610 669 540 708 q 667 632 643 651 l 603 549 l 589 549 q 549 579 569 565 q 500 603 524 594 q 447 611 476 611 q 314 549 369 611 q 235 347 258 486 q 225 246 225 293 q 261 122 225 160 q 368 83 297 83 q 481 114 417 83 q 532 146 511 131 l 546 146 l 579 63 q 510 24 551 42 q 338 -14 432 -14 z "},"т":{"ha":583,"x_min":83,"x_max":657,"o":"m 188 0 l 292 597 l 83 597 l 101 694 l 657 694 l 639 597 l 431 597 l 326 0 l 188 0 z "},"у":{"ha":660,"x_min":-31,"x_max":726,"o":"m 100 -292 q 3 -271 44 -292 q -31 -250 -17 -262 l 19 -160 l 33 -160 q 53 -178 43 -172 q 104 -194 74 -194 q 172 -167 140 -194 q 225 -97 204 -140 l 271 0 l 215 0 l 108 694 l 247 694 l 318 236 q 325 165 322 218 l 328 125 l 333 125 l 350 165 l 363 197 q 379 236 374 225 l 588 694 l 726 694 l 364 -97 q 256 -238 325 -185 q 100 -292 186 -292 z "},"ў":{"ha":660,"x_min":-31,"x_max":726,"o":"m 100 -292 q 3 -271 44 -292 q -31 -250 -17 -262 l 19 -160 l 33 -160 q 53 -178 43 -172 q 104 -194 74 -194 q 172 -167 140 -194 q 225 -97 204 -140 l 271 0 l 215 0 l 108 694 l 247 694 l 318 236 q 325 165 322 218 l 328 125 l 333 125 l 350 165 l 363 197 q 379 236 374 225 l 588 694 l 726 694 l 364 -97 q 256 -238 325 -185 q 100 -292 186 -292 m 418 764 q 283 801 329 764 q 238 903 238 838 q 242 944 238 922 l 367 944 q 364 913 364 919 q 381 863 364 878 q 433 847 399 847 q 501 870 476 847 q 533 944 525 893 l 658 944 q 581 812 642 860 q 418 764 519 764 z "},"ф":{"ha":944,"x_min":79,"x_max":917,"o":"m 365 -14 q 153 58 226 -10 q 79 251 79 126 q 89 347 79 299 q 224 611 119 519 q 492 708 328 703 l 532 931 l 581 972 l 678 972 l 631 708 q 844 637 771 704 q 917 440 917 569 q 908 347 917 397 q 773 83 876 175 q 504 -14 669 -8 l 457 -278 l 318 -278 l 365 -14 m 475 611 q 313 542 375 606 q 228 347 251 479 q 219 261 219 300 q 382 83 219 92 l 475 611 m 521 83 q 683 152 621 89 q 769 347 746 215 q 778 432 778 396 q 614 611 778 603 l 521 83 z "},"х":{"ha":639,"x_min":-14,"x_max":699,"o":"m 263 354 l 115 694 l 268 694 l 344 500 q 350 481 347 490 q 356 464 353 472 l 360 444 l 365 444 l 376 464 q 386 480 379 468 q 400 500 393 492 l 546 694 l 699 694 l 429 354 l 583 0 l 431 0 l 347 201 q 342 219 344 208 q 336 238 339 231 l 332 257 l 326 257 l 315 238 q 306 222 313 233 q 292 201 299 210 l 139 0 l -14 0 l 263 354 z "},"ч":{"ha":722,"x_min":119,"x_max":706,"o":"m 489 257 l 440 246 q 325 236 389 236 q 174 288 229 236 q 119 422 119 339 q 124 465 119 443 l 164 694 l 303 694 l 263 465 q 260 438 260 446 q 292 362 260 390 q 378 333 324 333 q 468 343 426 333 q 506 354 507 356 l 567 694 l 706 694 l 583 0 l 444 0 l 489 257 z "},"ц":{"ha":785,"x_min":69,"x_max":733,"o":"m 556 -194 l 569 0 l 69 0 l 192 694 l 331 694 l 225 97 l 489 97 l 594 694 l 733 694 l 628 97 l 718 97 l 667 -194 l 556 -194 z "},"ш":{"ha":1097,"x_min":69,"x_max":1081,"o":"m 69 0 l 192 694 l 331 694 l 225 97 l 461 97 l 567 694 l 706 694 l 600 97 l 836 97 l 942 694 l 1081 694 l 958 0 l 69 0 z "},"щ":{"ha":1132,"x_min":69,"x_max":1081,"o":"m 903 -194 l 917 0 l 69 0 l 192 694 l 331 694 l 225 97 l 461 97 l 567 694 l 706 694 l 600 97 l 836 97 l 942 694 l 1081 694 l 975 97 l 1065 97 l 1014 -194 l 903 -194 z "},"џ":{"ha":764,"x_min":69,"x_max":747,"o":"m 257 -194 l 278 0 l 69 0 l 192 694 l 331 694 l 225 97 l 503 97 l 608 694 l 747 694 l 625 0 l 417 0 l 368 -194 l 257 -194 z "},"ь":{"ha":681,"x_min":69,"x_max":656,"o":"m 192 694 l 331 694 l 289 458 l 414 458 q 656 282 656 458 q 651 229 656 257 q 333 0 610 0 l 69 0 l 192 694 m 350 97 q 462 129 424 97 q 513 229 500 161 q 517 267 517 250 q 488 338 517 315 q 396 361 458 361 l 271 361 l 225 97 l 350 97 z "},"ъ":{"ha":771,"x_min":83,"x_max":746,"o":"m 264 597 l 83 597 l 101 694 l 421 694 l 379 458 l 504 458 q 746 282 746 458 q 742 229 746 257 q 424 0 700 0 l 160 0 l 264 597 m 440 97 q 552 129 514 97 q 603 229 590 161 q 607 267 607 250 q 578 338 607 315 q 486 361 549 361 l 361 361 l 315 97 l 440 97 z "},"ы":{"ha":958,"x_min":69,"x_max":942,"o":"m 192 694 l 331 694 l 289 458 l 372 458 q 614 282 614 458 q 610 229 614 257 q 292 0 568 0 l 69 0 l 192 694 m 681 0 l 803 694 l 942 694 l 819 0 l 681 0 m 308 97 q 421 129 382 97 q 471 229 460 161 q 475 267 475 250 q 446 338 475 315 q 354 361 417 361 l 271 361 l 225 97 l 308 97 z "},"љ":{"ha":1056,"x_min":-21,"x_max":1031,"o":"m 53 -14 q 0 -7 24 -14 q -21 0 -10 -6 l 1 90 l 15 90 l 24 86 q 42 83 35 83 q 94 114 71 83 q 136 222 118 144 l 247 694 l 706 694 l 664 458 l 789 458 q 1031 282 1031 458 q 1026 229 1031 257 q 708 0 985 0 l 444 0 l 549 597 l 361 597 l 275 222 q 53 -14 219 -14 m 725 97 q 837 129 799 97 q 888 229 875 161 q 892 267 892 250 q 863 338 892 315 q 771 361 833 361 l 646 361 l 600 97 l 725 97 z "},"њ":{"ha":1069,"x_min":69,"x_max":1042,"o":"m 192 694 l 331 694 l 283 431 l 533 431 l 581 694 l 719 694 l 672 431 l 797 431 q 982 387 922 431 q 1042 263 1042 343 q 1038 215 1042 240 q 942 56 1019 113 q 722 0 864 0 l 458 0 l 517 333 l 267 333 l 208 0 l 69 0 l 192 694 m 739 97 q 849 126 811 97 q 899 215 888 156 q 901 247 901 226 q 781 333 901 333 l 656 333 l 614 97 l 739 97 z "},"ѕ":{"ha":639,"x_min":24,"x_max":646,"o":"m 268 -14 q 83 24 156 -14 q 24 63 44 42 l 88 146 l 101 146 q 144 114 118 129 q 271 83 200 83 q 447 181 431 83 q 449 196 449 186 q 414 255 449 233 q 307 301 379 276 q 207 342 246 322 q 141 393 168 361 q 114 474 114 425 q 117 507 114 485 q 208 654 133 600 q 415 708 283 708 q 588 669 515 708 q 646 632 624 653 l 582 549 l 568 549 q 526 579 551 563 q 413 611 471 611 q 305 586 343 611 q 258 521 267 561 q 257 506 257 515 q 291 447 257 468 q 397 400 325 426 q 499 358 461 376 q 565 306 538 339 q 592 225 592 274 q 589 194 592 217 q 492 41 571 96 q 268 -14 414 -14 z "},"є":{"ha":632,"x_min":86,"x_max":667,"o":"m 338 -14 q 151 50 217 -14 q 86 240 86 114 q 96 347 86 293 q 222 617 128 525 q 450 708 315 708 q 610 669 540 708 q 667 632 643 651 l 603 549 l 589 549 q 549 579 569 565 q 500 603 524 594 q 447 611 476 611 q 326 563 376 611 q 246 403 275 514 l 496 403 l 478 306 l 228 306 q 224 244 224 272 q 368 83 224 83 q 481 114 417 83 q 532 146 511 131 l 546 146 l 579 63 q 510 24 551 42 q 338 -14 432 -14 z "},"э":{"ha":632,"x_min":3,"x_max":599,"o":"m 219 -14 q 58 24 126 -14 q 3 63 25 40 l 67 146 l 81 146 q 119 114 96 129 q 222 83 172 83 q 359 137 303 83 q 440 306 415 190 l 190 306 l 208 403 l 458 403 q 460 444 460 418 q 329 611 460 611 q 215 579 282 611 q 165 549 185 563 l 151 549 l 118 632 q 186 669 150 654 q 360 708 267 708 q 535 643 472 708 q 599 450 599 578 q 589 347 599 413 q 460 78 557 169 q 219 -14 364 -14 z "},"і":{"ha":347,"x_min":69,"x_max":379,"o":"m 281 806 q 229 824 249 806 q 210 871 210 842 q 239 943 210 914 q 310 972 268 972 q 360 954 340 972 q 379 907 379 936 q 351 835 379 864 q 281 806 322 806 m 69 0 l 192 694 l 331 694 l 208 0 l 69 0 z "},"ї":{"ha":347,"x_min":69,"x_max":528,"o":"m 69 0 l 192 694 l 331 694 l 208 0 l 69 0 m 193 785 q 147 801 164 785 q 129 844 129 817 q 131 861 129 856 q 162 916 136 894 q 221 938 188 938 q 267 920 250 938 q 285 875 285 903 q 283 861 285 867 q 251 806 276 828 q 193 785 226 785 m 436 785 q 390 801 407 785 q 372 844 372 817 q 374 861 372 856 q 405 916 379 894 q 464 938 431 938 q 510 920 493 938 q 528 875 528 903 q 526 861 528 867 q 494 806 519 828 q 436 785 469 785 z "},"ј":{"ha":347,"x_min":-200,"x_max":379,"o":"m 281 806 q 229 824 249 806 q 210 871 210 842 q 239 943 210 914 q 310 972 268 972 q 360 954 340 972 q 379 907 379 936 q 351 835 379 864 q 281 806 322 806 m -69 -278 q -167 -257 -125 -278 q -200 -236 -186 -249 l -150 -146 l -136 -146 q -117 -164 -126 -158 q -65 -181 -96 -181 q 15 -149 -18 -181 q 58 -56 47 -117 l 192 694 l 331 694 l 197 -56 q 107 -217 181 -156 q -69 -278 33 -278 z "},"ћ":{"ha":778,"x_min":90,"x_max":719,"o":"m 217 722 l 126 722 l 144 819 l 235 819 l 254 931 l 303 972 l 400 972 l 374 819 l 561 819 l 543 722 l 356 722 l 326 556 q 379 590 353 576 q 519 625 449 625 q 665 574 610 625 q 719 439 719 522 q 714 389 719 425 l 646 0 l 507 0 l 575 389 q 578 418 578 408 q 547 492 578 464 q 467 521 517 521 q 354 479 413 521 q 306 438 332 464 l 229 0 l 90 0 l 217 722 z "},"ю":{"ha":993,"x_min":69,"x_max":960,"o":"m 601 -14 q 430 51 492 -14 q 368 242 368 115 q 372 306 368 272 l 261 306 l 208 0 l 69 0 l 192 694 l 331 694 l 279 403 l 390 403 q 517 630 425 551 q 728 708 610 708 q 898 643 836 708 q 960 451 960 578 q 950 347 960 413 q 825 78 918 169 q 601 -14 732 -14 m 618 83 q 734 147 681 83 q 811 347 788 211 q 821 450 821 401 q 791 572 821 533 q 711 611 761 611 q 595 547 647 611 q 519 347 543 483 q 510 243 510 290 q 540 122 510 161 q 618 83 569 83 z "},"я":{"ha":708,"x_min":0,"x_max":692,"o":"m 81 -14 q 22 -7 47 -14 q 0 0 14 -6 l 29 90 l 36 90 l 44 86 q 63 83 56 83 q 111 125 93 83 l 156 215 q 215 281 175 257 q 253 299 240 294 q 175 329 207 307 q 114 443 114 371 q 118 479 114 461 q 215 638 136 582 q 435 694 293 694 l 692 694 l 569 0 l 431 0 l 476 264 l 379 264 q 283 194 317 264 l 240 104 q 174 15 211 43 q 81 -14 138 -14 m 493 361 l 535 597 l 417 597 q 306 568 344 597 q 257 479 268 539 q 254 450 254 457 q 283 383 254 406 q 375 361 313 361 l 493 361 z "},"ђ":{"ha":771,"x_min":90,"x_max":719,"o":"m 396 -194 q 318 -185 354 -194 l 288 -174 l 318 -83 l 332 -83 q 347 -90 339 -89 q 385 -97 365 -97 q 467 -65 433 -97 q 511 28 500 -33 l 575 389 q 578 418 578 408 q 547 492 578 464 q 467 521 517 521 q 354 479 413 521 q 306 438 332 464 l 229 0 l 90 0 l 217 722 l 126 722 l 144 819 l 235 819 l 254 931 l 303 972 l 400 972 l 374 819 l 561 819 l 543 722 l 356 722 l 326 556 q 379 590 353 576 q 519 625 449 625 q 665 574 610 625 q 719 439 719 522 q 714 389 719 425 l 650 28 q 562 -133 633 -71 q 396 -194 490 -194 z "},"ѣ":{"ha":722,"x_min":126,"x_max":699,"o":"m 456 458 q 699 283 699 458 q 693 229 699 268 q 375 0 654 0 l 139 0 l 244 597 l 126 597 l 143 694 l 261 694 l 310 972 l 449 972 l 400 694 l 601 694 l 585 597 l 383 597 l 358 458 l 456 458 m 554 229 q 558 269 558 253 q 529 339 558 317 q 439 361 500 361 l 342 361 l 294 97 l 392 97 q 503 129 465 97 q 554 229 542 161 z "},"ѫ":{"ha":967,"x_min":-53,"x_max":899,"o":"m 28 -14 q -53 0 -24 -14 l -24 90 l -17 90 q 11 83 -7 83 q 60 125 42 83 l 118 257 q 163 325 138 301 q 234 360 188 349 q 363 374 281 371 l 200 694 l 896 694 l 619 375 q 769 347 725 372 q 818 257 813 321 l 829 125 q 864 83 833 83 q 894 90 878 83 l 899 90 l 897 0 q 819 -14 867 -14 q 735 15 763 -14 q 701 104 708 44 l 690 236 q 613 306 683 306 l 550 306 l 496 0 l 357 0 l 411 306 l 349 306 q 286 288 313 306 q 246 236 260 269 l 188 104 q 123 16 161 46 q 28 -14 85 -14 m 485 361 l 493 361 l 683 597 l 374 597 l 485 361 z "},"ѳ":{"ha":736,"x_min":86,"x_max":703,"o":"m 457 708 q 638 643 574 708 q 703 450 703 578 q 693 347 703 413 q 566 78 661 169 q 331 -14 471 -14 q 150 50 214 -14 q 86 240 86 114 q 96 347 86 293 q 222 617 128 526 q 457 708 317 708 m 440 611 q 322 559 374 611 q 244 396 271 507 l 561 396 q 564 449 564 435 q 531 572 564 532 q 440 611 497 611 m 347 83 q 465 135 413 83 q 544 299 517 188 l 228 299 q 225 244 225 260 q 347 83 225 83 z "},"ѵ":{"ha":667,"x_min":108,"x_max":756,"o":"m 108 694 l 247 694 l 313 236 q 317 188 317 215 q 314 139 317 178 l 319 139 q 353 235 333 194 l 460 472 q 532 615 503 567 q 596 685 561 663 q 682 708 631 708 q 756 694 724 708 l 732 604 l 722 604 q 700 611 713 611 q 597 472 663 611 l 375 0 l 208 0 l 108 694 z "},"ғ":{"ha":576,"x_min":44,"x_max":650,"o":"m 632 597 l 313 597 l 278 396 l 450 396 l 433 299 l 261 299 l 208 0 l 69 0 l 122 299 l 44 299 l 61 396 l 139 396 l 192 694 l 650 694 l 632 597 z "},"ҕ":{"ha":694,"x_min":69,"x_max":664,"o":"m 436 458 q 600 411 536 458 q 664 278 664 364 q 660 236 664 257 l 624 28 q 535 -133 606 -72 q 368 -194 464 -194 q 292 -185 317 -194 q 278 -180 286 -182 q 261 -174 269 -178 l 290 -83 l 304 -83 q 321 -90 306 -85 q 358 -97 338 -97 q 441 -65 407 -97 q 485 28 475 -33 l 515 208 q 518 246 518 222 q 485 327 518 301 q 396 353 453 353 q 265 329 336 353 l 208 0 l 69 0 l 192 694 l 650 694 l 632 597 l 313 597 l 283 433 q 436 458 363 458 z "},"җ":{"ha":1028,"x_min":0,"x_max":1060,"o":"m 1038 701 q 1060 694 1057 696 l 1029 604 l 1022 604 l 1014 607 q 1006 609 1011 607 q 996 611 1000 611 q 947 569 964 611 l 899 451 q 857 397 883 417 q 806 369 831 376 q 771 361 782 361 q 804 351 779 361 q 852 317 829 340 q 878 257 875 294 l 889 125 q 924 83 893 83 q 943 86 929 83 l 953 90 l 960 90 l 958 0 l 910 -194 l 806 -194 l 832 -10 q 754 104 761 8 l 742 236 q 664 306 735 306 l 601 306 l 549 0 l 410 0 l 463 306 l 400 306 q 297 236 331 306 l 240 104 q 176 16 214 46 q 81 -14 138 -14 q 22 -7 47 -14 q 0 0 14 -6 l 29 90 l 36 90 l 44 86 q 63 83 56 83 q 111 125 94 83 l 169 257 q 216 317 186 294 q 243 338 246 339 q 313 361 240 338 q 281 369 303 361 q 240 397 260 376 q 218 451 219 417 l 211 569 q 176 611 207 611 q 157 607 174 611 l 147 604 l 140 604 l 143 694 l 167 701 q 228 708 192 708 q 315 679 286 708 q 346 590 343 650 l 353 472 q 374 420 356 438 q 432 403 393 403 l 481 403 l 532 694 l 671 694 l 619 403 l 668 403 q 769 472 743 403 l 818 590 q 881 679 843 650 q 978 708 919 708 q 1038 701 1013 708 z "},"ҙ":{"ha":625,"x_min":-4,"x_max":608,"o":"m 608 551 q 510 394 608 453 q 431 361 475 372 q 506 331 475 353 q 563 219 563 290 q 502 69 563 131 q 322 -8 442 8 l 289 -194 l 178 -194 l 190 -12 q 56 24 110 -6 q -4 63 17 42 l 60 146 l 74 146 q 117 114 90 129 q 243 83 172 83 q 371 111 329 83 q 422 194 413 139 q 425 221 425 214 q 303 306 425 306 l 185 306 l 203 403 l 321 403 q 419 431 382 403 q 464 507 456 458 q 465 529 465 514 q 336 611 465 611 q 214 579 281 611 q 165 549 189 565 l 151 549 l 118 632 q 185 669 147 653 q 367 708 265 708 q 548 665 488 708 q 608 551 608 622 z "},"қ":{"ha":708,"x_min":69,"x_max":740,"o":"m 718 701 q 740 694 736 696 l 710 604 l 703 604 l 694 607 q 686 609 692 607 q 676 611 681 611 q 628 569 644 611 l 579 451 q 503 375 557 400 q 451 361 474 363 q 503 343 482 357 q 558 257 553 314 l 569 125 q 604 83 574 83 q 624 86 610 83 l 633 90 l 640 90 l 639 0 l 590 -194 l 486 -194 l 513 -10 q 435 104 442 8 l 422 236 q 344 306 415 306 l 261 306 l 208 0 l 69 0 l 192 694 l 331 694 l 279 403 l 349 403 q 450 472 424 403 l 499 590 q 562 679 524 650 q 658 708 600 708 q 718 701 693 708 z "},"ҝ":{"ha":736,"x_min":69,"x_max":768,"o":"m 768 694 l 739 604 l 732 604 q 724 607 732 604 q 715 609 721 607 q 706 611 710 611 q 656 569 675 611 l 607 451 q 532 375 588 400 q 481 361 503 363 q 532 343 511 357 q 588 257 583 307 l 599 125 q 633 83 601 83 q 653 86 639 83 l 661 90 l 668 90 l 667 0 q 642 -7 668 0 q 581 -14 614 -14 q 497 15 524 -14 q 463 104 469 44 l 451 236 q 388 304 444 299 l 363 167 l 307 167 l 332 306 l 263 306 l 208 0 l 69 0 l 192 694 l 331 694 l 279 403 l 349 403 l 371 528 l 426 528 l 404 406 q 479 472 454 417 l 528 590 q 591 679 553 650 q 688 708 629 708 q 746 701 722 708 l 768 694 z "},"ҡ":{"ha":825,"x_min":83,"x_max":857,"o":"m 835 701 q 857 694 853 696 l 826 604 l 819 604 l 811 607 q 803 609 808 607 q 793 611 797 611 q 744 569 761 611 l 696 451 q 619 375 674 400 q 568 361 590 363 q 619 343 599 357 q 675 257 669 314 l 686 125 q 721 83 690 83 q 740 86 726 83 l 750 90 l 757 90 l 756 0 q 731 -7 743 -6 q 669 -14 703 -14 q 584 16 613 -14 q 551 104 556 46 l 539 236 q 461 306 532 306 l 378 306 l 325 0 l 186 0 l 292 597 l 83 597 l 100 694 l 447 694 l 396 403 l 465 403 q 567 472 540 403 l 615 590 q 678 679 640 650 q 775 708 717 708 q 835 701 810 708 z "},"ң":{"ha":764,"x_min":69,"x_max":747,"o":"m 747 694 l 642 97 l 732 97 l 681 -194 l 569 -194 l 583 0 l 486 0 l 503 97 l 539 306 l 261 306 l 208 0 l 69 0 l 192 694 l 331 694 l 279 403 l 557 403 l 608 694 l 747 694 z "},"ԥ":{"ha":764,"x_min":69,"x_max":747,"o":"m 747 694 l 642 97 l 732 97 l 681 -194 l 569 -194 l 583 0 l 486 0 l 503 97 l 590 597 l 313 597 l 208 0 l 69 0 l 192 694 l 747 694 z "},"ҫ":{"ha":632,"x_min":86,"x_max":667,"o":"m 610 669 q 667 632 643 651 l 603 549 l 589 549 q 549 579 569 565 q 500 603 524 594 q 447 611 476 611 q 314 549 369 611 q 235 347 258 486 q 225 246 225 293 q 261 122 225 160 q 368 83 297 83 q 481 114 417 83 q 532 146 511 131 l 546 146 l 579 63 q 510 24 551 42 q 406 -8 467 3 l 372 -194 l 261 -194 l 275 -8 q 135 69 183 7 q 86 240 86 132 q 96 347 86 293 q 222 617 128 525 q 450 708 315 708 q 610 669 540 708 z "},"ү":{"ha":653,"x_min":108,"x_max":719,"o":"m 222 0 l 108 694 l 247 694 l 310 239 q 311 207 311 226 q 313 175 311 188 l 311 142 l 317 142 l 326 175 q 351 239 339 211 l 581 694 l 719 694 l 361 0 l 319 -236 l 271 -278 l 174 -278 l 222 0 z "},"ұ":{"ha":653,"x_min":89,"x_max":719,"o":"m 386 49 l 494 49 l 478 -49 l 353 -49 l 319 -236 l 271 -278 l 174 -278 l 214 -49 l 89 -49 l 106 49 l 214 49 l 108 694 l 247 694 l 310 239 q 311 207 311 226 q 313 175 311 188 l 311 142 l 317 142 l 326 175 q 351 239 339 211 l 581 694 l 719 694 l 386 49 z "},"ҷ":{"ha":722,"x_min":119,"x_max":706,"o":"m 600 97 l 690 97 l 639 -194 l 528 -194 l 542 0 l 444 0 l 461 97 l 489 257 l 440 246 q 325 236 389 236 q 174 288 229 236 q 119 422 119 339 q 124 465 119 443 l 164 694 l 303 694 l 263 465 q 260 438 260 446 q 292 362 260 390 q 378 333 324 333 q 468 343 426 333 q 506 354 507 356 l 567 694 l 706 694 l 600 97 z "},"ҹ":{"ha":722,"x_min":119,"x_max":706,"o":"m 706 694 l 583 0 l 444 0 l 489 257 l 440 246 q 383 239 413 240 l 361 113 l 306 113 l 328 236 l 325 236 q 174 288 229 236 q 119 422 119 339 q 124 465 119 443 l 164 694 l 303 694 l 263 465 q 260 438 260 446 q 283 372 260 399 q 346 336 306 344 l 369 474 l 425 474 l 400 333 q 468 343 433 335 q 506 354 507 356 l 567 694 l 706 694 z "},"һ":{"ha":757,"x_min":69,"x_max":713,"o":"m 233 931 l 282 972 l 379 972 l 321 639 q 372 674 349 663 q 513 708 442 708 q 658 657 603 708 q 713 522 713 606 q 707 472 713 508 l 625 0 l 486 0 l 568 472 q 571 501 571 492 q 540 576 571 547 q 460 604 510 604 q 349 563 407 604 q 300 521 321 542 l 208 0 l 69 0 l 233 931 z "},"ӏ":{"ha":347,"x_min":69,"x_max":379,"o":"m 69 0 l 233 931 l 282 972 l 379 972 l 208 0 l 69 0 z "},"ӂ":{"ha":1028,"x_min":0,"x_max":1060,"o":"m 81 -14 q 22 -7 47 -14 q 0 0 14 -6 l 29 90 l 36 90 l 44 86 q 63 83 56 83 q 111 125 94 83 l 169 257 q 216 317 186 294 q 243 338 246 339 q 313 361 240 338 q 281 369 303 361 q 240 397 260 376 q 218 451 219 417 l 211 569 q 176 611 207 611 q 157 607 174 611 l 147 604 l 140 604 l 143 694 l 167 701 q 228 708 192 708 q 315 679 286 708 q 346 590 343 650 l 353 472 q 374 420 356 438 q 432 403 393 403 l 481 403 l 532 694 l 671 694 l 619 403 l 668 403 q 769 472 743 403 l 818 590 q 881 679 843 650 q 978 708 919 708 q 1038 701 1013 708 q 1060 694 1057 696 l 1029 604 l 1022 604 l 1014 607 q 1006 609 1011 607 q 996 611 1000 611 q 947 569 964 611 l 899 451 q 857 397 883 417 q 806 369 831 376 q 771 361 782 361 q 804 351 779 361 q 852 317 829 340 q 878 257 875 294 l 889 125 q 924 83 893 83 q 943 86 929 83 l 953 90 l 960 90 l 958 0 q 933 -7 946 -6 q 872 -14 906 -14 q 787 16 815 -14 q 754 104 758 46 l 742 236 q 664 306 735 306 l 601 306 l 549 0 l 410 0 l 463 306 l 400 306 q 297 236 331 306 l 240 104 q 176 16 214 46 q 81 -14 138 -14 m 596 764 q 461 801 507 764 q 415 903 415 838 q 419 944 415 922 l 544 944 q 542 913 542 919 q 559 863 542 878 q 611 847 576 847 q 678 870 654 847 q 711 944 703 893 l 836 944 q 758 812 819 860 q 596 764 697 764 z "},"ӌ":{"ha":722,"x_min":119,"x_max":706,"o":"m 600 97 l 690 97 l 639 -194 l 528 -194 l 542 0 l 444 0 l 461 97 l 489 257 l 440 246 q 325 236 389 236 q 174 288 229 236 q 119 422 119 339 q 124 465 119 443 l 164 694 l 303 694 l 263 465 q 260 438 260 446 q 292 362 260 390 q 378 333 324 333 q 468 343 426 333 q 506 354 507 356 l 567 694 l 706 694 l 600 97 z "},"ӑ":{"ha":708,"x_min":58,"x_max":682,"o":"m 254 -14 q 109 30 160 -14 q 58 153 58 74 q 63 201 58 176 q 162 355 81 300 q 399 410 243 410 l 510 410 l 515 444 q 521 493 521 481 q 489 581 521 551 q 399 611 457 611 q 285 579 351 611 q 235 549 254 563 l 221 549 l 188 632 q 256 669 221 654 q 429 708 336 708 q 597 649 535 708 q 658 496 658 590 q 654 444 658 472 l 576 0 l 479 0 l 479 83 l 472 83 q 415 35 449 56 q 254 -14 346 -14 m 307 90 q 362 101 336 90 q 418 132 388 113 q 468 174 443 150 l 492 313 l 381 313 q 244 274 290 313 q 199 175 199 235 q 226 112 199 133 q 307 90 253 90 m 442 764 q 307 801 353 764 q 261 903 261 838 q 265 944 261 922 l 390 944 q 388 913 388 919 q 405 863 388 878 q 457 847 422 847 q 524 870 500 847 q 557 944 549 893 l 682 944 q 604 812 665 860 q 442 764 543 764 z "},"ӓ":{"ha":708,"x_min":58,"x_max":672,"o":"m 254 -14 q 109 30 160 -14 q 58 153 58 74 q 63 201 58 176 q 162 355 81 300 q 399 410 243 410 l 510 410 l 515 444 q 521 493 521 481 q 489 581 521 551 q 399 611 457 611 q 285 579 351 611 q 235 549 254 563 l 221 549 l 188 632 q 256 669 221 654 q 429 708 336 708 q 597 649 535 708 q 658 496 658 590 q 654 444 658 472 l 576 0 l 479 0 l 479 83 l 472 83 q 415 35 449 56 q 254 -14 346 -14 m 307 90 q 362 101 336 90 q 418 132 388 113 q 468 174 443 150 l 492 313 l 381 313 q 244 274 290 313 q 199 175 199 235 q 226 112 199 133 q 307 90 253 90 m 338 785 q 291 801 308 785 q 274 844 274 817 q 275 861 274 856 q 306 916 281 894 q 365 938 332 938 q 412 920 394 938 q 429 875 429 903 q 428 861 429 867 q 396 806 421 828 q 338 785 371 785 m 581 785 q 534 801 551 785 q 517 844 517 817 q 518 861 517 856 q 549 916 524 894 q 608 938 575 938 q 655 920 638 938 q 672 875 672 903 q 671 861 672 867 q 639 806 664 828 q 581 785 614 785 z "},"ӗ":{"ha":701,"x_min":86,"x_max":693,"o":"m 338 -14 q 151 50 217 -14 q 86 240 86 114 q 96 347 86 293 q 219 616 125 524 q 443 708 313 708 q 613 643 551 708 q 675 451 675 578 q 665 347 675 413 l 661 326 l 628 299 l 225 299 q 218 235 218 260 q 258 122 218 160 q 368 83 297 83 q 481 114 417 83 q 532 146 511 131 l 546 146 l 579 63 q 510 24 551 42 q 338 -14 432 -14 m 535 396 q 542 469 542 442 q 511 576 542 542 q 426 611 481 611 q 311 558 360 611 q 243 396 263 504 l 535 396 m 453 764 q 318 801 364 764 q 272 903 272 838 q 276 944 272 922 l 401 944 q 399 913 399 919 q 416 863 399 878 q 468 847 433 847 q 535 870 511 847 q 568 944 560 893 l 693 944 q 615 812 676 860 q 453 764 554 764 z "},"ә":{"ha":701,"x_min":26,"x_max":615,"o":"m 364 708 q 550 644 485 708 q 615 454 615 581 q 606 347 615 401 q 483 78 576 171 q 258 -14 389 -14 q 88 51 150 -14 q 26 243 26 117 q 36 347 26 282 l 40 368 l 74 396 l 476 396 q 483 460 483 435 q 444 573 483 535 q 333 611 404 611 q 221 581 285 611 q 169 549 190 564 l 156 549 l 122 632 q 192 671 150 653 q 364 708 269 708 m 167 299 q 160 225 160 253 q 190 118 160 153 q 275 83 221 83 q 390 137 342 83 q 458 299 439 190 l 167 299 z "},"ӝ":{"ha":1028,"x_min":0,"x_max":1060,"o":"m 81 -14 q 22 -7 47 -14 q 0 0 14 -6 l 29 90 l 36 90 l 44 86 q 63 83 56 83 q 111 125 94 83 l 169 257 q 216 317 186 294 q 243 338 246 339 q 313 361 240 338 q 281 369 303 361 q 240 397 260 376 q 218 451 219 417 l 211 569 q 176 611 207 611 q 157 607 174 611 l 147 604 l 140 604 l 143 694 l 167 701 q 228 708 192 708 q 315 679 286 708 q 346 590 343 650 l 353 472 q 374 420 356 438 q 432 403 393 403 l 481 403 l 532 694 l 671 694 l 619 403 l 668 403 q 769 472 743 403 l 818 590 q 881 679 843 650 q 978 708 919 708 q 1038 701 1013 708 q 1060 694 1057 696 l 1029 604 l 1022 604 l 1014 607 q 1006 609 1011 607 q 996 611 1000 611 q 947 569 964 611 l 899 451 q 857 397 883 417 q 806 369 831 376 q 771 361 782 361 q 804 351 779 361 q 852 317 829 340 q 878 257 875 294 l 889 125 q 924 83 893 83 q 943 86 929 83 l 953 90 l 960 90 l 958 0 q 933 -7 946 -6 q 872 -14 906 -14 q 787 16 815 -14 q 754 104 758 46 l 742 236 q 664 306 735 306 l 601 306 l 549 0 l 410 0 l 463 306 l 400 306 q 297 236 331 306 l 240 104 q 176 16 214 46 q 81 -14 138 -14 m 492 785 q 445 801 463 785 q 428 844 428 817 q 429 861 428 856 q 460 916 435 894 q 519 938 486 938 q 566 920 549 938 q 583 875 583 903 q 582 861 583 867 q 550 806 575 828 q 492 785 525 785 m 735 785 q 688 801 706 785 q 671 844 671 817 q 672 861 671 856 q 703 916 678 894 q 763 938 729 938 q 809 920 792 938 q 826 875 826 903 q 825 861 826 867 q 793 806 818 828 q 735 785 768 785 z "},"ӟ":{"ha":625,"x_min":-4,"x_max":608,"o":"m 240 -14 q 56 24 128 -14 q -4 63 17 42 l 60 146 l 74 146 q 117 114 90 129 q 243 83 172 83 q 371 111 329 83 q 422 194 413 139 q 425 221 425 214 q 303 306 425 306 l 185 306 l 203 403 l 321 403 q 419 431 382 403 q 464 507 456 458 q 465 529 465 514 q 336 611 465 611 q 214 579 281 611 q 165 549 189 565 l 151 549 l 118 632 q 185 669 147 653 q 367 708 265 708 q 548 665 488 708 q 608 551 608 622 q 510 394 608 453 q 431 361 475 372 q 506 331 475 353 q 563 219 563 290 q 481 51 563 115 q 240 -14 400 -14 m 254 785 q 208 801 225 785 q 190 844 190 817 q 192 861 190 856 q 223 916 197 894 q 282 938 249 938 q 328 920 311 938 q 346 875 346 903 q 344 861 346 867 q 313 806 338 828 q 254 785 288 785 m 497 785 q 451 801 468 785 q 433 844 433 817 q 435 861 433 856 q 466 916 440 894 q 525 938 492 938 q 572 920 554 938 q 589 875 589 903 q 588 861 589 867 q 556 806 581 828 q 497 785 531 785 z "},"ӣ":{"ha":764,"x_min":69,"x_max":747,"o":"m 192 694 l 324 694 l 250 285 l 236 221 l 228 188 l 233 188 q 242 207 238 199 q 250 221 247 215 q 292 285 269 257 l 615 694 l 747 694 l 625 0 l 493 0 l 567 425 l 581 489 l 589 522 l 583 522 q 567 489 578 506 q 525 425 543 450 l 201 0 l 69 0 l 192 694 m 289 819 l 306 917 l 681 917 l 664 819 l 289 819 z "},"ӥ":{"ha":764,"x_min":69,"x_max":747,"o":"m 192 694 l 324 694 l 250 285 l 236 221 l 228 188 l 233 188 q 242 207 238 199 q 250 221 247 215 q 292 285 269 257 l 615 694 l 747 694 l 625 0 l 493 0 l 567 425 l 581 489 l 589 522 l 583 522 q 567 489 578 506 q 525 425 543 450 l 201 0 l 69 0 l 192 694 m 349 785 q 302 801 319 785 q 285 844 285 817 q 286 861 285 856 q 317 916 292 894 q 376 938 343 938 q 423 920 406 938 q 440 875 440 903 q 439 861 440 867 q 407 806 432 828 q 349 785 382 785 m 592 785 q 545 801 563 785 q 528 844 528 817 q 529 861 528 856 q 560 916 535 894 q 619 938 586 938 q 666 920 649 938 q 683 875 683 903 q 682 861 683 867 q 650 806 675 828 q 592 785 625 785 z "},"ӧ":{"ha":736,"x_min":86,"x_max":703,"o":"m 331 -14 q 150 50 214 -14 q 86 240 86 114 q 96 347 86 293 q 222 617 128 526 q 457 708 317 708 q 638 643 574 708 q 703 450 703 578 q 693 347 703 413 q 566 78 661 169 q 331 -14 471 -14 m 347 83 q 475 147 419 83 q 554 347 531 210 q 564 449 564 401 q 531 572 564 533 q 440 611 497 611 q 313 548 367 611 q 235 347 258 485 q 225 244 225 293 q 347 83 225 83 m 350 785 q 303 801 321 785 q 286 844 286 817 q 288 861 286 856 q 319 916 293 894 q 378 938 344 938 q 424 920 407 938 q 442 875 442 903 q 440 861 442 867 q 408 806 433 828 q 350 785 383 785 m 593 785 q 547 801 564 785 q 529 844 529 817 q 531 861 529 856 q 562 916 536 894 q 621 938 588 938 q 667 920 650 938 q 685 875 685 903 q 683 861 685 867 q 651 806 676 828 q 593 785 626 785 z "},"ө":{"ha":736,"x_min":86,"x_max":703,"o":"m 457 708 q 638 643 574 708 q 703 450 703 578 q 693 347 703 413 q 566 78 661 169 q 331 -14 471 -14 q 150 50 214 -14 q 86 240 86 114 q 96 347 86 293 q 222 617 128 526 q 457 708 317 708 m 440 611 q 322 559 374 611 q 244 396 271 507 l 561 396 q 564 449 564 435 q 531 572 564 532 q 440 611 497 611 m 347 83 q 465 135 413 83 q 544 299 517 188 l 228 299 q 225 244 225 260 q 347 83 225 83 z "},"ӯ":{"ha":660,"x_min":-31,"x_max":726,"o":"m 100 -292 q 3 -271 44 -292 q -31 -250 -17 -262 l 19 -160 l 33 -160 q 53 -178 43 -172 q 104 -194 74 -194 q 172 -167 140 -194 q 225 -97 204 -140 l 271 0 l 215 0 l 108 694 l 247 694 l 318 236 q 325 165 322 218 l 328 125 l 333 125 l 350 165 l 363 197 q 379 236 374 225 l 588 694 l 726 694 l 364 -97 q 256 -238 325 -185 q 100 -292 186 -292 m 254 819 l 271 917 l 646 917 l 629 819 l 254 819 z "},"ӱ":{"ha":660,"x_min":-31,"x_max":726,"o":"m 100 -292 q 3 -271 44 -292 q -31 -250 -17 -262 l 19 -160 l 33 -160 q 53 -178 43 -172 q 104 -194 74 -194 q 172 -167 140 -194 q 225 -97 204 -140 l 271 0 l 215 0 l 108 694 l 247 694 l 318 236 q 325 165 322 218 l 328 125 l 333 125 l 350 165 l 363 197 q 379 236 374 225 l 588 694 l 726 694 l 364 -97 q 256 -238 325 -185 q 100 -292 186 -292 m 314 785 q 267 801 285 785 q 250 844 250 817 q 251 861 250 856 q 283 916 257 894 q 342 938 308 938 q 388 920 371 938 q 406 875 406 903 q 404 861 406 867 q 372 806 397 828 q 314 785 347 785 m 557 785 q 510 801 528 785 q 493 844 493 817 q 494 861 493 856 q 526 916 500 894 q 585 938 551 938 q 631 920 614 938 q 649 875 649 903 q 647 861 649 867 q 615 806 640 828 q 557 785 590 785 z "},"ӳ":{"ha":660,"x_min":-31,"x_max":726,"o":"m 100 -292 q 3 -271 44 -292 q -31 -250 -17 -262 l 19 -160 l 33 -160 q 53 -178 43 -172 q 104 -194 74 -194 q 172 -167 140 -194 q 225 -97 204 -140 l 271 0 l 215 0 l 108 694 l 247 694 l 318 236 q 325 165 322 218 l 328 125 l 333 125 l 350 165 l 363 197 q 379 236 374 225 l 588 694 l 726 694 l 364 -97 q 256 -238 325 -185 q 100 -292 186 -292 m 296 764 l 396 972 l 528 972 l 372 764 l 296 764 m 483 764 l 583 972 l 715 972 l 560 764 l 483 764 z "},"ӵ":{"ha":722,"x_min":119,"x_max":706,"o":"m 489 257 l 440 246 q 325 236 389 236 q 174 288 229 236 q 119 422 119 339 q 124 465 119 443 l 164 694 l 303 694 l 263 465 q 260 438 260 446 q 292 362 260 390 q 378 333 324 333 q 468 343 426 333 q 506 354 507 356 l 567 694 l 706 694 l 583 0 l 444 0 l 489 257 m 317 785 q 270 801 288 785 q 253 844 253 817 q 254 861 253 856 q 285 916 260 894 q 344 938 311 938 q 391 920 374 938 q 408 875 408 903 q 407 861 408 867 q 375 806 400 828 q 317 785 350 785 m 560 785 q 513 801 531 785 q 496 844 496 817 q 497 861 496 856 q 528 916 503 894 q 588 938 554 938 q 634 920 617 938 q 651 875 651 903 q 650 861 651 867 q 618 806 643 828 q 560 785 593 785 z "},"ӷ":{"ha":576,"x_min":69,"x_max":650,"o":"m 632 597 l 313 597 l 225 97 l 315 97 l 264 -194 l 153 -194 l 167 0 l 69 0 l 86 97 l 192 694 l 650 694 l 632 597 z "},"ӹ":{"ha":958,"x_min":69,"x_max":942,"o":"m 192 694 l 331 694 l 289 458 l 372 458 q 614 282 614 458 q 610 229 614 257 q 292 0 568 0 l 69 0 l 192 694 m 681 0 l 803 694 l 942 694 l 819 0 l 681 0 m 308 97 q 421 129 382 97 q 471 229 460 161 q 475 267 475 250 q 446 338 475 315 q 354 361 417 361 l 271 361 l 225 97 l 308 97 m 463 785 q 416 801 433 785 q 399 844 399 817 q 400 861 399 856 q 431 916 406 894 q 490 938 457 938 q 537 920 519 938 q 554 875 554 903 q 553 861 554 867 q 521 806 546 828 q 463 785 496 785 m 706 785 q 659 801 676 785 q 642 844 642 817 q 643 861 642 856 q 674 916 649 894 q 733 938 700 938 q 780 920 763 938 q 797 875 797 903 q 796 861 797 867 q 764 806 789 828 q 706 785 739 785 z "},"ԛ":{"ha":743,"x_min":85,"x_max":726,"o":"m 424 -236 l 469 28 q 421 7 447 15 q 310 -14 367 -14 q 146 51 207 -14 q 85 239 85 115 q 96 347 85 283 q 164 545 115 464 q 276 667 213 626 q 408 708 340 708 q 553 660 493 708 q 593 611 581 635 l 600 611 l 629 694 l 726 694 l 554 -278 l 457 -278 l 424 -236 m 347 83 q 444 97 392 83 q 485 111 468 104 l 557 521 q 522 563 544 540 q 425 604 478 604 q 310 542 361 604 q 235 347 258 479 q 225 244 225 293 q 347 83 225 83 z "},"ԝ":{"ha":986,"x_min":108,"x_max":1053,"o":"m 108 694 l 240 694 l 276 271 q 278 239 278 260 q 276 210 278 219 l 274 181 l 279 181 q 289 210 285 200 q 311 271 304 257 l 497 694 l 664 694 l 700 271 q 701 210 703 228 l 699 181 l 704 181 q 713 210 707 196 q 735 271 728 257 l 921 694 l 1053 694 l 750 0 l 597 0 l 556 438 q 553 472 553 451 q 553 499 553 492 q 554 535 553 522 l 549 535 q 543 517 546 526 q 538 499 540 508 q 514 438 531 476 l 319 0 l 167 0 l 108 694 z "},"Ҥ":{"ha":1111,"x_min":90,"x_max":1233,"o":"m 1233 972 l 1217 875 l 869 875 l 715 0 l 576 0 l 654 444 l 307 444 l 229 0 l 90 0 l 261 972 l 400 972 l 324 542 l 671 542 l 747 972 l 1233 972 z "},"ҥ":{"ha":922,"x_min":69,"x_max":996,"o":"m 996 694 l 979 597 l 731 597 l 625 0 l 486 0 l 539 306 l 261 306 l 208 0 l 69 0 l 192 694 l 331 694 l 279 403 l 557 403 l 608 694 l 996 694 z "},"Ӕ":{"ha":1132,"x_min":-62,"x_max":1226,"o":"m -62 0 l 518 972 l 1226 972 l 1210 875 l 807 875 l 750 556 l 1069 556 l 1053 458 l 733 458 l 669 97 l 1072 97 l 1056 0 l 514 0 l 563 278 l 243 278 l 76 0 l -62 0 m 301 375 l 579 375 l 668 875 l 599 875 l 301 375 z "},"ӕ":{"ha":1090,"x_min":58,"x_max":1064,"o":"m 254 -14 q 109 30 160 -14 q 58 153 58 74 q 63 201 58 176 q 162 355 81 300 q 399 410 243 410 l 510 410 l 515 444 q 521 493 521 481 q 489 581 521 551 q 399 611 457 611 q 285 579 351 611 q 235 549 254 563 l 221 549 l 188 632 q 256 669 221 654 q 429 708 336 708 q 553 681 506 708 q 619 604 601 653 q 722 681 667 653 q 839 708 778 708 q 1003 643 943 708 q 1064 451 1064 578 q 1054 347 1064 400 l 1050 326 l 1017 299 l 628 299 q 621 235 621 260 q 658 122 621 160 q 757 83 694 83 q 869 114 806 83 q 921 146 900 131 l 935 146 l 968 63 q 899 24 940 42 q 726 -14 821 -14 q 601 14 656 -14 q 519 97 547 42 q 444 42 488 68 q 254 -14 347 -14 m 924 396 q 931 471 931 442 q 901 576 931 542 q 822 611 872 611 q 713 558 761 611 q 646 396 665 504 l 924 396 m 307 90 q 362 101 336 90 q 418 132 388 113 q 468 174 443 150 l 492 313 l 381 313 q 244 274 290 313 q 199 175 199 235 q 226 112 199 133 q 307 90 253 90 z "},"¹":{"ha":451,"x_min":122,"x_max":471,"o":"m 122 500 l 138 583 l 242 583 l 288 847 l 196 799 l 165 861 l 317 972 l 435 972 l 367 583 l 471 583 l 456 500 l 122 500 z "},"²":{"ha":458,"x_min":101,"x_max":522,"o":"m 111 556 q 147 638 119 604 q 205 691 174 671 q 288 736 236 711 q 364 779 338 760 q 394 826 390 799 q 397 849 397 843 q 329 903 397 903 q 250 882 289 903 q 221 861 233 872 l 207 861 l 182 924 q 233 954 203 939 q 368 986 300 986 q 481 951 440 986 q 522 857 522 915 q 497 767 522 804 q 435 709 471 731 q 346 664 400 688 q 269 625 294 642 q 242 583 244 608 l 478 583 l 463 500 l 101 500 l 111 556 z "},"³":{"ha":446,"x_min":89,"x_max":511,"o":"m 253 486 q 129 517 182 486 q 89 549 101 533 l 136 611 l 150 611 q 172 590 158 599 q 247 569 201 569 q 350 639 335 569 q 351 653 351 644 q 264 708 351 708 l 172 708 l 185 778 l 371 889 l 171 889 l 186 972 l 511 972 l 494 882 l 326 792 q 438 758 399 792 q 478 668 478 725 q 450 578 478 619 q 371 511 422 536 q 253 486 319 486 z "},"⁴":{"ha":528,"x_min":119,"x_max":564,"o":"m 339 500 l 356 597 l 119 597 l 133 681 l 421 972 l 546 972 l 494 681 l 564 681 l 550 597 l 481 597 l 464 500 l 339 500 m 369 681 l 392 806 q 403 843 393 813 l 411 865 l 406 865 l 393 842 q 368 806 379 817 l 244 681 l 369 681 z "},"⁄":{"ha":597,"x_min":-200,"x_max":776,"o":"m -200 0 l 624 972 l 776 972 l -47 0 l -200 0 z "},"½":{"ha":1042,"x_min":111,"x_max":1088,"o":"m 111 0 l 935 972 l 1088 972 l 264 0 l 111 0 m 122 500 l 138 583 l 242 583 l 288 847 l 196 799 l 165 861 l 317 972 l 435 972 l 367 583 l 471 583 l 456 500 l 122 500 m 607 56 q 664 163 619 125 q 783 236 708 200 q 861 280 836 261 q 890 326 886 299 q 892 346 892 333 q 825 403 892 403 q 744 382 789 403 q 715 361 728 372 l 701 361 l 676 424 q 728 454 697 439 q 863 486 794 486 q 976 449 935 486 q 1018 354 1018 413 q 992 265 1018 301 q 931 208 967 229 q 840 161 896 186 q 764 122 788 138 q 736 83 740 107 l 972 83 l 958 0 l 597 0 l 607 56 z "},"¼":{"ha":1056,"x_min":111,"x_max":1088,"o":"m 111 0 l 935 972 l 1088 972 l 264 0 l 111 0 m 122 500 l 138 583 l 242 583 l 288 847 l 196 799 l 165 861 l 317 972 l 435 972 l 367 583 l 471 583 l 456 500 l 122 500 m 778 0 l 794 97 l 558 97 l 572 181 l 860 472 l 985 472 l 933 181 l 1003 181 l 989 97 l 919 97 l 903 0 l 778 0 m 808 181 l 831 306 q 842 343 832 313 l 850 365 l 844 365 l 832 342 q 807 306 818 317 l 683 181 l 808 181 z "},"¾":{"ha":1042,"x_min":97,"x_max":1074,"o":"m 97 0 l 921 972 l 1074 972 l 250 0 l 97 0 m 274 486 q 150 517 203 486 q 110 549 122 533 l 157 611 l 171 611 q 193 590 179 599 q 268 569 222 569 q 371 639 356 569 q 372 653 372 644 q 285 708 372 708 l 193 708 l 206 778 l 392 889 l 192 889 l 207 972 l 532 972 l 515 882 l 347 792 q 459 758 419 792 q 499 668 499 725 q 471 578 499 619 q 392 511 443 536 q 274 486 340 486 m 764 0 l 781 97 l 544 97 l 558 181 l 846 472 l 971 472 l 919 181 l 989 181 l 975 97 l 906 97 l 889 0 l 764 0 m 794 181 l 817 306 q 828 343 818 313 l 836 365 l 831 365 l 818 342 q 793 306 804 317 l 669 181 l 794 181 z "},"*":{"ha":569,"x_min":119,"x_max":635,"o":"m 211 889 l 343 806 l 372 972 l 469 972 l 440 806 l 600 889 l 635 806 l 474 722 l 606 639 l 542 556 l 411 639 l 381 472 l 283 472 l 314 639 l 153 556 l 119 639 l 279 722 l 149 806 l 211 889 z "},"\\":{"ha":569,"x_min":136,"x_max":535,"o":"m 535 0 l 396 0 l 136 972 l 275 972 l 535 0 z "},"·":{"ha":403,"x_min":167,"x_max":336,"o":"m 167 468 q 196 540 167 511 q 267 569 225 569 q 317 551 297 569 q 336 504 336 533 q 308 432 336 461 q 238 403 279 403 q 186 421 206 403 q 167 468 167 439 z "},"•":{"ha":514,"x_min":128,"x_max":467,"o":"m 467 465 q 440 363 467 408 q 368 290 414 317 q 268 264 322 264 q 165 300 203 264 q 128 397 128 336 q 131 431 128 408 q 199 551 144 504 q 326 597 253 597 q 428 561 390 597 q 467 465 467 525 z "},":":{"ha":278,"x_min":31,"x_max":299,"o":"m 129 607 q 158 679 129 650 q 228 708 186 708 q 279 690 260 708 q 299 643 299 672 q 269 571 299 600 q 199 542 240 542 q 149 560 168 542 q 129 607 129 578 m 31 51 q 60 124 31 94 q 131 153 89 153 q 181 135 161 153 q 200 88 200 117 q 172 15 200 44 q 101 -14 143 -14 q 50 4 69 -14 q 31 51 31 22 z "},",":{"ha":278,"x_min":-3,"x_max":199,"o":"m 31 51 q 58 123 31 93 q 124 153 86 153 q 179 134 160 153 q 199 79 199 115 q 197 56 199 64 q 103 -122 179 -43 q 31 -181 68 -158 l -3 -132 q 42 -96 19 -115 q 94 -14 89 -49 q 49 4 67 -14 q 31 51 31 22 z "},"…":{"ha":806,"x_min":31,"x_max":728,"o":"m 31 51 q 60 124 31 94 q 131 153 89 153 q 181 135 161 153 q 200 88 200 117 q 172 15 200 44 q 101 -14 143 -14 q 50 4 69 -14 q 31 51 31 22 m 294 51 q 324 124 294 94 q 394 153 353 153 q 444 135 425 153 q 464 88 464 117 q 435 15 464 44 q 365 -14 407 -14 q 314 4 333 -14 q 294 51 294 22 m 558 51 q 588 124 558 94 q 658 153 617 153 q 708 135 689 153 q 728 88 728 117 q 699 15 728 44 q 629 -14 671 -14 q 578 4 597 -14 q 558 51 558 22 z "},"!":{"ha":403,"x_min":93,"x_max":421,"o":"m 254 972 l 421 972 l 265 250 l 154 250 l 254 972 m 93 51 q 122 124 93 94 q 193 153 151 153 q 243 135 224 153 q 263 88 263 117 q 234 15 263 44 q 164 -14 206 -14 q 113 4 132 -14 q 93 51 93 22 z "},"¡":{"ha":403,"x_min":33,"x_max":361,"o":"m 192 607 q 220 679 192 650 q 290 708 249 708 q 342 690 322 708 q 361 643 361 672 q 332 571 361 600 q 261 542 303 542 q 211 560 231 542 q 192 607 192 578 m 189 444 l 300 444 l 200 -278 l 33 -278 l 189 444 z "},"#":{"ha":917,"x_min":36,"x_max":981,"o":"m 507 722 l 701 722 l 803 972 l 942 972 l 840 722 l 981 722 l 964 625 l 801 625 l 689 347 l 832 347 l 814 250 l 649 250 l 549 0 l 410 0 l 510 250 l 315 250 l 215 0 l 76 0 l 176 250 l 36 250 l 54 347 l 217 347 l 329 625 l 186 625 l 203 722 l 368 722 l 469 972 l 608 972 l 507 722 m 356 347 l 550 347 l 663 625 l 468 625 l 356 347 z "},".":{"ha":278,"x_min":31,"x_max":200,"o":"m 31 51 q 60 124 31 94 q 131 153 89 153 q 181 135 161 153 q 200 88 200 117 q 172 15 200 44 q 101 -14 143 -14 q 50 4 69 -14 q 31 51 31 22 z "},"?":{"ha":639,"x_min":125,"x_max":679,"o":"m 197 250 l 207 306 q 245 406 218 363 q 304 477 272 449 q 388 543 336 506 q 493 634 457 594 q 539 736 529 674 q 542 761 542 753 q 498 853 542 817 q 378 889 454 889 q 228 857 306 889 q 172 826 190 839 l 158 826 l 125 910 q 200 947 156 931 q 410 986 290 986 q 610 928 540 986 q 679 772 679 869 q 675 722 679 747 q 638 619 665 663 q 575 547 610 576 q 485 482 540 518 q 378 397 414 433 q 332 306 342 361 l 322 250 l 197 250 m 143 51 q 172 124 143 94 q 243 153 201 153 q 293 135 274 153 q 313 88 313 117 q 284 15 313 44 q 214 -14 256 -14 q 163 4 182 -14 q 143 51 143 22 z "},"¿":{"ha":639,"x_min":11,"x_max":565,"o":"m 547 643 q 518 571 547 600 q 447 542 489 542 q 397 560 417 542 q 378 607 378 578 q 406 679 378 650 q 476 708 435 708 q 528 690 508 708 q 547 643 547 672 m 493 444 l 483 389 q 426 256 469 307 q 304 150 382 206 q 228 91 256 114 q 180 35 201 68 q 151 -42 158 1 q 149 -67 149 -58 q 192 -158 149 -122 q 313 -194 236 -194 q 463 -164 388 -194 q 518 -132 501 -146 l 532 -132 l 565 -215 q 490 -254 536 -236 q 281 -292 403 -292 q 81 -233 150 -292 q 11 -78 11 -175 q 15 -28 11 -53 q 53 75 25 32 q 115 146 81 118 q 206 213 149 174 q 312 296 275 260 q 358 389 349 332 l 368 444 l 493 444 z "},"\"":{"ha":472,"x_min":161,"x_max":553,"o":"m 192 972 l 338 972 l 251 639 l 161 639 l 192 972 m 407 972 l 553 972 l 467 639 l 376 639 l 407 972 z "},"'":{"ha":257,"x_min":161,"x_max":338,"o":"m 192 972 l 338 972 l 251 639 l 161 639 l 192 972 z "},";":{"ha":278,"x_min":-3,"x_max":299,"o":"m 129 607 q 158 679 129 650 q 228 708 186 708 q 279 690 260 708 q 299 643 299 672 q 269 571 299 600 q 199 542 240 542 q 149 560 168 542 q 129 607 129 578 m 31 51 q 58 123 31 93 q 124 153 86 153 q 179 134 160 153 q 199 79 199 115 q 197 56 199 64 q 103 -122 179 -43 q 31 -181 68 -158 l -3 -132 q 42 -96 19 -115 q 94 -14 89 -49 q 49 4 67 -14 q 31 51 31 22 z "},"/":{"ha":569,"x_min":-35,"x_max":706,"o":"m 567 972 l 706 972 l 104 0 l -35 0 l 567 972 z "},"_":{"ha":528,"x_min":-65,"x_max":481,"o":"m -65 -181 l -46 -69 l 481 -69 l 461 -181 l -65 -181 z "},"{":{"ha":451,"x_min":81,"x_max":581,"o":"m 97 438 q 181 467 151 438 q 225 569 211 497 l 269 819 q 356 960 286 906 q 532 1014 425 1014 l 581 1014 l 564 917 l 515 917 q 444 891 474 917 q 408 819 415 865 l 364 569 q 282 417 344 463 q 221 389 257 396 q 271 361 249 383 q 306 261 306 324 q 300 208 306 235 l 256 -42 q 253 -67 253 -58 q 273 -120 253 -101 q 329 -139 293 -139 l 378 -139 l 361 -236 l 313 -236 q 165 -192 217 -236 q 114 -76 114 -149 q 117 -42 114 -64 l 161 208 q 165 258 165 238 q 144 322 165 303 q 81 340 124 340 l 97 438 z "},"}":{"ha":451,"x_min":-61,"x_max":438,"o":"m 421 340 q 336 310 367 340 q 293 208 306 281 l 249 -42 q 163 -182 232 -128 q -14 -236 93 -236 l -61 -236 l -44 -139 l 3 -139 q 73 -113 44 -139 q 110 -42 101 -87 l 154 208 q 236 361 172 308 q 297 389 264 383 q 247 417 267 396 q 213 517 213 451 q 218 569 213 543 l 263 819 q 264 843 264 828 q 244 898 264 879 q 189 917 225 917 l 140 917 l 157 1014 l 206 1014 q 353 970 301 1014 q 404 854 404 926 q 401 819 404 842 l 357 569 q 351 518 351 543 q 372 456 351 475 q 438 438 393 438 l 421 340 z "},"[":{"ha":431,"x_min":49,"x_max":546,"o":"m 326 -236 l 49 -236 l 268 1014 l 546 1014 l 529 917 l 390 917 l 204 -139 l 343 -139 l 326 -236 z "},"]":{"ha":431,"x_min":-47,"x_max":449,"o":"m -32 -139 l 107 -139 l 293 917 l 154 917 l 171 1014 l 449 1014 l 229 -236 l -47 -236 l -32 -139 z "},"(":{"ha":396,"x_min":96,"x_max":531,"o":"m 110 389 q 238 736 140 569 q 485 1021 336 903 l 531 965 q 350 699 421 838 q 249 389 279 560 q 232 203 232 289 q 328 -187 232 -8 l 263 -243 q 138 -30 179 -151 q 96 229 96 92 q 110 389 96 311 z "},")":{"ha":396,"x_min":-67,"x_max":367,"o":"m 353 389 q 224 42 322 208 q -22 -243 126 -125 l -67 -187 q 113 79 43 -60 q 214 389 183 218 q 231 574 231 488 q 135 965 231 781 l 200 1021 q 325 808 283 929 q 367 549 367 686 q 353 389 367 467 z "},"—":{"ha":1000,"x_min":68,"x_max":1004,"o":"m 68 347 l 88 458 l 1004 458 l 985 347 l 68 347 z "},"–":{"ha":708,"x_min":68,"x_max":713,"o":"m 68 347 l 88 458 l 713 458 l 693 347 l 68 347 z "},"-":{"ha":611,"x_min":78,"x_max":625,"o":"m 78 403 l 97 514 l 625 514 l 606 403 l 78 403 z "},"­":{"ha":611,"x_min":78,"x_max":625,"o":"m 78 403 l 97 514 l 625 514 l 606 403 l 78 403 z "},"«":{"ha":660,"x_min":40,"x_max":696,"o":"m 382 83 l 278 0 l 40 347 l 400 694 l 475 611 l 207 347 l 382 83 m 619 646 l 696 563 l 478 347 l 619 132 l 515 49 l 311 347 l 619 646 z "},"»":{"ha":660,"x_min":15,"x_max":672,"o":"m 506 347 l 329 611 l 435 694 l 672 347 l 313 0 l 236 83 l 506 347 m 401 347 l 92 49 l 15 132 l 235 347 l 92 563 l 196 646 l 401 347 z "},"‹":{"ha":458,"x_min":42,"x_max":524,"o":"m 357 653 l 524 653 l 208 361 l 421 69 l 254 69 l 42 361 l 357 653 z "},"›":{"ha":472,"x_min":-10,"x_max":472,"o":"m 472 361 l 157 69 l -10 69 l 306 361 l 93 653 l 260 653 l 472 361 z "},"„":{"ha":500,"x_min":-3,"x_max":421,"o":"m 31 51 q 58 123 31 93 q 124 153 86 153 q 179 134 160 153 q 199 79 199 115 q 197 56 199 64 q 103 -122 179 -43 q 31 -181 68 -158 l -3 -132 q 42 -96 19 -115 q 94 -14 89 -49 q 49 4 67 -14 q 31 51 31 22 m 253 51 q 281 123 253 93 q 346 153 308 153 q 401 134 382 153 q 421 79 421 115 q 419 56 421 64 q 325 -122 401 -43 q 253 -181 290 -158 l 219 -132 q 264 -96 242 -115 q 317 -14 311 -49 q 271 4 289 -14 q 253 51 253 22 z "},"“":{"ha":500,"x_min":150,"x_max":575,"o":"m 318 756 q 290 683 318 713 q 225 653 263 653 q 169 672 189 653 q 150 725 150 690 q 153 750 150 731 q 246 928 174 856 q 319 986 278 963 l 353 938 q 308 901 331 921 q 256 819 260 856 q 301 801 283 819 q 318 756 318 783 m 540 756 q 513 683 540 713 q 447 653 485 653 q 392 672 411 653 q 372 725 372 690 q 375 750 372 731 q 468 928 396 856 q 542 986 500 963 l 575 938 q 531 901 553 921 q 478 819 482 856 q 523 801 506 819 q 540 756 540 783 z "},"”":{"ha":500,"x_min":144,"x_max":568,"o":"m 178 885 q 206 956 178 926 q 271 986 233 986 q 326 967 307 986 q 346 914 346 949 q 343 889 346 908 q 249 711 325 790 q 176 653 213 675 l 144 701 q 189 738 167 718 q 242 819 236 785 q 196 838 214 819 q 178 885 178 856 m 400 885 q 428 956 400 926 q 493 986 456 986 q 549 967 529 986 q 568 914 568 949 q 565 889 568 908 q 471 711 547 790 q 399 653 435 675 l 367 701 q 411 738 389 718 q 464 819 458 785 q 418 838 436 819 q 400 885 400 856 z "},"‘":{"ha":278,"x_min":150,"x_max":353,"o":"m 318 756 q 290 683 318 713 q 225 653 263 653 q 169 672 189 653 q 150 725 150 690 q 153 750 150 731 q 246 928 174 856 q 319 986 278 963 l 353 938 q 308 901 331 921 q 256 819 260 856 q 301 801 283 819 q 318 756 318 783 z "},"’":{"ha":278,"x_min":144,"x_max":346,"o":"m 178 885 q 206 956 178 926 q 271 986 233 986 q 326 967 307 986 q 346 914 346 949 q 343 889 346 908 q 249 711 325 790 q 176 653 213 675 l 144 701 q 189 738 167 718 q 242 819 236 785 q 196 838 214 819 q 178 885 178 856 z "},"‚":{"ha":278,"x_min":-3,"x_max":199,"o":"m 31 51 q 58 123 31 93 q 124 153 86 153 q 179 134 160 153 q 199 79 199 115 q 197 56 199 64 q 103 -122 179 -43 q 31 -181 68 -158 l -3 -132 q 42 -96 19 -115 q 94 -14 89 -49 q 49 4 67 -14 q 31 51 31 22 z "}," ":{"ha":403,"x_min":0,"x_max":0,"o":""},"¢":{"ha":632,"x_min":85,"x_max":667,"o":"m 256 -4 q 85 239 85 38 q 96 347 85 285 q 198 590 124 500 q 381 701 272 679 l 393 778 l 532 778 l 519 701 q 628 660 575 690 q 667 632 654 643 l 603 549 l 589 549 q 549 579 569 565 q 500 603 524 594 q 447 611 476 611 q 314 549 369 611 q 235 347 258 486 q 225 246 225 293 q 261 122 225 160 q 368 83 297 83 q 481 114 417 83 q 532 146 511 131 l 546 146 l 579 63 q 526 32 549 43 q 393 -10 460 -1 l 378 -97 l 239 -97 l 256 -4 z "},"¤":{"ha":799,"x_min":33,"x_max":825,"o":"m 144 236 l 33 236 l 49 319 l 160 319 l 169 375 l 58 375 l 74 458 l 185 458 l 275 972 l 525 972 q 825 742 825 972 q 818 667 825 711 q 694 451 793 526 q 419 375 594 375 l 308 375 l 299 319 l 646 319 l 631 236 l 283 236 l 243 0 l 104 0 l 144 236 m 435 458 q 679 667 644 458 q 685 725 685 694 q 508 875 685 875 l 397 875 l 324 458 l 435 458 z "},"$":{"ha":688,"x_min":17,"x_max":750,"o":"m 226 -10 q 69 32 139 -1 q 17 63 51 40 l 81 146 l 94 146 q 146 114 114 129 q 292 83 213 83 q 444 129 385 83 q 515 250 503 175 q 518 275 518 267 q 496 344 518 315 q 440 394 474 374 q 350 443 407 415 q 242 502 283 475 q 172 572 200 529 q 143 674 143 614 q 147 722 143 697 q 231 885 164 818 q 400 976 297 953 l 417 1069 l 563 1069 l 547 983 q 701 942 635 975 q 750 910 731 928 l 686 826 l 672 826 q 628 857 653 843 q 489 889 561 889 q 387 864 433 889 q 313 798 340 839 q 286 711 286 757 q 308 642 286 671 q 364 592 331 613 q 454 543 397 571 q 563 484 521 511 q 633 415 604 457 q 661 313 661 372 q 657 264 661 289 q 565 83 638 154 q 374 -7 492 13 l 357 -97 l 211 -97 l 226 -10 z "},"€":{"ha":757,"x_min":42,"x_max":833,"o":"m 442 -14 q 150 308 150 -14 q 151 361 150 343 l 42 361 l 71 444 l 161 444 l 176 528 l 79 528 l 107 611 l 196 611 q 604 986 304 986 q 776 947 704 986 q 833 910 811 929 l 769 826 l 756 826 q 714 857 739 840 q 600 889 658 889 q 445 823 514 889 q 335 611 376 757 l 640 611 l 613 528 l 315 528 l 300 444 l 592 444 l 563 361 l 290 361 q 289 322 289 347 q 337 139 289 194 q 472 83 385 83 q 597 114 533 83 q 650 146 633 133 l 664 146 l 697 63 q 626 24 668 42 q 442 -14 546 -14 z "},"ƒ":{"ha":543,"x_min":-200,"x_max":758,"o":"m -75 -278 q -168 -257 -129 -278 q -200 -236 -183 -250 l -142 -146 l -128 -146 q -110 -164 -117 -160 q -62 -181 -90 -181 q 22 -149 -12 -181 q 71 -56 56 -118 l 246 597 l 156 597 l 182 694 l 272 694 l 289 764 q 391 926 315 865 q 578 986 467 986 q 713 947 653 986 q 758 910 740 931 l 686 826 l 672 826 q 642 857 658 843 q 603 881 621 872 q 565 889 586 889 q 480 857 517 889 q 428 764 443 825 l 411 694 l 599 694 l 572 597 l 385 597 l 210 -56 q 107 -217 183 -157 q -75 -278 31 -278 z "},"₴":{"ha":724,"x_min":42,"x_max":768,"o":"m 542 514 q 461 475 507 494 q 396 444 438 465 l 738 444 l 721 347 l 278 347 q 239 214 239 289 q 279 119 239 154 q 390 83 319 83 q 522 101 461 83 q 619 146 583 119 l 633 146 l 674 63 q 547 8 625 31 q 381 -14 468 -14 q 165 44 243 -14 q 86 207 86 101 q 122 347 86 288 l 42 347 l 58 444 l 218 444 q 344 514 265 476 l 71 514 l 89 611 l 514 611 q 565 678 550 643 q 579 756 579 713 q 540 855 579 821 q 439 889 500 889 q 339 873 390 889 q 240 826 288 857 l 226 826 l 186 910 q 325 967 251 947 q 468 986 399 986 q 647 927 576 986 q 718 764 718 868 q 667 611 718 674 l 768 611 l 750 514 l 542 514 z "},"₽":{"ha":756,"x_min":7,"x_max":804,"o":"m 506 972 q 804 738 804 972 q 796 653 804 699 q 669 413 768 493 q 393 333 569 333 l 282 333 l 268 250 l 414 250 l 396 153 l 250 153 l 224 0 l 85 0 l 111 153 l 7 153 l 25 250 l 129 250 l 143 333 l 39 333 l 57 431 l 160 431 l 256 972 l 506 972 m 657 653 q 664 722 664 694 q 621 838 664 801 q 489 875 578 875 l 378 875 l 299 431 l 410 431 q 576 485 515 431 q 657 653 638 539 z "},"£":{"ha":660,"x_min":0,"x_max":736,"o":"m 17 97 q 76 139 50 108 q 165 347 139 207 l 185 458 l 94 458 l 111 556 l 201 556 l 236 750 q 288 869 247 815 q 391 955 329 924 q 521 986 453 986 q 686 947 621 986 q 736 910 717 931 l 672 826 l 658 826 q 624 857 644 843 q 517 889 574 889 q 427 850 468 889 q 375 750 386 811 l 340 556 l 528 556 l 511 458 l 324 458 l 304 347 q 219 144 278 213 q 163 97 189 110 l 628 97 l 611 0 l 0 0 l 17 97 z "},"₸":{"ha":667,"x_min":104,"x_max":789,"o":"m 133 875 l 150 972 l 789 972 l 772 875 l 133 875 m 229 0 l 354 708 l 104 708 l 121 806 l 760 806 l 743 708 l 493 708 l 368 0 l 229 0 z "},"₮":{"ha":667,"x_min":64,"x_max":763,"o":"m 746 875 l 496 875 l 444 586 l 653 639 l 638 556 l 431 503 l 415 419 l 624 472 l 610 389 l 401 336 l 342 0 l 203 0 l 256 299 l 64 250 l 78 333 l 269 382 l 285 465 l 93 417 l 108 500 l 300 549 l 357 875 l 107 875 l 124 972 l 763 972 l 746 875 z "},"¥":{"ha":736,"x_min":99,"x_max":872,"o":"m 307 250 l 99 250 l 117 347 l 313 347 l 290 424 l 129 424 l 147 521 l 264 521 l 136 972 l 282 972 l 401 549 q 411 494 410 514 q 413 465 413 485 l 418 465 l 429 494 q 457 549 439 518 l 726 972 l 872 972 l 586 521 l 703 521 l 685 424 l 524 424 l 476 347 l 672 347 l 654 250 l 446 250 l 403 0 l 264 0 l 307 250 z "},"∕":{"ha":569,"x_min":-35,"x_max":706,"o":"m 567 972 l 706 972 l 104 0 l -35 0 l 567 972 z "},"+":{"ha":653,"x_min":78,"x_max":667,"o":"m 267 174 l 307 403 l 78 403 l 97 514 l 326 514 l 367 743 l 478 743 l 438 514 l 667 514 l 647 403 l 418 403 l 378 174 l 267 174 z "},"×":{"ha":607,"x_min":79,"x_max":618,"o":"m 144 218 l 79 296 l 271 458 l 136 621 l 229 699 l 364 538 l 553 699 l 618 621 l 428 458 l 561 296 l 468 218 l 336 379 l 144 218 z "}}}
